if (_typeface_js && _typeface_js.loadFace) _typeface_js.loadFace({"glyphs":{"0":{"ha":704,"x_min":36,"x_max":668,"o":"m 668 446 q 644 243 668 329 q 576 101 619 157 q 476 18 534 45 q 351 -9 418 -9 q 227 18 285 -9 q 127 101 170 45 q 60 243 85 157 q 36 446 36 329 q 60 648 36 562 q 127 790 85 734 q 227 874 170 846 q 351 901 285 901 q 476 874 418 901 q 576 790 534 846 q 644 648 619 734 q 668 446 668 562 m 550 446 q 534 616 550 547 q 490 727 517 685 q 427 787 463 769 q 351 806 391 806 q 276 787 312 806 q 213 727 241 769 q 170 616 186 685 q 153 446 153 547 q 170 275 153 344 q 213 164 186 206 q 276 104 241 122 q 351 86 312 86 q 427 104 391 86 q 490 164 463 122 q 534 275 517 206 q 550 446 550 344 z "},"1":{"ha":704,"x_min":120,"x_max":642,"o":"m 173 87 l 358 87 l 358 688 q 360 743 358 715 l 209 610 q 177 601 193 597 q 156 614 162 606 l 120 664 l 380 894 l 472 894 l 472 87 l 642 87 l 642 0 l 173 0 l 173 87 z "},"2":{"ha":704,"x_min":62,"x_max":645,"o":"m 62 0 m 366 901 q 470 884 422 901 q 553 836 518 867 q 609 758 589 804 q 629 652 629 711 q 614 561 629 603 q 575 479 600 518 q 517 404 550 441 q 449 330 485 367 l 220 92 q 272 103 246 99 q 322 107 298 107 l 605 107 q 634 97 623 107 q 645 68 645 86 l 645 0 l 62 0 l 62 39 q 67 63 62 50 q 83 87 72 77 l 359 372 q 423 441 395 408 q 471 508 451 475 q 501 576 490 542 q 512 650 512 611 q 500 718 512 688 q 468 766 488 747 q 420 795 448 785 q 359 804 392 804 q 300 794 328 804 q 252 767 273 785 q 216 726 231 750 q 195 673 201 702 q 176 643 189 650 q 139 640 163 636 l 80 649 q 113 758 88 711 q 175 837 138 805 q 261 885 212 869 q 366 901 309 901 z "},"3":{"ha":704,"x_min":64,"x_max":651,"o":"m 64 0 m 376 901 q 479 885 433 901 q 560 839 526 869 q 613 767 594 809 q 631 673 631 725 q 621 597 631 631 q 591 539 610 564 q 543 497 571 514 q 481 469 515 479 q 608 392 566 446 q 651 256 651 338 q 628 145 651 195 q 565 62 605 96 q 473 9 526 27 q 360 -9 420 -9 q 242 8 291 -9 q 159 56 193 25 q 102 130 124 87 q 64 222 79 172 l 113 243 q 151 248 133 251 q 177 227 169 244 q 197 185 185 210 q 229 139 209 161 q 281 102 250 117 q 359 87 312 87 q 437 102 404 87 q 492 141 470 117 q 526 195 515 165 q 537 253 537 224 q 528 318 537 288 q 495 370 519 349 q 428 404 471 391 q 317 416 385 416 l 317 498 q 411 510 372 498 q 474 543 450 522 q 509 591 498 563 q 520 654 520 620 q 509 720 520 692 q 478 767 498 748 q 430 795 458 786 q 370 804 403 804 q 311 794 338 804 q 263 767 284 785 q 228 726 242 750 q 205 673 213 702 q 187 643 200 650 q 150 640 174 636 l 90 649 q 123 758 99 711 q 185 837 148 805 q 272 885 223 869 q 376 901 320 901 z "},"4":{"ha":704,"x_min":24,"x_max":681,"o":"m 24 0 m 552 322 l 681 322 l 681 258 q 674 240 681 248 q 656 233 668 233 l 552 233 l 552 0 l 452 0 l 452 233 l 69 233 q 47 240 56 233 q 35 259 38 248 l 24 316 l 446 892 l 552 892 l 552 322 m 452 686 q 456 757 452 718 l 145 322 l 452 322 l 452 686 z "},"5":{"ha":704,"x_min":63,"x_max":622,"o":"m 63 0 m 595 842 q 579 802 595 818 q 528 787 564 787 l 259 787 l 220 556 q 284 567 254 564 q 343 570 315 570 q 463 550 411 570 q 551 493 515 529 q 604 408 586 457 q 622 301 622 359 q 598 173 622 230 q 531 75 574 115 q 431 12 489 34 q 307 -9 374 -9 q 233 -2 269 -9 q 167 19 198 6 q 110 49 136 32 q 63 85 83 66 l 98 133 q 128 149 110 149 q 156 140 140 149 q 193 118 171 130 q 243 97 214 106 q 313 87 273 87 q 394 102 358 87 q 455 144 430 117 q 494 210 480 172 q 507 296 507 248 q 495 370 507 337 q 460 427 484 404 q 401 464 437 451 q 319 477 366 477 q 180 452 254 477 l 109 474 l 180 891 l 595 891 l 595 842 z "},"6":{"ha":704,"x_min":62,"x_max":656,"o":"m 296 587 q 276 560 286 573 q 258 534 267 547 q 322 564 287 553 q 398 575 357 575 q 496 557 450 575 q 579 503 543 538 q 635 415 614 467 q 656 296 656 363 q 634 175 656 231 q 572 78 612 119 q 477 13 532 37 q 355 -10 422 -10 q 234 13 288 -10 q 142 77 180 35 q 83 178 104 119 q 62 311 62 237 q 88 441 62 372 q 168 591 113 511 l 386 909 q 411 930 395 922 q 450 938 428 938 l 555 938 l 296 587 m 178 290 q 189 208 178 245 q 223 144 201 171 q 278 103 245 118 q 353 88 311 88 q 428 103 394 88 q 486 145 462 119 q 523 208 510 172 q 536 287 536 244 q 524 370 536 333 q 487 432 511 406 q 431 471 464 457 q 358 484 398 484 q 283 468 317 484 q 226 426 250 452 q 190 363 203 399 q 178 290 178 328 z "},"7":{"ha":704,"x_min":66,"x_max":659,"o":"m 66 0 m 659 891 l 659 841 q 654 805 659 819 q 645 782 650 791 l 289 40 q 266 12 281 24 q 227 0 251 0 l 144 0 l 507 732 q 543 787 523 764 l 94 787 q 75 795 83 787 q 66 814 66 803 l 66 891 l 659 891 z "},"8":{"ha":704,"x_min":56,"x_max":648,"o":"m 352 -10 q 232 8 286 -10 q 138 62 177 27 q 77 146 99 97 q 56 257 56 196 q 99 406 56 348 q 224 489 142 465 q 120 571 155 516 q 85 702 85 626 q 105 799 85 753 q 159 877 124 844 q 243 930 194 911 q 352 949 292 949 q 461 930 412 949 q 545 877 510 911 q 599 799 580 844 q 618 702 618 753 q 583 571 618 626 q 479 489 548 516 q 605 406 562 465 q 648 257 648 348 q 627 146 648 196 q 566 62 605 97 q 472 8 527 27 q 352 -10 418 -10 m 352 84 q 425 97 393 84 q 479 133 457 110 q 513 188 502 156 q 525 259 525 220 q 511 341 525 307 q 474 397 497 375 q 419 429 450 418 q 352 439 387 439 q 284 429 316 439 q 230 397 253 418 q 192 341 206 375 q 178 259 178 307 q 190 188 178 220 q 224 133 201 156 q 278 97 246 110 q 352 84 311 84 m 352 534 q 421 548 393 534 q 468 585 450 562 q 494 638 486 608 q 502 700 502 668 q 492 761 502 732 q 464 811 483 789 q 417 845 446 832 q 352 857 389 857 q 287 845 315 857 q 240 811 258 832 q 212 761 221 789 q 202 700 202 732 q 210 638 202 668 q 236 585 218 608 q 282 548 254 562 q 352 534 311 534 z "},"9":{"ha":704,"x_min":89,"x_max":656,"o":"m 89 0 m 448 355 q 472 388 460 372 q 493 419 483 404 q 419 379 460 393 q 332 366 378 366 q 239 382 283 366 q 162 432 195 399 q 109 512 128 465 q 89 621 89 559 q 110 731 89 680 q 170 820 132 782 q 261 880 208 858 q 378 901 315 901 q 493 880 441 901 q 581 821 544 859 q 637 729 617 783 q 656 612 656 676 q 649 539 656 574 q 629 472 642 505 q 597 406 616 439 q 555 339 578 374 l 346 26 q 322 7 338 15 q 288 0 307 0 l 183 0 l 448 355 m 547 626 q 535 701 547 667 q 499 758 522 734 q 446 794 477 782 q 377 807 414 807 q 306 794 338 807 q 251 757 273 781 q 215 701 228 734 q 203 629 203 668 q 248 498 203 545 q 370 452 292 452 q 446 467 413 452 q 501 505 479 481 q 535 561 524 529 q 547 626 547 592 z "},"\u0000":{"ha":0,"x_min":-12,"x_max":12,"o":"m -12 -224 q -8 -216 -12 -219 q 0 -212 -5 -212 q 9 -216 5 -212 q 12 -224 12 -219 q 9 -233 12 -229 q 0 -236 5 -236 q -8 -233 -5 -236 q -12 -224 -12 -229 z "}," ":{"ha":314,"x_min":0,"x_max":0,"o":""},"A":{"ha":804,"x_min":5,"x_max":799,"o":"m 799 0 l 703 0 q 677 8 687 0 q 662 28 667 16 l 586 243 l 218 243 l 143 29 q 128 9 139 18 q 101 0 117 0 l 5 0 l 340 891 l 465 891 l 799 0 m 250 331 l 555 331 l 429 690 q 415 728 422 706 q 402 774 408 749 q 389 727 395 749 q 376 689 382 705 l 250 331 z "},"Ą":{"ha":804,"x_min":5,"x_max":897,"o":"m 867 -136 q 879 -144 876 -136 l 897 -188 q 847 -212 878 -203 q 783 -222 817 -222 q 693 -196 726 -222 q 660 -127 660 -170 q 684 -57 660 -90 q 747 0 709 -24 l 703 0 q 677 8 687 0 q 662 28 667 16 l 586 243 l 218 243 l 143 29 q 128 9 139 18 q 101 0 117 0 l 5 0 l 340 891 l 465 891 l 797 5 l 825 2 q 799 -15 812 -5 q 775 -38 786 -25 q 756 -66 764 -51 q 749 -98 749 -81 q 766 -136 749 -122 q 808 -151 782 -151 q 832 -148 823 -151 q 848 -143 842 -146 q 859 -138 855 -140 q 867 -136 863 -136 m 250 331 l 555 331 l 429 690 q 415 728 422 706 q 402 774 408 749 q 389 727 395 749 q 376 689 382 705 l 250 331 z "},"Æ":{"ha":1060,"x_min":-14,"x_max":1004,"o":"m 413 891 l 1004 891 l 1004 791 l 587 791 l 620 498 l 928 498 l 928 401 l 631 401 l 665 100 l 1004 100 l 1004 0 l 560 0 l 532 243 l 224 243 l 127 28 q 109 8 121 16 q 79 0 96 0 l -14 0 l 413 891 m 264 331 l 522 331 l 469 795 q 453 749 461 770 q 435 709 444 728 l 264 331 z "},"B":{"ha":755,"x_min":98,"x_max":696,"o":"m 98 0 l 98 891 l 370 891 q 505 875 448 891 q 598 829 562 859 q 651 756 634 799 q 668 659 668 713 q 658 595 668 626 q 629 539 648 565 q 579 492 609 513 q 509 458 549 471 q 649 389 602 440 q 696 254 696 338 q 676 151 696 197 q 618 70 656 104 q 525 18 581 37 q 399 0 470 0 l 98 0 m 221 406 l 221 98 l 397 98 q 477 110 444 98 q 532 142 511 121 q 563 193 553 163 q 573 257 573 222 q 530 366 573 326 q 397 406 487 406 l 221 406 m 221 492 l 365 492 q 444 504 410 492 q 500 534 478 515 q 534 582 523 554 q 545 644 545 610 q 503 758 545 722 q 370 794 460 794 l 221 794 l 221 492 z "},"C":{"ha":741,"x_min":45,"x_max":713,"o":"m 647 186 q 665 178 656 186 l 713 125 q 595 26 665 61 q 426 -9 524 -9 q 269 24 339 -9 q 149 117 199 57 q 72 261 99 177 q 45 446 45 345 q 74 630 45 547 q 154 774 102 714 q 277 868 205 835 q 436 901 349 901 q 588 871 522 901 q 702 788 653 840 l 661 731 q 651 721 657 725 q 635 717 645 717 q 610 729 624 717 q 574 756 596 741 q 518 783 551 770 q 435 795 485 795 q 329 771 377 795 q 245 702 280 747 q 191 592 210 657 q 172 446 172 528 q 192 298 172 363 q 248 188 212 233 q 331 119 283 143 q 433 96 378 96 q 494 100 467 96 q 544 115 521 105 q 586 140 566 125 q 626 176 606 155 q 647 186 637 186 z "},"Ç":{"ha":741,"x_min":45,"x_max":713,"o":"m 343 -165 q 352 -167 347 -165 q 365 -172 357 -170 q 382 -177 372 -175 q 406 -180 392 -180 q 447 -169 433 -180 q 461 -141 461 -158 q 434 -106 461 -116 q 356 -90 406 -96 l 383 -7 q 243 37 306 1 q 137 133 180 73 q 69 271 93 192 q 45 446 45 351 q 74 630 45 547 q 154 774 102 714 q 277 868 205 835 q 436 901 349 901 q 588 871 522 901 q 702 788 653 840 l 661 731 q 651 721 657 725 q 635 717 645 717 q 610 729 624 717 q 574 756 596 741 q 518 783 551 770 q 435 795 485 795 q 329 771 377 795 q 245 702 280 747 q 191 592 210 657 q 172 446 172 528 q 192 298 172 363 q 248 188 212 233 q 331 119 283 143 q 433 96 378 96 q 494 100 467 96 q 544 115 521 105 q 586 140 566 125 q 626 176 606 155 q 647 186 637 186 q 665 178 656 186 l 713 125 q 604 31 668 65 q 452 -9 541 -4 l 440 -49 q 528 -84 501 -61 q 555 -142 555 -107 q 544 -180 555 -163 q 515 -209 534 -197 q 470 -227 496 -220 q 412 -233 444 -233 q 361 -228 386 -233 q 317 -213 337 -222 l 328 -176 q 343 -165 332 -165 z "},"D":{"ha":854,"x_min":94,"x_max":808,"o":"m 808 446 q 779 263 808 345 q 696 122 749 181 q 568 32 643 64 q 402 0 493 0 l 94 0 l 94 891 l 402 891 q 568 859 493 891 q 696 768 643 827 q 779 628 749 710 q 808 446 808 545 m 682 446 q 662 591 682 527 q 606 700 642 655 q 517 768 569 745 q 402 791 466 791 l 218 791 l 218 100 l 402 100 q 517 123 466 100 q 606 191 569 146 q 662 300 642 235 q 682 446 682 364 z "},"Ð":{"ha":867,"x_min":28,"x_max":824,"o":"m 28 0 m 28 486 l 133 486 l 133 891 l 431 891 q 591 859 519 891 q 715 768 663 827 q 795 628 767 710 q 824 446 824 545 q 795 263 824 345 q 715 122 767 181 q 591 32 663 64 q 431 0 519 0 l 133 0 l 133 414 l 28 414 l 28 486 m 697 446 q 679 591 697 527 q 625 700 660 655 q 541 768 591 745 q 431 791 492 791 l 258 791 l 258 486 l 410 486 l 410 414 l 258 414 l 258 100 l 431 100 q 541 123 492 100 q 625 191 591 146 q 679 300 660 235 q 697 446 697 364 z "},"E":{"ha":678,"x_min":98,"x_max":620,"o":"m 619 891 l 619 791 l 222 791 l 222 498 l 542 498 l 542 401 l 222 401 l 222 100 l 620 100 l 619 0 l 98 0 l 98 891 l 619 891 z "},"Ę":{"ha":678,"x_min":98,"x_max":631,"o":"m 601 -136 q 613 -144 610 -136 l 631 -188 q 582 -212 612 -203 q 517 -222 551 -222 q 427 -196 460 -222 q 394 -127 394 -170 q 418 -57 394 -90 q 481 0 443 -24 l 98 0 l 98 891 l 619 891 l 619 791 l 222 791 l 222 498 l 542 498 l 542 401 l 222 401 l 222 100 l 620 100 l 619 0 l 555 0 q 530 -17 543 -7 q 507 -39 517 -27 q 490 -66 496 -52 q 484 -98 484 -81 q 500 -136 484 -122 q 542 -151 516 -151 q 566 -148 557 -151 q 583 -143 576 -146 q 593 -138 589 -140 q 601 -136 597 -136 z "},"F":{"ha":638,"x_min":94,"x_max":598,"o":"m 598 891 l 598 791 l 218 791 l 218 482 l 541 482 l 541 382 l 218 382 l 218 0 l 94 0 l 94 891 l 598 891 z "},"G":{"ha":876,"x_min":52,"x_max":804,"o":"m 804 86 q 665 14 739 38 q 505 -9 591 -9 q 318 24 401 -9 q 175 117 234 57 q 84 261 116 177 q 52 446 52 345 q 83 631 52 547 q 171 775 114 715 q 310 868 229 835 q 492 901 391 901 q 588 893 544 901 q 669 871 631 886 q 738 836 706 857 q 796 789 769 814 l 762 733 q 740 716 753 720 q 711 722 726 713 q 676 744 695 731 q 632 767 658 756 q 571 787 606 779 q 488 795 536 795 q 360 770 417 795 q 262 701 302 746 q 200 590 222 655 q 178 446 178 526 q 201 296 178 362 q 266 184 224 230 q 368 114 309 138 q 502 90 428 90 q 604 103 559 90 q 692 140 648 117 l 692 336 l 564 336 q 544 342 551 336 q 536 359 536 349 l 536 429 l 804 429 l 804 86 l 804 86 z "},"H":{"ha":865,"x_min":95,"x_max":770,"o":"m 770 0 l 646 0 l 646 404 l 219 404 l 219 0 l 95 0 l 95 891 l 219 891 l 219 494 l 646 494 l 646 891 l 770 891 l 770 0 z "},"Ħ":{"ha":911,"x_min":23,"x_max":888,"o":"m 793 719 l 888 719 l 888 645 l 793 645 l 793 0 l 669 0 l 669 404 l 242 404 l 242 0 l 118 0 l 118 645 l 23 645 l 23 719 l 118 719 l 118 891 l 242 891 l 242 719 l 669 719 l 669 891 l 793 891 l 793 719 m 242 494 l 669 494 l 669 645 l 242 645 l 242 494 z "},"I":{"ha":350,"x_min":113,"x_max":237,"o":"m 237 0 l 113 0 l 113 891 l 237 891 l 237 0 z "},"Į":{"ha":350,"x_min":53,"x_max":290,"o":"m 260 -136 q 272 -144 269 -136 l 290 -188 q 240 -212 271 -203 q 176 -222 210 -222 q 86 -196 119 -222 q 53 -127 53 -170 q 77 -57 53 -90 q 140 0 102 -24 l 113 0 l 113 891 l 237 891 l 237 0 l 214 0 q 189 -17 202 -7 q 166 -39 176 -27 q 149 -66 155 -52 q 142 -98 142 -81 q 159 -136 142 -122 q 201 -151 175 -151 q 225 -148 216 -151 q 241 -143 235 -146 q 252 -138 248 -140 q 260 -136 256 -136 z "},"J":{"ha":443,"x_min":23,"x_max":365,"o":"m 365 309 q 350 175 365 234 q 305 75 335 116 q 231 12 275 34 q 130 -9 187 -9 q 77 -6 103 -9 q 23 7 52 -2 q 26 44 24 26 q 30 80 28 62 q 38 97 31 90 q 57 104 44 104 q 80 99 66 104 q 117 94 94 94 q 210 144 178 94 q 241 306 241 194 l 241 891 l 365 891 l 365 309 z "},"K":{"ha":722,"x_min":84,"x_max":711,"o":"m 208 502 l 243 502 q 275 508 262 502 q 298 528 288 514 l 528 863 q 553 885 540 878 q 586 891 566 891 l 692 891 l 420 509 q 375 467 399 479 q 431 423 406 456 l 711 0 l 603 0 q 570 7 581 0 q 550 26 559 14 l 314 378 q 291 400 303 394 q 253 407 278 407 l 208 407 l 208 0 l 84 0 l 84 891 l 208 891 l 208 502 z "},"L":{"ha":584,"x_min":94,"x_max":561,"o":"m 217 104 l 561 104 l 561 0 l 94 0 l 94 891 l 217 891 l 217 104 z "},"Ł":{"ha":597,"x_min":22,"x_max":598,"o":"m 254 511 l 450 624 l 450 541 q 433 513 450 522 l 254 407 l 254 104 l 598 104 l 598 0 l 131 0 l 131 344 l 22 284 l 22 370 q 37 394 22 386 l 131 448 l 131 891 l 254 891 l 254 511 z "},"Ľ":{"ha":587,"x_min":118,"x_max":585,"o":"m 118 0 m 241 104 l 585 104 l 585 0 l 118 0 l 118 891 l 241 891 l 241 104 m 461 926 q 479 919 475 926 q 483 904 483 911 q 480 887 483 898 q 472 857 478 876 q 455 808 466 838 q 429 735 445 779 q 413 715 423 720 q 387 711 403 711 l 345 711 l 382 926 l 461 926 z "},"M":{"ha":1187,"x_min":113,"x_max":1074,"o":"m 566 325 q 582 293 575 309 q 596 260 589 277 q 610 294 603 277 q 625 325 617 310 l 940 871 q 958 888 948 885 q 983 891 967 891 l 1074 891 l 1074 0 l 965 0 l 965 650 q 966 681 965 664 q 968 714 967 697 l 650 155 q 606 127 635 127 l 588 127 q 543 155 559 127 l 218 713 q 222 650 222 680 l 222 0 l 113 0 l 113 891 l 204 891 q 230 888 220 891 q 248 870 239 885 l 566 325 l 566 325 z "},"N":{"ha":897,"x_min":100,"x_max":796,"o":"m 165 891 q 189 887 180 891 q 207 870 197 884 l 691 203 q 689 236 690 220 q 688 265 688 252 l 688 891 l 796 891 l 796 0 l 734 0 q 710 5 720 0 q 690 22 700 9 l 206 686 q 208 656 208 671 q 209 629 209 642 l 209 0 l 100 0 l 100 891 l 165 891 l 165 891 z "},"Ŋ":{"ha":873,"x_min":96,"x_max":777,"o":"m 777 5 q 766 -87 777 -45 q 731 -160 755 -130 q 670 -206 707 -190 q 582 -222 633 -222 q 530 -217 553 -222 q 481 -200 507 -212 l 494 -151 q 504 -132 497 -136 q 519 -127 511 -127 q 539 -132 527 -127 q 572 -137 551 -137 q 644 -105 619 -137 q 668 -7 668 -73 l 668 25 l 202 686 q 204 656 203 671 q 205 629 205 642 l 205 0 l 96 0 l 96 891 l 161 891 q 184 887 176 891 q 203 870 193 884 l 671 205 q 669 236 670 220 q 668 265 668 252 l 668 891 l 777 891 l 777 5 z "},"O":{"ha":920,"x_min":49,"x_max":871,"o":"m 871 446 q 841 262 871 345 q 758 118 812 178 q 628 24 704 58 q 460 -9 553 -9 q 293 24 369 -9 q 163 118 217 58 q 79 262 109 178 q 49 446 49 345 q 79 629 49 545 q 163 773 109 713 q 293 868 217 834 q 460 901 369 901 q 628 868 553 901 q 758 773 704 834 q 841 629 812 713 q 871 446 871 545 m 745 446 q 725 592 745 527 q 668 702 705 656 q 578 771 631 747 q 460 795 526 795 q 343 771 395 795 q 253 702 290 747 q 196 592 216 656 q 176 446 176 527 q 196 299 176 364 q 253 190 216 235 q 343 121 290 144 q 460 97 395 97 q 578 121 526 97 q 668 190 631 144 q 725 299 705 235 q 745 446 745 364 z "},"Ø":{"ha":922,"x_min":50,"x_max":873,"o":"m 873 446 q 843 262 873 345 q 759 118 813 178 q 629 24 705 58 q 461 -9 553 -9 q 347 5 400 -9 q 249 47 294 20 l 194 -33 q 161 -60 180 -52 q 124 -68 142 -68 l 75 -68 l 186 95 q 85 245 121 156 q 50 446 50 334 q 79 629 50 545 q 163 773 109 713 q 294 868 218 834 q 461 901 370 901 q 584 884 527 901 q 689 834 642 867 l 734 900 q 745 915 740 909 q 755 925 750 921 q 768 930 761 928 q 786 932 776 932 l 850 932 l 749 784 q 841 636 808 722 q 873 446 873 551 m 176 446 q 195 300 176 364 q 252 191 215 237 l 627 743 q 551 782 593 768 q 461 795 510 795 q 343 771 396 795 q 253 702 290 747 q 196 592 216 656 q 176 446 176 527 m 746 446 q 729 579 746 519 q 682 684 713 640 l 311 138 q 461 97 375 97 q 579 121 526 97 q 669 190 632 144 q 726 299 706 235 q 746 446 746 364 z "},"Œ":{"ha":1204,"x_min":45,"x_max":1150,"o":"m 1149 891 l 1149 791 l 780 791 l 780 498 l 1077 498 l 1077 401 l 780 401 l 780 100 l 1150 100 l 1149 0 l 671 0 l 671 134 q 556 28 624 66 q 402 -9 488 -9 q 256 25 322 -9 q 144 118 191 58 q 71 262 97 178 q 45 446 45 345 q 71 629 45 545 q 144 773 97 713 q 256 868 191 834 q 402 901 322 901 q 556 863 488 901 q 671 758 624 825 l 671 891 l 1149 891 m 656 446 q 639 592 656 527 q 591 703 622 657 q 515 773 559 749 q 414 798 470 798 q 314 773 359 798 q 237 703 269 749 q 189 592 205 657 q 172 446 172 527 q 189 299 172 364 q 237 189 205 234 q 314 119 269 143 q 414 94 359 94 q 515 119 470 94 q 591 189 559 143 q 639 299 622 234 q 656 446 656 364 z "},"P":{"ha":718,"x_min":100,"x_max":674,"o":"m 223 332 l 223 0 l 100 0 l 100 891 l 355 891 q 497 871 437 891 q 596 816 557 852 q 655 729 635 780 q 674 614 674 677 q 653 500 674 552 q 592 411 633 449 q 493 353 552 374 q 355 332 433 332 l 223 332 m 223 430 l 355 430 q 439 444 403 430 q 501 481 476 457 q 538 540 526 506 q 551 614 551 574 q 503 747 551 700 q 355 794 454 794 l 223 794 l 223 430 z "},"Þ":{"ha":718,"x_min":100,"x_max":676,"o":"m 224 169 l 224 0 l 100 0 l 100 891 l 224 891 l 224 728 l 357 728 q 498 708 438 728 q 598 652 559 688 q 657 565 637 616 q 676 451 676 514 q 655 337 676 389 q 594 248 635 286 q 494 190 554 210 q 357 169 435 169 l 224 169 m 224 267 l 357 267 q 441 280 405 267 q 503 318 478 294 q 540 376 528 342 q 553 451 553 410 q 504 583 553 536 q 357 631 456 631 l 224 631 l 224 267 z "},"Q":{"ha":935,"x_min":56,"x_max":957,"o":"m 878 446 q 838 234 878 328 q 726 80 798 141 l 957 -184 l 854 -184 q 814 -177 832 -184 q 782 -155 797 -170 l 630 22 q 468 -9 556 -9 q 300 24 376 -9 q 170 118 224 58 q 86 262 116 178 q 56 446 56 345 q 86 629 56 545 q 170 773 116 713 q 300 868 224 834 q 468 901 376 901 q 636 868 560 901 q 765 773 711 834 q 849 629 819 713 q 878 446 878 545 m 752 446 q 732 592 752 527 q 675 702 712 656 q 586 771 638 747 q 468 795 533 795 q 350 771 403 795 q 260 702 298 747 q 203 592 223 656 q 183 446 183 527 q 203 299 183 364 q 260 190 223 235 q 350 121 298 144 q 468 97 403 97 q 586 121 533 97 q 675 190 638 144 q 732 299 712 235 q 752 446 752 364 z "},"R":{"ha":754,"x_min":100,"x_max":734,"o":"m 223 370 l 223 0 l 100 0 l 100 891 l 344 891 q 485 874 425 891 q 582 824 544 857 q 639 746 621 792 q 657 644 657 701 q 643 556 657 597 q 603 483 629 515 q 539 427 577 450 q 453 391 501 404 q 475 375 465 384 q 494 353 485 366 l 734 0 l 624 0 q 574 25 592 0 l 363 342 q 341 364 353 357 q 306 370 330 370 l 223 370 m 223 460 l 339 460 q 425 473 388 460 q 487 509 462 486 q 525 564 512 532 q 537 635 537 596 q 344 794 537 794 l 223 794 l 223 460 z "},"S":{"ha":638,"x_min":37,"x_max":589,"o":"m 541 751 q 513 732 530 732 q 489 742 503 732 q 455 765 475 753 q 407 788 435 778 q 339 799 378 799 q 274 788 302 799 q 227 759 245 778 q 199 716 208 741 q 189 663 189 691 q 207 601 189 625 q 252 559 224 576 q 316 529 280 542 q 389 503 352 516 q 463 472 427 489 q 527 428 498 454 q 572 364 555 402 q 589 271 589 326 q 570 161 589 212 q 515 72 551 110 q 426 12 479 34 q 305 -9 373 -9 q 154 22 223 -9 q 37 107 85 54 l 73 165 q 85 177 78 173 q 102 182 92 182 q 131 168 115 182 q 170 137 146 154 q 228 107 194 121 q 308 93 261 93 q 378 104 347 93 q 430 137 408 116 q 462 188 451 158 q 473 253 473 217 q 456 319 473 293 q 411 362 439 345 q 347 391 382 379 q 273 416 311 403 q 200 445 236 429 q 136 489 164 462 q 91 556 108 516 q 73 656 73 596 q 91 747 73 703 q 142 826 109 791 q 225 881 176 860 q 338 901 274 901 q 468 878 409 901 q 571 808 528 854 l 541 751 z "},"Ş":{"ha":638,"x_min":37,"x_max":589,"o":"m 251 -165 q 260 -167 255 -165 q 273 -172 265 -170 q 290 -177 280 -175 q 314 -180 300 -180 q 355 -169 341 -180 q 369 -141 369 -158 q 341 -106 369 -116 q 264 -90 314 -96 l 290 -9 q 148 25 212 -5 q 37 107 83 56 l 73 165 q 85 177 78 173 q 102 182 92 182 q 131 168 115 182 q 170 137 146 154 q 228 107 194 121 q 308 93 261 93 q 378 104 347 93 q 430 137 408 116 q 462 188 451 158 q 473 253 473 217 q 456 319 473 293 q 411 362 439 345 q 347 391 382 379 q 273 416 311 403 q 200 445 236 429 q 136 489 164 462 q 91 556 108 516 q 73 656 73 596 q 91 747 73 703 q 142 826 109 791 q 225 881 176 860 q 338 901 274 901 q 468 878 409 901 q 571 808 528 854 l 541 751 q 513 732 530 732 q 489 742 503 732 q 455 765 475 753 q 407 788 435 778 q 339 799 378 799 q 274 788 302 799 q 227 759 245 778 q 199 716 208 741 q 189 663 189 691 q 207 601 189 625 q 252 559 224 576 q 316 529 280 542 q 389 503 352 516 q 463 472 427 489 q 527 428 498 454 q 572 364 555 402 q 589 271 589 326 q 574 173 589 219 q 530 90 559 126 q 458 28 500 53 q 361 -5 416 3 l 348 -49 q 436 -84 409 -61 q 463 -142 463 -107 q 452 -180 463 -163 q 423 -209 441 -197 q 378 -227 404 -220 q 320 -233 351 -233 q 269 -228 294 -233 q 224 -213 245 -222 l 236 -176 q 251 -165 240 -165 z "},"T":{"ha":677,"x_min":16,"x_max":661,"o":"m 661 891 l 661 788 l 401 788 l 401 0 l 277 0 l 277 788 l 16 788 l 16 891 l 661 891 z "},"Ŧ":{"ha":677,"x_min":16,"x_max":661,"o":"m 661 891 l 661 788 l 401 788 l 401 530 l 611 530 l 611 457 l 401 457 l 401 0 l 277 0 l 277 457 l 119 457 l 119 530 l 277 530 l 277 788 l 16 788 l 16 891 l 661 891 z "},"U":{"ha":891,"x_min":95,"x_max":796,"o":"m 446 98 q 542 116 499 98 q 613 169 584 135 q 657 248 642 202 q 673 350 673 294 l 673 891 l 796 891 l 796 350 q 772 207 796 273 q 702 93 747 141 q 592 17 657 45 q 446 -10 527 -10 q 299 17 364 -10 q 189 93 235 45 q 119 207 144 141 q 95 350 95 273 l 95 891 l 218 891 l 218 351 q 234 249 218 295 q 278 169 249 202 q 350 116 307 135 q 446 98 392 98 z "},"Ų":{"ha":891,"x_min":95,"x_max":796,"o":"m 555 -136 q 568 -144 564 -136 l 586 -188 q 536 -212 566 -203 q 472 -222 506 -222 q 381 -196 414 -222 q 349 -127 349 -170 q 369 -63 349 -93 q 422 -9 389 -33 q 285 23 346 -5 q 182 100 224 52 q 118 212 140 148 q 95 350 95 275 l 95 891 l 218 891 l 218 351 q 234 249 218 295 q 278 169 249 202 q 350 116 307 135 q 446 98 392 98 q 542 116 499 98 q 613 169 584 135 q 657 248 642 202 q 673 350 673 294 l 673 891 l 796 891 l 796 350 q 776 218 796 279 q 717 110 755 157 q 624 32 679 62 q 499 -7 568 2 q 477 -24 488 -14 q 457 -45 466 -33 q 444 -70 449 -56 q 438 -98 438 -83 q 454 -136 438 -122 q 496 -151 471 -151 q 521 -148 511 -151 q 537 -143 530 -146 q 548 -138 544 -140 q 555 -136 552 -136 z "},"V":{"ha":788,"x_min":4,"x_max":784,"o":"m 4 891 l 104 891 q 130 883 120 891 q 145 863 140 875 l 366 238 q 381 192 374 217 q 395 140 389 168 q 408 192 401 168 q 423 238 415 217 l 643 862 q 658 882 647 873 q 684 891 669 891 l 784 891 l 450 0 l 338 0 l 4 891 z "},"W":{"ha":1236,"x_min":8,"x_max":1227,"o":"m 8 891 l 112 891 q 139 883 127 891 q 153 863 150 876 l 326 248 q 344 172 336 215 q 353 212 348 193 q 363 248 357 231 l 562 862 q 576 882 565 873 q 604 891 588 891 l 640 891 q 666 883 656 891 q 681 863 677 876 l 880 248 q 890 213 885 231 q 899 174 895 194 q 907 213 903 194 q 916 248 911 232 l 1088 862 q 1103 882 1091 873 q 1131 891 1115 891 l 1227 891 l 957 0 l 845 0 l 631 675 q 624 696 627 685 q 618 720 621 707 q 612 696 615 707 q 606 675 609 685 l 390 0 l 279 0 l 8 891 z "},"X":{"ha":721,"x_min":7,"x_max":713,"o":"m 276 457 l 18 891 l 141 891 q 161 886 155 891 q 172 874 167 882 l 368 527 q 379 547 373 538 l 559 872 q 571 886 565 881 q 587 891 578 891 l 705 891 l 446 464 l 713 0 l 591 0 q 570 7 577 0 q 557 23 562 15 l 355 387 q 347 370 352 376 l 155 23 q 142 7 149 14 q 123 0 134 0 l 7 0 l 276 457 z "},"Y":{"ha":677,"x_min":0,"x_max":677,"o":"m 400 356 l 400 0 l 277 0 l 277 355 l 0 891 l 109 891 q 134 883 124 891 q 151 863 144 876 l 303 519 q 323 479 315 498 q 339 442 332 460 q 354 479 346 460 q 374 518 363 498 l 526 863 q 541 882 531 873 q 567 891 551 891 l 677 891 l 400 356 z "},"Z":{"ha":650,"x_min":38,"x_max":617,"o":"m 617 891 l 617 846 q 604 805 617 824 l 187 100 l 608 100 l 608 0 l 38 0 l 38 48 q 41 67 38 58 q 50 84 45 76 l 467 791 l 61 791 l 61 891 l 617 891 z "},"a":{"ha":665,"x_min":57,"x_max":580,"o":"m 527 0 q 500 5 509 0 q 487 28 490 11 l 472 90 q 421 47 446 66 q 370 16 397 28 q 311 -4 342 3 q 243 -10 280 -10 q 171 0 204 -10 q 112 33 137 11 q 72 88 86 55 q 57 165 57 121 q 78 241 57 205 q 148 306 100 277 q 273 352 196 334 q 463 373 351 370 l 463 424 q 430 540 463 501 q 334 579 397 579 q 263 568 292 579 q 214 545 235 557 q 177 521 193 532 q 146 510 162 510 q 125 516 134 510 q 111 532 117 522 l 90 570 q 208 649 144 623 q 349 675 271 675 q 448 657 404 675 q 520 606 491 639 q 565 526 549 572 q 580 424 580 480 l 580 0 l 527 0 m 279 73 q 334 79 309 73 q 381 97 359 85 q 424 124 404 108 q 463 161 444 141 l 463 298 q 328 285 384 295 q 238 259 273 275 q 187 221 203 243 q 172 172 172 199 q 180 127 172 146 q 203 97 189 109 q 237 79 217 85 q 279 73 256 73 z "},"ą":{"ha":665,"x_min":57,"x_max":652,"o":"m 622 -138 q 634 -146 631 -138 l 652 -190 q 603 -214 633 -205 q 538 -224 572 -224 q 448 -198 481 -224 q 415 -129 415 -172 q 441 -57 415 -90 q 509 1 468 -23 q 487 28 492 6 l 472 90 q 421 47 446 66 q 370 16 397 28 q 311 -4 342 3 q 243 -10 280 -10 q 171 0 204 -10 q 112 33 137 11 q 72 88 86 55 q 57 165 57 121 q 78 241 57 205 q 148 306 100 277 q 273 352 196 334 q 463 373 351 370 l 463 424 q 430 540 463 501 q 334 579 397 579 q 263 568 292 579 q 214 545 235 557 q 177 521 193 532 q 146 510 162 510 q 125 516 134 510 q 111 532 117 522 l 90 570 q 208 649 144 623 q 349 675 271 675 q 448 657 404 675 q 520 606 491 639 q 565 526 549 572 q 580 424 580 480 l 580 0 l 581 0 q 554 -17 568 -7 q 530 -40 541 -27 q 512 -68 519 -53 q 505 -100 505 -83 q 521 -138 505 -124 q 563 -153 537 -153 q 587 -150 578 -153 q 604 -145 597 -148 q 614 -140 610 -142 q 622 -138 618 -138 m 279 73 q 334 79 309 73 q 381 97 359 85 q 424 124 404 108 q 463 161 444 141 l 463 298 q 328 285 384 295 q 238 259 273 275 q 187 221 203 243 q 172 172 172 199 q 180 127 172 146 q 203 97 189 109 q 237 79 217 85 q 279 73 256 73 z "},"æ":{"ha":1074,"x_min":58,"x_max":1023,"o":"m 767 673 q 867 652 821 673 q 949 592 914 631 q 1003 495 983 552 q 1023 364 1023 437 q 1017 327 1023 336 q 995 317 1012 317 l 581 317 q 639 142 587 199 q 776 84 691 84 q 852 94 821 84 q 902 115 882 103 q 935 136 922 126 q 958 145 947 145 q 973 142 967 145 q 983 134 979 139 l 1014 93 q 963 47 992 66 q 902 15 935 28 q 834 -3 869 3 q 765 -9 799 -9 q 625 27 688 -9 q 526 140 562 64 q 479 71 508 99 q 416 24 451 42 q 342 -2 381 6 q 264 -10 302 -10 q 180 1 218 -10 q 115 36 142 13 q 73 93 88 58 q 58 175 58 128 q 80 252 58 214 q 150 320 101 290 q 276 370 198 350 q 469 392 355 389 l 469 424 q 436 542 469 501 q 338 583 403 583 q 266 572 295 583 q 215 547 236 560 q 178 522 194 533 q 147 510 163 510 q 126 516 135 510 q 112 532 117 522 l 90 570 q 205 649 146 623 q 340 675 265 675 q 467 642 418 675 q 537 551 515 608 q 630 641 572 608 q 767 673 688 673 m 469 317 q 332 302 388 314 q 240 273 275 291 q 189 232 205 255 q 173 181 173 208 q 205 99 173 125 q 291 73 238 73 q 361 85 328 73 q 417 121 393 97 q 455 180 441 144 q 469 264 469 216 l 469 317 m 762 587 q 691 573 722 587 q 636 534 659 559 q 600 473 614 509 q 583 391 587 437 l 917 391 q 906 469 917 433 q 876 531 896 505 q 827 572 856 557 q 762 587 799 587 z "},"b":{"ha":730,"x_min":98,"x_max":680,"o":"m 98 0 l 98 964 l 217 964 l 217 569 q 310 645 258 617 q 430 673 362 673 q 534 651 488 673 q 612 587 580 629 q 662 485 645 545 q 680 349 680 425 q 660 202 680 268 q 604 89 640 136 q 515 16 567 42 q 397 -9 463 -9 q 289 15 332 -9 q 211 84 245 40 l 204 25 q 175 0 201 0 l 98 0 m 390 579 q 293 553 335 579 q 217 480 252 528 l 217 160 q 286 100 248 117 q 368 83 323 83 q 508 149 459 83 q 557 345 557 214 q 513 522 557 465 q 390 579 470 579 z "},"c":{"ha":587,"x_min":47,"x_max":560,"o":"m 522 544 q 511 533 516 536 q 496 529 506 529 q 475 537 486 529 q 448 555 465 545 q 409 573 432 565 q 351 581 385 581 q 272 564 307 581 q 215 514 238 547 q 181 436 193 482 q 169 332 169 390 q 181 226 169 273 q 217 148 194 180 q 273 99 240 116 q 346 83 305 83 q 410 93 385 83 q 452 115 435 103 q 480 138 469 127 q 504 148 492 148 q 526 136 517 148 l 560 93 q 512 47 538 66 q 455 15 486 28 q 392 -3 425 3 q 325 -9 359 -9 q 216 14 267 -9 q 127 80 165 37 q 68 188 90 124 q 47 332 47 251 q 66 469 47 406 q 124 577 86 532 q 217 648 161 623 q 344 673 272 673 q 463 651 412 673 q 553 587 513 628 l 522 544 z "},"ç":{"ha":587,"x_min":47,"x_max":560,"o":"m 258 -165 q 267 -167 262 -165 q 278 -172 271 -170 q 294 -177 285 -175 q 315 -180 303 -180 q 353 -169 340 -180 q 366 -141 366 -158 q 340 -106 366 -116 q 268 -90 315 -96 l 294 -7 q 196 23 241 -2 q 117 92 151 49 q 65 196 84 136 q 47 332 47 256 q 66 469 47 406 q 124 577 86 532 q 217 648 161 623 q 344 673 272 673 q 463 651 412 673 q 553 587 513 628 l 522 544 q 511 533 516 536 q 496 529 506 529 q 475 537 486 529 q 448 555 465 545 q 409 573 432 565 q 351 581 385 581 q 272 564 307 581 q 215 514 238 547 q 181 436 193 482 q 169 332 169 390 q 181 226 169 273 q 217 148 194 180 q 273 99 240 116 q 346 83 305 83 q 410 93 385 83 q 452 115 435 103 q 480 138 469 127 q 504 148 492 148 q 526 136 517 148 l 560 93 q 472 22 524 47 q 363 -7 420 -2 l 351 -49 q 434 -84 409 -61 q 459 -142 459 -107 q 449 -180 459 -163 q 421 -209 439 -197 q 378 -227 403 -220 q 322 -233 353 -233 q 274 -228 297 -233 q 231 -213 251 -222 l 243 -176 q 258 -165 247 -165 z "},"d":{"ha":730,"x_min":50,"x_max":632,"o":"m 561 0 q 540 6 548 0 q 530 24 532 12 l 518 104 q 422 22 476 53 q 298 -9 369 -9 q 196 13 242 -9 q 118 77 151 35 q 68 183 85 120 q 50 330 50 247 q 70 466 50 403 q 125 576 89 530 q 215 648 162 622 q 334 675 267 675 q 437 655 394 675 q 513 597 479 635 l 513 964 l 632 964 l 632 0 l 561 0 m 337 86 q 435 112 393 86 q 513 185 477 138 l 513 506 q 444 566 481 549 q 361 583 406 583 q 222 517 271 583 q 173 330 173 452 q 184 219 173 265 q 216 143 195 173 q 268 100 237 114 q 337 86 298 86 z "},"ď":{"ha":789,"x_min":36,"x_max":817,"o":"m 36 0 m 547 0 q 526 6 534 0 q 516 24 517 12 l 504 104 q 408 22 462 53 q 284 -9 355 -9 q 182 13 228 -9 q 104 77 136 35 q 54 183 71 120 q 36 330 36 247 q 55 466 36 403 q 111 576 75 530 q 200 648 148 622 q 319 675 253 675 q 422 655 380 675 q 498 597 465 635 l 498 964 l 618 964 l 618 0 l 547 0 m 323 86 q 421 112 379 86 q 498 185 463 138 l 498 506 q 429 566 467 549 q 347 583 392 583 q 208 517 256 583 q 159 330 159 452 q 170 219 159 265 q 202 143 181 173 q 254 100 223 114 q 323 86 284 86 m 795 966 q 813 959 810 966 q 817 944 817 951 q 815 927 817 938 q 806 897 812 916 q 790 848 800 878 q 763 775 779 819 q 747 755 758 760 q 721 751 737 751 l 680 751 l 716 966 l 795 966 z "},"đ":{"ha":766,"x_min":54,"x_max":764,"o":"m 380 823 l 543 823 l 543 964 l 662 964 l 662 823 l 764 823 l 764 747 l 662 747 l 662 0 l 591 0 q 570 6 578 0 q 560 24 562 12 l 548 105 q 447 22 504 54 q 316 -9 390 -9 q 207 11 256 -9 q 125 74 159 32 q 72 177 91 115 q 54 322 54 239 q 74 457 54 395 q 133 565 94 519 q 227 635 172 610 q 352 661 282 661 q 461 640 416 661 q 543 581 507 619 l 543 747 l 380 747 l 380 823 m 354 86 q 459 112 414 86 q 543 186 504 138 l 543 490 q 468 551 509 533 q 379 568 428 568 q 229 506 281 568 q 176 322 176 444 q 188 213 176 258 q 223 139 200 168 q 279 99 246 111 q 354 86 312 86 z "},"ð":{"ha":730,"x_min":51,"x_max":676,"o":"m 273 697 q 268 720 265 709 q 282 739 271 731 l 349 785 q 288 809 320 798 q 218 829 255 819 q 194 847 203 832 q 193 885 184 861 l 207 926 q 329 897 270 916 q 441 845 388 877 l 550 924 l 574 886 q 578 864 581 875 q 564 846 575 853 l 501 803 q 573 730 541 771 q 628 638 605 689 q 664 527 651 588 q 676 395 676 467 q 656 227 676 302 q 595 100 635 152 q 495 19 555 47 q 356 -9 435 -9 q 236 13 292 -9 q 139 75 180 34 q 74 174 98 115 q 51 305 51 232 q 71 421 51 366 q 130 517 92 476 q 222 583 168 559 q 344 607 276 607 q 467 579 410 607 q 566 496 524 551 q 515 645 553 584 q 416 748 478 706 l 296 660 l 273 697 m 359 83 q 506 154 451 83 q 564 368 560 224 q 537 422 554 396 q 496 470 520 449 q 439 503 471 490 q 367 515 408 515 q 281 498 318 515 q 220 454 245 482 q 182 387 195 425 q 170 304 170 349 q 184 210 170 252 q 225 141 199 169 q 286 98 251 113 q 359 83 320 83 z "},"e":{"ha":691,"x_min":51,"x_max":641,"o":"m 363 673 q 473 654 422 673 q 562 596 524 634 q 620 503 599 558 q 641 377 641 448 q 635 340 641 349 q 612 331 629 331 l 169 331 q 186 222 170 269 q 229 145 201 176 q 294 99 256 115 q 379 84 332 84 q 454 94 422 84 q 509 116 486 104 q 547 138 532 128 q 574 148 563 148 q 587 145 582 148 q 597 136 593 142 l 631 93 q 578 47 608 66 q 513 15 548 28 q 442 -3 479 3 q 369 -9 405 -9 q 241 14 300 -9 q 141 82 183 37 q 75 193 98 127 q 51 345 51 259 q 72 474 51 414 q 134 579 94 534 q 232 648 174 623 q 363 673 290 673 m 365 587 q 233 538 281 587 q 172 404 184 489 l 534 404 q 522 478 534 444 q 489 535 511 511 q 436 573 467 559 q 365 587 404 587 z "},"ę":{"ha":691,"x_min":51,"x_max":641,"o":"m 510 -138 q 522 -146 519 -138 l 541 -190 q 491 -214 521 -205 q 427 -224 460 -224 q 336 -198 369 -224 q 303 -129 303 -172 q 324 -64 303 -94 q 380 -9 345 -33 l 369 -9 q 241 14 300 -9 q 141 82 183 37 q 75 193 98 127 q 51 345 51 259 q 72 474 51 414 q 134 579 94 534 q 232 648 174 623 q 363 673 290 673 q 473 654 422 673 q 562 596 524 634 q 620 503 599 558 q 641 377 641 448 q 635 340 641 349 q 612 331 629 331 l 169 331 q 186 222 170 269 q 229 145 201 176 q 294 99 256 115 q 379 84 332 84 q 454 94 422 84 q 509 116 486 104 q 547 138 532 128 q 574 148 563 148 q 587 145 582 148 q 597 136 593 142 l 631 93 q 556 34 600 57 q 463 1 512 12 l 469 0 q 443 -17 456 -7 q 418 -40 429 -27 q 400 -68 407 -53 q 393 -100 393 -83 q 409 -138 393 -124 q 451 -153 425 -153 q 475 -150 466 -153 q 492 -145 485 -148 q 503 -140 498 -142 q 510 -138 507 -138 m 365 587 q 233 538 281 587 q 172 404 184 489 l 534 404 q 522 478 534 444 q 489 535 511 511 q 436 573 467 559 q 365 587 404 587 z "},"f":{"ha":424,"x_min":16,"x_max":414,"o":"m 115 0 l 115 564 l 48 572 q 25 581 34 574 q 16 602 16 589 l 16 651 l 115 651 l 115 714 q 131 815 115 771 q 174 890 146 860 q 243 936 203 920 q 335 952 284 952 q 376 949 356 952 q 414 939 396 945 l 411 880 q 395 862 410 864 q 355 861 380 861 q 303 853 326 861 q 264 828 281 846 q 239 782 248 810 q 231 711 231 753 l 231 651 l 409 651 l 409 564 l 235 564 l 235 0 l 115 0 z "},"ﬀ":{"ha":810,"x_min":16,"x_max":802,"o":"m 114 0 l 114 564 l 48 572 q 25 581 34 574 q 16 602 16 589 l 16 651 l 114 651 l 114 704 q 129 805 114 761 q 173 880 144 850 q 242 926 201 910 q 332 942 282 942 q 373 939 353 942 q 411 929 393 935 l 408 869 q 392 852 406 854 q 353 850 377 850 q 302 843 325 850 q 263 818 279 836 q 238 771 247 800 q 229 701 229 743 l 229 651 l 505 651 l 505 722 q 520 823 505 779 q 564 897 535 867 q 632 944 592 928 q 723 960 673 960 q 802 946 764 960 l 798 887 q 782 870 797 871 q 743 868 767 868 q 692 861 715 868 q 653 836 669 853 q 629 789 637 818 q 620 718 620 760 l 620 651 l 795 651 l 795 564 l 624 564 l 624 0 l 505 0 l 505 564 l 233 564 l 233 0 l 114 0 z "},"ﬁ":{"ha":735,"x_min":16,"x_max":652,"o":"m 16 0 m 119 0 l 119 564 l 48 572 q 25 581 34 574 q 16 602 16 589 l 16 651 l 119 651 l 119 737 q 168 902 119 846 q 304 958 216 958 q 333 956 320 958 q 357 951 345 955 l 357 886 q 347 873 357 876 q 321 870 338 870 q 255 839 277 870 q 234 738 234 808 l 234 651 l 628 651 l 628 0 l 509 0 l 509 564 l 238 564 l 238 0 l 119 0 m 652 876 q 646 843 652 859 q 627 817 639 828 q 600 799 615 806 q 568 792 585 792 q 536 799 551 792 q 510 817 521 806 q 492 843 498 828 q 485 876 485 859 q 492 908 485 893 q 510 935 498 924 q 536 954 521 947 q 568 960 551 960 q 600 954 585 960 q 627 935 615 947 q 646 908 639 924 q 652 876 652 893 z "},"ﬃ":{"ha":1122,"x_min":16,"x_max":1042,"o":"m 16 0 m 116 0 l 116 564 l 48 572 q 25 581 34 574 q 16 602 16 589 l 16 651 l 116 651 l 116 704 q 132 805 116 761 q 176 880 147 850 q 246 926 205 910 q 338 942 288 942 q 380 939 359 942 q 418 929 400 935 l 415 869 q 399 852 414 854 q 358 850 384 850 q 306 843 330 850 q 266 818 283 836 q 240 771 250 800 q 231 701 231 743 l 231 651 l 514 651 l 514 737 q 563 902 514 846 q 698 958 611 958 q 726 956 713 958 q 749 951 738 955 l 749 886 q 740 873 749 876 q 714 870 730 870 q 650 839 671 870 q 630 738 630 808 l 630 651 l 1017 651 l 1017 0 l 898 0 l 898 564 l 633 564 l 633 0 l 514 0 l 514 564 l 235 564 l 235 0 l 116 0 m 1042 876 q 1036 843 1042 859 q 1017 817 1029 828 q 990 799 1005 806 q 958 792 975 792 q 926 799 941 792 q 900 817 911 806 q 882 843 888 828 q 875 876 875 859 q 882 908 875 893 q 900 935 888 924 q 926 954 911 947 q 958 960 941 960 q 990 954 975 960 q 1017 935 1005 947 q 1036 908 1029 924 q 1042 876 1042 893 z "},"ﬂ":{"ha":735,"x_min":16,"x_max":629,"o":"m 113 0 l 113 564 l 47 572 q 24 581 33 574 q 16 602 16 589 l 16 651 l 113 651 l 113 686 q 129 790 113 741 q 177 876 144 839 q 257 935 209 913 q 370 956 305 956 q 463 952 418 956 q 549 947 507 948 l 629 947 l 629 0 l 511 0 l 511 864 q 445 867 478 865 q 388 869 412 869 q 270 821 311 869 q 228 686 228 772 l 228 651 l 387 651 l 387 564 l 232 564 l 232 0 l 113 0 z "},"ﬄ":{"ha":1122,"x_min":16,"x_max":1017,"o":"m 113 0 l 113 564 l 47 572 q 25 581 34 574 q 16 602 16 589 l 16 651 l 113 651 l 113 704 q 129 805 113 761 q 172 880 144 850 q 240 926 200 910 q 331 942 281 942 q 408 929 371 942 l 406 869 q 401 858 405 861 q 390 852 397 854 q 373 850 382 850 q 351 850 363 850 q 300 843 323 850 q 262 818 278 836 q 237 771 246 800 q 229 701 229 743 l 229 651 l 501 651 l 501 686 q 517 790 501 741 q 564 876 532 839 q 644 935 596 913 q 757 956 692 956 q 849 952 806 956 q 936 947 893 948 l 1017 947 l 1017 0 l 898 0 l 898 864 q 832 867 865 865 q 775 869 799 869 q 658 821 699 869 q 616 686 616 772 l 616 651 l 791 651 l 791 564 l 621 564 l 621 0 l 501 0 l 501 564 l 233 564 l 233 0 l 113 0 z "},"g":{"ha":654,"x_min":43,"x_max":629,"o":"m 313 674 q 391 665 355 674 q 456 637 427 655 l 629 637 l 629 593 q 602 566 629 570 l 532 555 q 553 460 553 512 q 535 372 553 412 q 485 305 517 333 q 409 262 453 277 q 313 247 366 247 q 233 257 270 247 q 204 230 214 244 q 195 201 195 215 q 213 165 195 177 q 261 149 231 154 q 329 142 291 143 q 407 137 367 140 q 484 127 446 134 q 552 104 522 121 q 600 59 582 87 q 618 -16 618 30 q 598 -99 618 -59 q 539 -170 578 -139 q 446 -220 501 -201 q 321 -239 391 -239 q 199 -224 251 -239 q 112 -186 146 -210 q 60 -130 77 -161 q 43 -63 43 -98 q 72 20 43 -14 q 152 73 101 54 q 108 109 124 86 q 92 168 92 131 q 112 229 92 197 q 173 281 132 260 q 99 355 126 309 q 73 460 73 400 q 91 549 73 509 q 140 616 109 588 q 216 659 172 644 q 313 674 260 674 m 509 -36 q 496 3 509 -12 q 462 26 484 18 q 412 38 440 35 q 351 44 383 42 q 287 47 319 46 q 223 54 254 49 q 169 11 190 36 q 148 -48 148 -14 q 158 -90 148 -71 q 190 -122 168 -109 q 244 -144 211 -136 q 323 -153 277 -153 q 402 -144 368 -153 q 460 -120 437 -135 q 496 -83 484 -104 q 509 -36 509 -62 m 313 326 q 413 362 379 326 q 446 458 446 399 q 413 554 446 518 q 313 589 379 589 q 215 554 249 589 q 182 458 182 518 q 190 405 182 429 q 215 363 199 380 q 257 335 232 345 q 313 326 281 326 z "},"h":{"ha":730,"x_min":97,"x_max":645,"o":"m 97 0 l 97 964 l 216 964 l 216 576 q 308 647 258 621 q 425 673 359 673 q 520 655 479 673 q 589 605 562 637 q 631 525 617 572 q 645 422 645 479 l 645 0 l 526 0 l 526 422 q 492 538 526 496 q 391 579 459 579 q 296 555 340 579 q 216 488 253 530 l 216 0 l 97 0 z "},"ĥ":{"ha":730,"x_min":-46,"x_max":645,"o":"m 0 0 m 97 0 l 97 964 l 216 964 l 216 576 q 308 647 258 621 q 425 673 359 673 q 520 655 479 673 q 589 605 562 637 q 631 525 617 572 q 645 422 645 479 l 645 0 l 526 0 l 526 422 q 492 538 526 496 q 391 579 459 579 q 296 555 340 579 q 216 488 253 530 l 216 0 l 97 0 m 373 1012 l 286 1012 q 267 1015 278 1012 q 245 1031 256 1017 l 170 1122 q 161 1133 165 1127 l 153 1122 l 79 1031 q 56 1015 67 1017 q 37 1012 45 1012 l -46 1012 l 110 1190 l 217 1190 l 373 1012 z "},"ħ":{"ha":740,"x_min":3,"x_max":654,"o":"m 3 831 l 102 831 l 102 964 l 221 964 l 221 831 l 412 831 l 412 756 l 221 756 l 221 560 q 314 632 262 604 q 433 659 366 659 q 528 641 487 659 q 598 590 570 623 q 640 511 626 557 q 654 408 654 465 l 654 0 l 535 0 l 535 408 q 501 524 535 482 q 398 565 467 565 q 303 541 347 565 q 221 473 258 516 l 221 0 l 102 0 l 102 756 l 3 756 l 3 831 z "},"i":{"ha":319,"x_min":75,"x_max":242,"o":"m 75 0 m 219 663 l 219 0 l 100 0 l 100 663 l 219 663 m 242 871 q 235 839 242 854 q 217 812 229 823 q 190 794 205 801 q 157 787 174 787 q 125 794 140 787 q 99 812 111 801 q 81 839 88 823 q 75 871 75 854 q 81 904 75 888 q 99 930 88 919 q 125 949 111 942 q 157 956 140 956 q 190 949 174 956 q 217 930 205 942 q 235 904 229 919 q 242 871 242 888 z "},"į":{"ha":319,"x_min":37,"x_max":274,"o":"m 37 0 m 243 -138 q 256 -146 252 -138 l 274 -190 q 224 -214 254 -205 q 160 -224 194 -224 q 70 -198 102 -224 q 37 -129 37 -172 q 62 -58 37 -91 q 127 0 87 -24 l 100 0 l 100 663 l 219 663 l 219 0 l 202 0 q 176 -17 189 -7 q 152 -40 163 -27 q 133 -68 140 -53 q 126 -100 126 -83 q 142 -138 126 -124 q 184 -153 159 -153 q 209 -150 199 -153 q 225 -145 218 -148 q 236 -140 232 -142 q 243 -138 240 -138 m 242 871 q 235 839 242 854 q 217 812 229 823 q 190 794 205 801 q 157 787 174 787 q 125 794 140 787 q 99 812 111 801 q 81 839 88 823 q 75 871 75 854 q 81 904 75 888 q 99 930 88 919 q 125 949 111 942 q 157 956 140 956 q 190 949 174 956 q 217 930 205 942 q 235 904 229 919 q 242 871 242 888 z "},"ı":{"ha":319,"x_min":100,"x_max":219,"o":"m 219 663 l 219 0 l 100 0 l 100 663 l 219 663 z "},"j":{"ha":332,"x_min":-37,"x_max":255,"o":"m 0 0 m 231 663 l 231 -48 q 220 -123 231 -88 q 185 -183 209 -157 q 126 -223 162 -208 q 39 -238 90 -238 q -1 -235 17 -238 q -37 -225 -19 -232 l -31 -161 q -27 -152 -30 -155 q -20 -149 -25 -149 q -6 -148 -15 -148 q 15 -149 2 -149 q 89 -125 66 -149 q 111 -48 111 -101 l 111 663 l 231 663 m 255 871 q 248 839 255 854 q 230 812 241 823 q 202 794 218 801 q 170 787 187 787 q 138 794 153 787 q 112 812 123 801 q 94 839 101 823 q 87 871 87 854 q 94 904 87 888 q 112 930 101 919 q 138 949 123 942 q 170 956 153 956 q 202 949 187 956 q 230 930 218 942 q 248 904 241 919 q 255 871 255 888 z "},"ȷ":{"ha":332,"x_min":-37,"x_max":231,"o":"m 231 663 l 231 -48 q 220 -123 231 -88 q 185 -183 209 -157 q 126 -223 162 -208 q 39 -238 90 -238 q -1 -235 17 -238 q -37 -225 -19 -232 l -31 -161 q -27 -152 -30 -155 q -20 -149 -25 -149 q -6 -148 -15 -148 q 15 -149 2 -149 q 89 -125 66 -149 q 111 -48 111 -101 l 111 663 l 231 663 z "},"k":{"ha":631,"x_min":87,"x_max":614,"o":"m 206 964 l 206 397 l 233 397 q 254 401 246 397 q 271 416 262 404 l 447 640 q 467 657 456 651 q 492 663 477 663 l 601 663 l 393 402 q 374 384 383 392 q 353 368 364 375 q 374 350 365 361 q 393 328 383 340 l 614 0 l 507 0 q 482 5 493 0 q 463 22 471 10 l 281 294 q 263 312 272 308 q 237 317 255 317 l 206 317 l 206 0 l 87 0 l 87 964 l 206 964 z "},"ĸ":{"ha":631,"x_min":85,"x_max":614,"o":"m 204 663 l 204 397 l 231 397 q 252 401 244 397 q 269 416 260 404 l 447 640 q 466 657 456 651 q 492 663 476 663 l 600 663 l 391 402 q 372 384 382 392 q 352 368 363 375 q 373 350 363 361 q 391 328 382 340 l 614 0 l 507 0 q 482 5 493 0 q 463 22 471 10 l 280 294 q 262 312 271 308 q 235 317 253 317 l 204 317 l 204 0 l 85 0 l 85 663 l 204 663 z "},"ł":{"ha":344,"x_min":31,"x_max":330,"o":"m 243 964 l 243 616 l 330 661 l 330 593 q 314 564 330 571 l 243 526 l 243 0 l 124 0 l 124 471 l 31 423 l 31 493 q 46 519 31 511 l 124 562 l 124 964 l 243 964 z "},"ľ":{"ha":366,"x_min":81,"x_max":397,"o":"m 81 0 m 201 964 l 201 0 l 81 0 l 81 964 l 201 964 m 376 966 q 394 959 390 966 q 397 944 397 951 q 395 927 397 938 q 387 897 393 916 q 370 848 380 878 q 343 775 359 819 q 328 755 338 760 q 301 751 317 751 l 260 751 l 296 966 l 376 966 z "},"m":{"ha":1109,"x_min":100,"x_max":1021,"o":"m 100 0 l 100 663 l 170 663 q 192 657 184 663 q 201 639 199 652 l 211 571 q 251 612 230 593 q 295 645 271 631 q 346 666 319 659 q 404 673 373 673 q 515 636 472 673 q 576 536 558 599 q 614 598 591 572 q 666 641 637 624 q 727 666 694 658 q 793 673 760 673 q 961 608 902 673 q 1021 422 1021 543 l 1021 0 l 901 0 l 901 422 q 866 539 901 500 q 765 579 831 579 q 709 569 735 579 q 662 539 682 559 q 630 490 642 519 q 618 422 618 461 l 618 0 l 499 0 l 499 422 q 466 541 499 502 q 370 579 433 579 q 288 556 326 579 q 219 494 250 534 l 219 0 l 100 0 z "},"n":{"ha":730,"x_min":95,"x_max":645,"o":"m 95 0 l 95 663 l 166 663 q 187 657 179 663 q 197 639 195 652 l 207 568 q 302 645 250 616 q 425 673 355 673 q 520 655 479 673 q 589 605 561 637 q 631 525 616 572 q 645 422 645 479 l 645 0 l 526 0 l 526 422 q 492 538 526 496 q 390 579 458 579 q 295 555 339 579 q 214 488 251 531 l 214 0 l 95 0 z "},"ŋ":{"ha":730,"x_min":95,"x_max":645,"o":"m 95 0 l 95 663 l 166 663 q 187 657 179 663 q 197 639 195 652 l 207 568 q 302 645 250 616 q 425 673 355 673 q 520 655 479 673 q 589 605 561 637 q 631 525 616 572 q 645 422 645 479 l 645 1 q 632 -97 645 -53 q 592 -173 618 -141 q 524 -221 565 -204 q 426 -239 482 -239 q 369 -233 395 -239 q 315 -215 344 -227 l 328 -163 q 339 -144 332 -149 q 355 -140 347 -140 q 377 -144 363 -140 q 415 -149 391 -149 q 497 -116 469 -149 q 526 -12 526 -82 l 526 422 q 492 538 526 496 q 390 579 458 579 q 295 555 339 579 q 214 488 251 531 l 214 0 l 95 0 z "},"o":{"ha":732,"x_min":51,"x_max":682,"o":"m 367 673 q 498 649 439 673 q 597 581 556 625 q 660 473 637 536 q 682 332 682 410 q 660 191 682 254 q 597 83 637 127 q 498 15 556 39 q 367 -9 439 -9 q 236 15 294 -9 q 136 83 177 39 q 73 191 95 127 q 51 332 51 254 q 73 473 51 410 q 136 581 95 536 q 236 649 177 625 q 367 673 294 673 m 367 83 q 451 100 415 83 q 511 149 487 117 q 547 227 535 180 q 559 332 559 273 q 547 437 559 391 q 511 515 535 483 q 451 564 487 547 q 367 581 415 581 q 282 564 318 581 q 221 515 245 547 q 185 437 197 483 q 174 332 174 391 q 185 227 174 273 q 221 149 197 180 q 282 100 245 117 q 367 83 318 83 z "},"ø":{"ha":735,"x_min":45,"x_max":703,"o":"m 600 579 q 663 472 641 534 q 684 332 684 410 q 662 191 684 254 q 599 83 640 127 q 499 15 558 39 q 368 -9 441 -9 q 276 1 319 -9 q 198 33 234 12 l 163 -14 q 129 -42 149 -34 q 90 -50 109 -50 l 45 -50 l 140 79 q 74 188 97 124 q 51 332 51 252 q 73 473 51 410 q 137 581 96 536 q 236 649 178 625 q 368 673 295 673 q 463 662 419 673 q 543 627 507 650 l 587 686 q 611 711 600 704 q 644 719 623 719 l 703 719 l 600 579 m 166 332 q 203 165 166 228 l 486 549 q 368 585 439 585 q 281 567 319 585 q 218 517 243 549 q 179 437 193 484 q 166 332 166 391 m 368 80 q 454 97 417 80 q 517 147 492 115 q 555 226 543 180 q 568 332 568 273 q 535 490 568 428 l 255 111 q 368 80 300 80 z "},"œ":{"ha":1180,"x_min":54,"x_max":1127,"o":"m 866 673 q 969 652 922 673 q 1052 592 1017 631 q 1107 495 1087 552 q 1127 364 1127 437 q 1122 327 1127 336 q 1099 317 1116 317 l 673 317 q 691 215 675 258 q 733 142 707 171 q 795 98 760 113 q 876 84 831 84 q 947 94 917 84 q 999 116 977 104 q 1037 138 1021 128 q 1063 148 1052 148 q 1086 136 1076 148 l 1120 93 q 1068 47 1098 66 q 1005 15 1039 28 q 936 -3 972 3 q 865 -9 900 -9 q 718 29 783 -9 q 616 146 653 67 q 514 31 580 72 q 356 -9 449 -9 q 232 15 288 -9 q 137 83 176 39 q 75 191 97 127 q 54 332 54 254 q 75 473 54 410 q 137 581 97 536 q 234 649 177 625 q 359 673 290 673 q 514 633 450 673 q 614 521 578 593 q 656 584 631 555 q 712 632 680 612 q 782 663 743 652 q 866 673 821 673 m 366 83 q 449 100 414 83 q 508 149 485 117 q 544 227 532 180 q 555 332 555 273 q 544 437 555 391 q 508 515 532 483 q 449 564 485 547 q 366 581 414 581 q 282 564 318 581 q 223 515 247 547 q 188 437 200 483 q 176 332 176 391 q 223 149 176 214 q 366 83 271 83 m 862 587 q 787 573 820 587 q 731 534 755 559 q 693 473 707 509 q 674 391 679 437 l 1021 391 q 1010 469 1021 433 q 979 531 1000 505 q 929 572 959 557 q 862 587 900 587 z "},"p":{"ha":730,"x_min":96,"x_max":680,"o":"m 96 -224 l 96 663 l 167 663 q 188 657 180 663 q 197 639 196 652 l 209 562 q 305 644 251 612 q 430 675 359 675 q 533 653 487 675 q 612 588 579 631 q 662 482 644 545 q 680 336 680 419 q 660 200 680 263 q 603 90 640 136 q 513 17 566 43 q 394 -9 460 -9 q 291 11 334 -9 q 215 68 248 31 l 215 -224 l 96 -224 m 391 579 q 293 553 335 579 q 215 480 250 528 l 215 160 q 284 100 246 117 q 368 83 321 83 q 508 149 458 83 q 557 336 557 214 q 546 447 557 401 q 513 523 534 493 q 461 566 492 552 q 391 579 430 579 z "},"þ":{"ha":730,"x_min":98,"x_max":680,"o":"m 98 -224 l 98 964 l 217 964 l 217 569 q 311 645 258 617 q 431 673 363 673 q 533 652 488 673 q 612 588 579 630 q 662 482 644 545 q 680 336 680 419 q 660 200 680 263 q 604 90 640 136 q 514 17 567 43 q 395 -9 462 -9 q 292 13 334 -9 q 217 77 250 36 l 217 -224 l 98 -224 m 392 579 q 294 553 336 579 q 217 480 252 528 l 217 160 q 286 100 248 117 q 369 83 323 83 q 508 149 459 83 q 557 336 557 214 q 546 447 557 401 q 513 523 534 493 q 461 566 492 552 q 392 579 431 579 z "},"q":{"ha":730,"x_min":50,"x_max":634,"o":"m 634 663 l 634 -224 l 515 -224 l 515 97 q 420 19 473 48 q 300 -9 368 -9 q 197 13 243 -9 q 118 77 151 35 q 68 183 85 120 q 50 330 50 247 q 70 466 50 403 q 126 576 90 530 q 216 648 163 622 q 335 675 269 675 q 444 652 399 675 q 523 588 488 629 l 532 639 q 563 663 536 663 l 634 663 m 338 86 q 437 112 395 86 q 515 185 479 138 l 515 506 q 446 565 484 547 q 362 583 408 583 q 222 517 271 583 q 173 330 173 452 q 184 219 173 265 q 217 143 195 173 q 269 100 238 114 q 338 86 300 86 z "},"r":{"ha":484,"x_min":89,"x_max":457,"o":"m 89 0 l 89 663 l 157 663 q 184 656 176 663 q 193 631 192 648 l 201 533 q 277 637 232 599 q 385 675 321 675 q 424 670 406 675 q 457 656 442 666 l 448 568 q 429 551 446 551 q 402 554 419 551 q 363 558 385 558 q 310 549 333 558 q 268 522 286 540 q 235 478 249 504 q 208 419 220 452 l 208 0 l 89 0 z "},"s":{"ha":543,"x_min":47,"x_max":496,"o":"m 460 553 q 436 538 452 538 q 414 546 426 538 q 386 562 402 553 q 346 578 369 570 q 292 585 323 585 q 245 578 266 585 q 209 557 224 570 q 186 527 194 545 q 178 490 178 510 q 191 448 178 465 q 227 418 205 431 q 278 396 250 406 q 337 376 307 387 q 396 353 367 366 q 447 319 425 339 q 483 272 469 300 q 496 203 496 243 q 481 118 496 157 q 435 51 465 79 q 360 6 405 22 q 258 -10 316 -10 q 139 12 193 -10 q 47 71 85 35 l 75 115 q 88 129 81 124 q 107 134 96 134 q 132 124 119 134 q 161 104 144 115 q 203 84 178 93 q 264 75 227 75 q 318 83 295 75 q 355 107 340 92 q 378 141 370 121 q 385 182 385 161 q 371 228 385 210 q 335 258 357 245 q 284 280 313 271 q 225 300 255 290 q 166 324 195 311 q 115 358 137 337 q 78 408 92 378 q 64 481 64 438 q 79 554 64 519 q 123 616 94 589 q 193 658 151 642 q 290 673 235 673 q 401 653 351 673 q 487 596 452 633 l 460 553 z "},"ş":{"ha":543,"x_min":47,"x_max":496,"o":"m 180 -165 q 189 -167 184 -165 q 201 -172 194 -170 q 219 -177 209 -175 q 243 -180 229 -180 q 284 -169 270 -180 q 298 -141 298 -158 q 270 -106 298 -116 q 193 -90 243 -96 l 220 -8 q 123 19 167 -2 q 47 71 79 40 l 75 115 q 88 129 81 124 q 107 134 96 134 q 132 124 119 134 q 161 104 144 115 q 203 84 178 93 q 264 75 227 75 q 318 83 295 75 q 355 107 340 92 q 378 141 370 121 q 385 182 385 161 q 371 228 385 210 q 335 258 357 245 q 284 280 313 271 q 225 300 255 290 q 166 324 195 311 q 115 358 137 337 q 78 408 92 378 q 64 481 64 438 q 79 554 64 519 q 123 616 94 589 q 193 658 151 642 q 290 673 235 673 q 401 653 351 673 q 487 596 452 633 l 460 553 q 436 538 452 538 q 414 546 426 538 q 386 562 402 553 q 346 578 369 570 q 292 585 323 585 q 245 578 266 585 q 209 557 224 570 q 186 527 194 545 q 178 490 178 510 q 191 448 178 465 q 227 418 205 431 q 278 396 250 406 q 337 376 307 387 q 396 353 367 366 q 447 319 425 339 q 483 272 469 300 q 496 203 496 243 q 483 124 496 161 q 443 59 469 87 q 377 13 416 31 q 288 -9 338 -5 l 277 -49 q 365 -84 338 -61 q 391 -142 391 -107 q 381 -180 391 -163 q 352 -209 370 -197 q 307 -227 333 -220 q 249 -233 280 -233 q 198 -228 222 -233 q 153 -213 174 -222 l 165 -176 q 180 -165 169 -165 z "},"ß":{"ha":732,"x_min":89,"x_max":687,"o":"m 393 952 q 506 932 458 952 q 584 882 553 913 q 629 815 614 852 q 644 746 644 779 q 631 679 644 707 q 598 629 618 650 q 556 591 579 608 q 514 559 534 574 q 482 527 495 544 q 469 490 469 511 q 486 447 469 464 q 526 415 502 430 q 578 385 550 401 q 630 347 606 370 q 671 291 654 324 q 687 206 687 257 q 669 115 687 155 q 620 47 651 75 q 547 4 589 19 q 456 -10 505 -10 q 347 12 397 -10 q 261 70 298 35 l 289 115 q 301 129 294 124 q 320 134 309 134 q 345 124 332 134 q 373 104 357 115 q 412 84 390 93 q 466 75 434 75 q 511 83 491 75 q 546 107 532 92 q 568 143 560 122 q 575 187 575 163 q 558 247 575 224 q 515 286 541 269 q 460 317 490 302 q 404 350 430 331 q 361 396 378 368 q 345 467 345 423 q 358 527 345 502 q 392 573 372 553 q 436 612 412 594 q 481 649 460 629 q 515 691 501 668 q 528 746 528 714 q 521 788 528 767 q 496 826 513 809 q 453 854 479 843 q 389 865 427 865 q 314 851 347 865 q 257 809 281 837 q 221 741 234 782 q 208 645 208 700 l 208 0 l 89 0 l 89 648 q 111 772 89 716 q 172 868 132 829 q 268 930 212 908 q 393 952 324 952 z "},"ſ":{"ha":337,"x_min":16,"x_max":408,"o":"m 112 0 l 112 564 l 47 572 q 24 581 33 574 q 16 602 16 589 l 16 651 l 112 651 l 112 714 q 127 815 112 771 q 171 890 142 860 q 240 936 199 920 q 330 952 280 952 q 408 939 371 952 l 404 878 q 399 868 403 871 q 388 865 395 865 q 371 864 380 864 q 349 865 361 865 q 300 857 321 865 q 263 830 278 848 q 239 782 248 812 q 231 711 231 753 l 231 0 l 112 0 z "},"t":{"ha":465,"x_min":23,"x_max":441,"o":"m 283 -10 q 165 34 206 -10 q 123 160 123 78 l 123 564 l 47 564 q 30 571 37 564 q 23 591 23 578 l 23 638 l 127 652 l 155 856 q 164 872 157 866 q 182 878 171 878 l 243 878 l 243 651 l 425 651 l 425 564 l 243 564 l 243 168 q 261 107 243 127 q 310 87 280 87 q 340 92 328 87 q 361 102 353 96 q 377 113 370 109 q 389 118 383 118 q 398 115 395 118 q 406 106 402 113 l 441 50 q 369 5 410 21 q 283 -10 328 -10 z "},"ť":{"ha":480,"x_min":23,"x_max":488,"o":"m 23 0 m 283 -10 q 165 34 206 -10 q 123 160 123 78 l 123 564 l 47 564 q 30 571 37 564 q 23 591 23 578 l 23 638 l 127 652 l 155 856 q 164 872 157 866 q 182 878 171 878 l 243 878 l 243 651 l 425 651 l 425 564 l 243 564 l 243 168 q 261 107 243 127 q 310 87 280 87 q 340 92 328 87 q 361 102 353 96 q 377 113 370 109 q 389 118 383 118 q 398 115 395 118 q 406 106 402 113 l 441 50 q 369 5 410 21 q 283 -10 328 -10 m 466 966 q 484 959 480 966 q 488 944 488 951 q 485 927 488 938 q 477 897 483 916 q 460 848 471 878 q 433 775 450 819 q 418 755 428 760 q 391 751 408 751 l 350 751 l 387 966 l 466 966 z "},"ŧ":{"ha":475,"x_min":23,"x_max":441,"o":"m 28 453 l 123 453 l 123 564 l 47 564 q 30 571 37 564 q 23 591 23 578 l 23 638 l 127 652 l 155 856 q 164 872 157 866 q 182 878 171 878 l 243 878 l 243 651 l 425 651 l 425 564 l 243 564 l 243 453 l 429 453 l 429 378 l 243 378 l 243 168 q 261 107 243 127 q 310 87 280 87 q 340 92 328 87 q 361 102 353 96 q 377 113 370 109 q 389 118 383 118 q 398 115 395 118 q 406 106 402 113 l 441 50 q 369 5 410 21 q 283 -10 328 -10 q 165 34 206 -10 q 123 160 123 78 l 123 378 l 28 378 l 28 453 z "},"u":{"ha":730,"x_min":85,"x_max":635,"o":"m 204 663 l 204 241 q 238 125 204 166 q 340 84 271 84 q 434 108 391 84 q 515 174 478 132 l 515 663 l 635 663 l 635 0 l 563 0 q 543 6 551 0 q 533 24 534 12 l 522 95 q 427 19 479 47 q 305 -10 374 -10 q 210 8 251 -10 q 141 59 169 26 q 99 138 113 92 q 85 241 85 184 l 85 663 l 204 663 z "},"ų":{"ha":730,"x_min":85,"x_max":715,"o":"m 204 663 l 204 241 q 238 125 204 166 q 340 84 271 84 q 434 108 391 84 q 515 174 478 132 l 515 663 l 635 663 l 635 1 l 643 0 q 617 -17 630 -7 q 592 -40 604 -27 q 574 -68 581 -53 q 567 -100 567 -83 q 583 -138 567 -124 q 625 -153 600 -153 q 650 -150 640 -153 q 666 -145 659 -148 q 677 -140 673 -142 q 684 -138 681 -138 q 696 -146 693 -138 l 715 -190 q 665 -214 695 -205 q 601 -224 635 -224 q 510 -198 543 -224 q 477 -129 477 -172 q 503 -58 477 -91 q 568 0 528 -24 l 563 0 q 543 6 551 0 q 533 24 534 12 l 522 95 q 427 19 479 47 q 305 -10 374 -10 q 210 8 251 -10 q 141 59 169 26 q 99 138 113 92 q 85 241 85 184 l 85 663 l 204 663 z "},"v":{"ha":627,"x_min":13,"x_max":614,"o":"m 368 0 l 260 0 l 13 663 l 111 663 q 134 656 125 663 q 147 639 144 648 l 289 214 q 304 168 298 191 q 315 123 310 146 q 327 168 320 145 q 342 214 333 191 l 486 639 q 499 656 490 649 q 520 663 509 663 l 614 663 l 368 0 z "},"w":{"ha":993,"x_min":14,"x_max":979,"o":"m 14 663 l 109 663 q 132 656 122 663 q 144 638 141 648 l 262 215 q 274 170 269 192 q 282 126 279 148 q 294 170 288 148 q 309 216 301 192 l 440 642 q 452 658 444 652 q 473 665 461 665 l 525 665 q 547 658 538 665 q 559 642 555 652 l 688 216 q 701 170 695 193 q 713 126 707 148 q 734 216 720 170 l 855 639 q 867 656 859 650 q 889 663 876 663 l 979 663 l 770 0 l 675 0 q 652 22 659 0 l 513 469 q 504 500 507 485 q 496 531 500 515 q 490 500 493 515 q 481 469 486 484 l 340 22 q 313 0 332 0 l 223 0 l 14 663 z "},"x":{"ha":602,"x_min":16,"x_max":586,"o":"m 222 340 l 24 663 l 138 663 q 158 659 152 663 q 170 646 165 654 l 309 405 q 314 419 311 412 q 323 434 317 427 l 439 643 q 452 658 445 652 q 468 663 458 663 l 577 663 l 379 347 l 586 0 l 471 0 q 449 8 458 0 q 435 24 441 16 l 295 275 q 283 249 290 260 l 156 24 q 143 7 151 15 q 122 0 135 0 l 16 0 l 222 340 z "},"y":{"ha":629,"x_min":7,"x_max":619,"o":"m 277 -195 q 263 -216 272 -209 q 236 -224 254 -224 l 147 -224 l 261 39 l 7 663 l 111 663 q 134 656 126 663 q 146 639 142 648 l 301 224 q 312 195 307 210 q 320 167 317 181 q 329 196 324 182 q 340 225 334 211 l 490 639 q 503 656 494 649 q 524 663 513 663 l 619 663 l 277 -195 z "},"z":{"ha":549,"x_min":41,"x_max":508,"o":"m 508 613 q 504 588 508 600 q 492 567 499 576 l 178 93 l 498 93 l 498 0 l 41 0 l 41 50 q 45 70 41 58 q 57 92 50 81 l 372 570 l 59 570 l 59 663 l 508 663 l 508 613 z "},"ª":{"ha":559,"x_min":115,"x_max":446,"o":"m 406 550 q 388 554 394 550 q 376 569 382 557 l 368 601 q 338 576 353 587 q 307 558 323 566 q 272 548 290 551 q 231 544 254 544 q 185 551 207 544 q 148 571 164 557 q 123 604 132 584 q 115 650 115 623 q 127 694 115 672 q 168 733 139 716 q 244 762 197 751 q 361 775 292 774 l 361 799 q 343 860 361 840 q 288 879 324 879 q 247 873 263 879 q 218 861 230 867 q 196 849 205 854 q 176 843 186 843 q 160 848 167 843 q 151 859 154 853 l 135 886 q 210 934 170 919 q 298 949 250 949 q 360 938 333 949 q 407 907 388 927 q 436 860 426 887 q 446 799 446 832 l 446 550 l 406 550 m 258 605 q 314 617 290 605 q 361 652 338 629 l 361 720 q 285 713 316 719 q 234 700 254 708 q 207 680 215 691 q 198 654 198 668 q 215 616 198 627 q 258 605 232 605 z "},"º":{"ha":587,"x_min":90,"x_max":496,"o":"m 294 949 q 377 935 340 949 q 441 894 414 920 q 482 830 467 868 q 496 746 496 793 q 482 661 496 699 q 441 597 467 623 q 377 556 414 570 q 294 542 340 542 q 210 556 248 542 q 146 597 172 570 q 105 661 119 623 q 90 746 90 699 q 105 830 90 793 q 146 894 119 868 q 210 935 172 920 q 294 949 248 949 m 294 612 q 376 646 349 612 q 403 745 403 680 q 376 844 403 810 q 294 878 349 878 q 211 844 237 878 q 184 745 184 810 q 211 646 184 680 q 294 612 237 612 z "},"ⁿ":{"ha":503,"x_min":109,"x_max":405,"o":"m 109 601 l 109 940 l 153 940 q 167 936 162 940 q 174 922 172 932 l 180 892 q 228 930 202 916 q 291 945 254 945 q 340 936 319 945 q 376 909 361 926 q 397 868 390 892 q 405 817 405 845 l 405 601 l 321 601 l 321 817 q 307 863 321 846 q 265 879 294 879 q 227 869 245 879 q 193 844 208 860 l 193 601 l 109 601 z "},"`":{"ha":404,"x_min":92,"x_max":354,"o":"m 205 949 q 237 942 227 949 q 257 920 248 935 l 354 762 l 286 762 q 264 766 273 762 q 245 780 255 770 l 92 949 l 205 949 z "},"´":{"ha":406,"x_min":55,"x_max":321,"o":"m 321 949 l 168 780 q 149 766 158 770 q 126 762 140 762 l 55 762 l 152 920 q 172 942 161 935 q 204 949 182 949 l 321 949 z "},"ˆ":{"ha":549,"x_min":72,"x_max":477,"o":"m 477 765 l 397 765 q 382 768 389 765 q 367 778 374 770 l 287 863 q 281 869 283 865 q 276 876 279 872 l 265 863 l 184 778 q 155 765 172 765 l 72 765 l 219 938 l 329 938 l 477 765 z "},"ˇ":{"ha":549,"x_min":72,"x_max":477,"o":"m 72 938 l 155 938 q 181 928 172 938 l 264 840 q 275 827 270 833 l 287 840 l 370 928 q 382 935 374 932 q 397 938 389 938 l 477 938 l 329 765 l 219 765 l 72 938 z "},"̕":{"ha":347,"x_min":109,"x_max":247,"o":"m 225 966 q 243 959 239 966 q 247 944 247 951 q 244 927 247 938 q 236 897 242 916 q 219 848 230 878 q 193 775 209 819 q 177 755 187 760 q 151 751 167 751 l 109 751 l 146 966 l 225 966 z "},"˜":{"ha":625,"x_min":123,"x_max":507,"o":"m 385 868 q 427 882 414 868 q 448 924 440 895 l 507 924 q 498 867 507 893 q 474 823 490 842 q 437 794 459 804 q 389 784 416 784 q 347 793 367 784 q 309 813 327 802 q 276 834 292 825 q 245 844 260 844 q 201 828 216 844 q 180 787 185 812 l 123 787 q 132 844 123 818 q 156 889 140 870 q 193 918 172 907 q 241 928 215 928 q 284 918 264 928 q 321 898 304 909 q 355 877 339 886 q 385 868 370 868 z "},"¨":{"ha":545,"x_min":71,"x_max":473,"o":"m 71 769 m 222 844 q 216 814 222 828 q 199 791 210 801 q 175 775 189 781 q 146 769 161 769 q 117 775 130 769 q 93 791 103 781 q 77 814 83 801 q 71 844 71 828 q 77 873 71 859 q 93 897 83 886 q 117 913 103 907 q 146 919 130 919 q 175 913 161 919 q 199 897 189 907 q 216 873 210 886 q 222 844 222 859 m 473 844 q 467 814 473 828 q 450 791 460 801 q 426 775 439 781 q 397 769 412 769 q 368 775 381 769 q 344 791 354 781 q 328 814 334 801 q 322 844 322 828 q 328 873 322 859 q 344 897 334 886 q 368 913 354 907 q 397 919 381 919 q 426 913 412 919 q 450 897 439 907 q 467 873 460 886 q 473 844 473 859 z "},"¯":{"ha":547,"x_min":85,"x_max":462,"o":"m 85 882 l 462 882 l 462 805 l 85 805 l 85 882 z "},"˘":{"ha":529,"x_min":84,"x_max":445,"o":"m 265 762 q 180 776 214 762 q 124 814 145 790 q 93 870 102 838 q 84 938 84 902 l 168 938 q 173 898 168 916 q 188 867 177 880 q 218 846 199 854 q 265 839 237 839 q 311 846 293 839 q 341 867 330 854 q 356 898 352 880 q 361 938 361 916 l 445 938 q 436 870 445 902 q 406 814 427 838 q 350 776 385 790 q 265 762 315 762 z "},"˚":{"ha":446,"x_min":92,"x_max":355,"o":"m 92 861 q 102 910 92 888 q 131 949 113 933 q 172 975 149 966 q 222 984 196 984 q 273 975 249 984 q 315 949 297 966 q 344 910 334 933 q 355 861 355 888 q 344 812 355 834 q 315 773 334 789 q 273 749 297 758 q 222 740 249 740 q 172 749 196 740 q 131 773 149 758 q 102 812 113 789 q 92 861 92 834 m 158 861 q 176 814 158 832 q 224 795 193 795 q 270 814 252 795 q 288 861 288 832 q 270 908 288 890 q 224 926 252 926 q 176 908 193 926 q 158 861 158 890 z "},"˝":{"ha":652,"x_min":184,"x_max":612,"o":"m 406 949 l 275 780 q 257 765 267 769 q 234 762 248 762 l 184 762 l 275 920 q 294 942 283 935 q 327 949 305 949 l 406 949 m 612 949 l 454 780 q 435 766 444 770 q 413 762 427 762 l 356 762 l 473 920 q 494 941 484 934 q 526 949 504 949 l 612 949 z "},"˙":{"ha":313,"x_min":73,"x_max":241,"o":"m 241 876 q 234 843 241 859 q 215 817 227 828 q 188 799 203 806 q 156 792 173 792 q 124 799 139 792 q 98 817 109 806 q 80 843 87 828 q 73 876 73 859 q 80 908 73 893 q 98 935 87 924 q 124 954 109 947 q 156 960 139 960 q 188 954 173 960 q 215 935 203 947 q 234 908 227 924 q 241 876 241 893 z "},"¸":{"ha":427,"x_min":110,"x_max":348,"o":"m 136 -165 q 145 -167 140 -165 q 158 -172 151 -170 q 175 -177 165 -175 q 199 -180 185 -180 q 240 -169 227 -180 q 254 -141 254 -158 q 227 -106 254 -116 q 149 -90 199 -96 l 184 17 l 252 17 l 233 -49 q 321 -84 294 -61 q 348 -142 348 -107 q 337 -180 348 -163 q 308 -209 327 -197 q 263 -227 290 -220 q 205 -233 237 -233 q 155 -228 179 -233 q 110 -213 130 -222 l 121 -176 q 136 -165 125 -165 z "},"˛":{"ha":433,"x_min":104,"x_max":341,"o":"m 311 -138 q 323 -146 319 -138 l 341 -190 q 291 -214 321 -205 q 227 -224 261 -224 q 137 -198 170 -224 q 104 -129 104 -172 q 112 -89 104 -109 q 134 -53 119 -70 q 167 -20 148 -35 q 208 8 186 -4 l 269 0 q 243 -17 256 -7 q 219 -40 230 -27 q 200 -68 208 -53 q 193 -100 193 -83 q 210 -138 193 -124 q 252 -153 226 -153 q 276 -150 267 -153 q 292 -145 286 -148 q 303 -140 299 -142 q 311 -138 307 -138 z "},"Γ":{"ha":577,"x_min":80,"x_max":543,"o":"m 543 795 l 204 795 l 204 0 l 80 0 l 80 891 l 543 891 l 543 795 z "},"Δ":{"ha":784,"x_min":17,"x_max":747,"o":"m 17 35 q 20 71 17 52 q 32 108 24 89 l 319 891 l 446 891 l 732 111 q 747 36 747 75 l 747 0 l 17 0 l 17 35 m 140 99 l 610 99 l 406 690 q 378 781 391 726 q 364 730 372 753 q 349 689 357 707 l 140 99 z "},"Θ":{"ha":920,"x_min":49,"x_max":871,"o":"m 338 500 l 658 500 l 658 401 l 338 401 l 338 500 m 871 446 q 841 262 871 345 q 758 118 812 178 q 628 24 704 58 q 460 -9 553 -9 q 293 24 369 -9 q 163 118 217 58 q 79 262 109 178 q 49 446 49 345 q 79 629 49 545 q 163 773 109 713 q 293 868 217 834 q 460 901 369 901 q 628 868 553 901 q 758 773 704 834 q 841 629 812 713 q 871 446 871 545 m 745 446 q 725 592 745 527 q 668 702 705 656 q 578 771 631 747 q 460 795 526 795 q 343 771 395 795 q 253 702 290 747 q 196 592 216 656 q 176 446 176 527 q 196 299 176 364 q 253 190 216 235 q 343 121 290 144 q 460 97 395 97 q 578 121 526 97 q 668 190 631 144 q 725 299 705 235 q 745 446 745 364 z "},"Λ":{"ha":795,"x_min":5,"x_max":791,"o":"m 791 0 l 684 0 q 659 8 669 0 q 643 28 648 16 l 420 653 q 404 699 412 674 q 389 751 396 724 q 377 699 384 724 q 361 652 370 673 l 139 29 q 124 9 134 18 q 98 0 113 0 l 5 0 l 342 891 l 454 891 l 791 0 z "},"Ξ":{"ha":683,"x_min":45,"x_max":640,"o":"m 640 891 l 640 787 l 45 787 l 45 891 l 640 891 m 640 104 l 640 0 l 45 0 l 45 104 l 640 104 m 181 504 l 502 504 l 502 397 l 181 397 l 181 504 z "},"Π":{"ha":865,"x_min":95,"x_max":770,"o":"m 770 0 l 646 0 l 646 795 l 219 795 l 219 0 l 95 0 l 95 891 l 770 891 l 770 0 z "},"Σ":{"ha":637,"x_min":39,"x_max":598,"o":"m 425 456 q 424 444 425 450 q 419 430 422 437 q 409 412 415 422 q 394 390 403 403 l 211 145 q 198 125 203 134 q 187 110 192 116 q 178 98 182 103 q 169 90 174 94 q 211 95 192 93 q 248 96 231 96 l 598 96 l 598 0 l 39 0 l 39 46 q 46 74 39 60 q 62 98 52 87 l 323 444 l 54 802 q 44 819 48 810 q 39 838 39 829 l 39 891 l 598 891 l 598 795 l 262 795 q 211 797 234 795 q 165 804 188 799 q 199 775 186 790 q 227 737 212 760 l 395 516 q 410 494 404 503 q 419 478 416 485 q 424 467 422 472 q 425 456 425 462 z "},"Φ":{"ha":1055,"x_min":47,"x_max":1008,"o":"m 587 847 q 762 814 684 846 q 895 728 840 783 q 979 601 950 673 q 1008 448 1008 529 q 979 293 1008 366 q 895 167 950 221 q 762 81 840 113 q 587 49 684 50 l 587 -71 l 470 -71 l 470 49 q 293 81 372 50 q 160 167 215 113 q 76 293 105 221 q 47 448 47 366 q 76 601 47 529 q 161 728 106 673 q 294 814 216 783 q 470 847 372 846 l 470 962 l 587 962 l 587 847 m 167 448 q 188 331 167 386 q 249 235 210 277 q 344 170 288 194 q 470 145 400 146 l 470 751 q 344 726 400 750 q 249 660 288 701 q 188 564 210 619 q 167 448 167 509 m 888 448 q 867 564 888 509 q 807 660 846 619 q 712 726 768 701 q 587 751 656 750 l 587 145 q 712 170 656 146 q 807 235 768 194 q 867 331 846 277 q 888 448 888 386 z "},"Ψ":{"ha":1042,"x_min":67,"x_max":975,"o":"m 149 891 q 180 879 169 891 q 191 848 191 866 l 191 573 q 207 468 191 514 q 254 389 222 421 q 337 338 286 356 q 458 317 387 319 l 458 891 l 583 891 l 583 317 q 704 338 653 319 q 786 389 754 356 q 834 467 819 421 q 849 573 849 513 l 849 848 q 861 879 849 866 q 892 891 872 891 l 975 891 l 975 573 q 949 430 975 494 q 875 319 924 366 q 752 247 825 273 q 583 217 679 220 l 583 0 l 458 0 l 458 217 q 289 247 362 220 q 167 319 216 273 q 92 430 117 366 q 67 573 67 494 l 67 891 l 149 891 z "},"Ω":{"ha":922,"x_min":47,"x_max":876,"o":"m 528 142 q 613 182 574 152 q 682 257 653 212 q 727 360 711 302 q 744 484 744 418 q 721 619 744 561 q 659 716 698 677 q 569 775 621 755 q 461 794 518 794 q 353 775 404 794 q 263 716 302 755 q 201 619 224 677 q 178 484 178 561 q 195 360 178 418 q 241 257 212 302 q 309 182 270 212 q 394 142 349 152 l 394 0 l 89 0 q 58 11 70 0 q 47 40 47 22 l 47 104 l 206 104 q 255 101 230 104 q 305 95 281 98 q 205 151 251 114 q 126 238 159 187 q 74 352 93 289 q 56 486 56 414 q 70 602 56 547 q 111 703 84 657 q 174 786 137 749 q 256 848 211 823 q 353 887 301 873 q 461 901 405 901 q 619 870 545 901 q 748 786 693 840 q 835 655 803 731 q 867 486 867 578 q 848 352 867 414 q 796 238 829 289 q 717 151 763 187 q 617 95 671 114 q 667 101 642 98 q 716 104 692 104 l 876 104 l 876 40 q 864 11 876 22 q 833 0 853 0 l 528 0 l 528 142 z "},"α":{"ha":788,"x_min":52,"x_max":779,"o":"m 698 -5 q 647 2 671 -5 q 603 23 623 9 q 567 61 583 38 q 543 115 551 83 q 495 58 522 82 q 440 20 469 35 q 380 -2 411 5 q 319 -9 350 -9 q 214 13 263 -9 q 130 78 165 36 q 73 182 94 121 q 52 320 52 243 q 75 467 52 401 q 139 579 98 533 q 234 650 179 625 q 351 675 288 675 q 419 667 387 675 q 477 645 450 659 q 526 611 504 631 q 564 570 547 592 l 577 639 q 608 663 581 663 l 679 663 l 643 309 q 637 246 640 277 q 635 189 635 215 q 643 141 635 161 q 665 108 651 121 q 699 90 680 96 q 739 83 718 83 l 779 83 l 779 35 q 758 7 779 20 q 698 -5 736 -5 m 347 86 q 411 99 381 86 q 466 137 441 111 q 506 203 490 163 q 528 298 522 243 l 545 465 q 520 509 536 488 q 482 547 504 530 q 433 573 460 564 q 372 583 406 583 q 297 568 332 583 q 234 520 261 552 q 191 439 207 488 q 175 323 175 391 q 189 216 175 261 q 227 142 203 172 q 281 100 250 113 q 347 86 313 86 z "},"β":{"ha":738,"x_min":102,"x_max":688,"o":"m 399 -9 q 298 8 342 -9 q 221 65 254 26 l 221 -239 l 102 -239 l 102 597 q 169 857 102 766 q 375 947 236 947 q 488 928 440 947 q 566 878 535 909 q 612 805 597 846 q 627 720 627 764 q 590 593 627 645 q 485 518 552 541 q 571 484 533 507 q 634 430 608 462 q 674 359 661 399 q 688 273 688 319 q 667 165 688 216 q 609 75 646 113 q 518 13 571 36 q 399 -9 465 -9 m 347 562 q 415 570 384 562 q 468 595 446 578 q 503 641 490 613 q 515 709 515 669 q 477 821 515 783 q 372 860 439 860 q 305 845 334 860 q 258 799 277 831 q 230 716 239 767 q 221 593 221 665 l 221 163 q 283 103 249 123 q 370 83 318 83 q 455 99 418 83 q 517 142 492 115 q 554 206 541 170 q 566 285 566 243 q 550 370 566 335 q 506 427 534 405 q 441 458 478 448 q 361 468 404 468 l 321 468 l 321 562 l 347 562 z "},"γ":{"ha":620,"x_min":-9,"x_max":606,"o":"m 238 -224 l 238 57 q 196 262 218 167 q 146 428 174 357 q 86 539 119 498 q 13 579 53 579 l -9 579 l -9 623 q -7 640 -9 632 q 2 654 -5 648 q 21 664 9 661 q 52 668 33 668 q 151 635 108 668 q 226 537 194 602 q 281 379 258 473 q 319 163 304 285 q 370 269 347 213 q 412 383 393 324 q 445 502 431 441 q 469 623 459 563 q 483 654 473 646 q 506 663 493 663 l 606 663 q 564 501 590 581 q 506 345 538 421 q 436 198 474 269 q 357 60 398 126 l 357 -224 l 238 -224 z "},"δ":{"ha":727,"x_min":52,"x_max":675,"o":"m 588 848 q 578 826 586 831 q 555 821 570 821 q 526 826 547 821 q 478 836 505 830 q 420 846 451 842 q 363 850 390 850 q 313 846 333 850 q 280 833 292 841 q 261 813 267 825 q 256 790 256 802 q 274 747 256 767 q 321 708 292 727 q 388 668 351 688 q 466 622 426 647 q 543 567 505 597 q 610 497 581 536 q 657 408 640 458 q 675 296 675 359 q 654 173 675 229 q 591 76 632 117 q 493 14 551 36 q 365 -8 436 -8 q 232 16 290 -8 q 134 81 174 39 q 73 179 94 123 q 52 301 52 235 q 112 488 52 411 q 292 607 172 566 q 234 643 261 625 q 187 683 208 661 q 155 731 167 705 q 143 789 143 757 q 156 850 143 822 q 197 900 169 879 q 267 933 224 921 q 370 945 310 945 q 421 943 393 945 q 480 938 450 941 q 541 930 511 935 q 597 920 571 926 l 588 848 m 556 292 q 541 386 556 345 q 499 458 525 427 q 439 515 473 490 q 370 562 406 540 q 296 527 331 548 q 233 474 260 505 q 190 401 206 444 q 174 304 174 359 q 186 219 174 260 q 221 149 197 179 q 281 101 245 119 q 365 83 317 83 q 443 97 408 83 q 503 139 477 112 q 542 204 528 165 q 556 292 556 243 z "},"ε":{"ha":633,"x_min":69,"x_max":605,"o":"m 562 549 q 549 535 555 538 q 534 532 543 532 q 513 540 526 532 q 480 556 500 547 q 431 573 460 566 q 359 581 401 581 q 290 574 319 581 q 240 553 260 566 q 211 523 220 540 q 201 486 201 505 q 213 446 201 464 q 247 415 224 428 q 300 394 269 401 q 370 387 331 387 l 486 387 l 486 307 l 370 307 q 235 278 279 307 q 190 200 190 249 q 202 153 190 174 q 235 116 214 132 q 288 92 257 100 q 358 83 319 83 q 436 93 405 83 q 488 115 467 103 q 523 138 509 127 q 549 148 536 148 q 562 145 556 148 q 572 136 568 142 l 605 93 q 553 47 583 66 q 491 16 524 28 q 422 -2 458 3 q 351 -8 387 -8 q 242 5 293 -8 q 152 45 191 19 q 92 107 114 71 q 69 190 69 144 q 105 287 69 247 q 203 348 141 328 q 149 377 171 360 q 113 414 127 394 q 93 454 99 433 q 86 496 86 475 q 103 563 86 530 q 154 620 120 595 q 238 659 187 644 q 357 673 289 673 q 493 652 436 673 q 589 595 550 630 l 562 549 z "},"ζ":{"ha":483,"x_min":42,"x_max":494,"o":"m 486 888 q 485 874 487 882 q 476 856 484 867 q 455 829 469 845 q 419 791 441 814 q 363 730 393 762 q 304 661 333 697 q 249 584 275 624 q 202 502 222 545 q 170 413 182 458 q 157 319 157 367 q 168 243 157 275 q 198 190 178 212 q 248 153 218 168 q 316 124 277 137 q 407 86 372 106 q 461 44 441 66 q 487 -1 480 22 q 494 -50 494 -25 q 480 -135 494 -94 q 442 -216 466 -176 l 350 -180 q 372 -131 361 -159 q 382 -75 382 -104 q 378 -50 382 -62 q 361 -24 374 -37 q 323 1 348 -12 q 258 28 298 14 q 165 66 205 44 q 98 120 125 88 q 56 194 71 151 q 42 294 42 236 q 66 440 42 370 q 131 578 90 510 q 230 713 173 646 q 355 851 288 781 q 276 843 317 846 q 191 840 235 840 l 123 840 q 100 844 110 840 q 85 853 91 848 q 77 866 79 859 q 74 880 74 873 l 74 938 l 475 938 l 486 888 z "},"η":{"ha":746,"x_min":28,"x_max":666,"o":"m 666 -224 l 547 -224 l 547 422 q 515 538 547 496 q 420 579 484 579 q 331 555 372 579 q 255 490 290 532 l 255 0 l 136 0 l 136 483 q 116 557 136 534 q 56 581 96 581 l 28 581 l 28 629 q 43 657 28 644 q 92 669 57 669 q 180 644 142 669 q 234 566 218 619 q 332 644 277 615 q 454 673 387 673 q 546 655 506 673 q 612 605 585 637 q 652 525 639 572 q 666 422 666 479 l 666 -224 z "},"θ":{"ha":739,"x_min":58,"x_max":681,"o":"m 370 949 q 499 918 441 949 q 597 826 556 887 q 659 676 637 766 q 681 470 681 587 q 659 263 681 353 q 597 113 637 173 q 499 21 556 52 q 370 -9 441 -9 q 240 21 298 -9 q 142 113 182 52 q 79 263 101 173 q 58 470 58 353 q 79 676 58 587 q 142 826 101 766 q 240 918 182 887 q 370 949 298 949 m 370 84 q 510 170 460 84 q 564 435 560 255 l 174 435 q 229 170 178 255 q 370 84 279 84 m 370 856 q 231 773 281 856 q 174 518 180 690 l 564 518 q 508 773 558 690 q 370 856 458 856 z "},"ι":{"ha":381,"x_min":100,"x_max":353,"o":"m 100 663 l 219 663 l 219 182 q 238 107 219 132 q 301 81 258 81 l 353 81 l 353 44 q 345 22 353 32 q 323 6 337 12 q 292 -4 310 -1 q 255 -7 275 -7 q 188 6 217 -7 q 139 43 159 19 q 110 101 119 68 q 100 176 100 135 l 100 663 z "},"λ":{"ha":643,"x_min":23,"x_max":643,"o":"m 257 606 l 199 788 q 185 821 193 808 q 167 843 178 835 q 142 854 157 851 q 107 858 127 858 l 64 858 l 64 902 q 67 920 64 911 q 79 934 71 928 q 101 943 87 940 q 136 947 115 947 q 185 941 161 947 q 231 923 210 936 q 270 888 252 910 q 299 834 288 867 l 525 154 q 555 99 537 116 q 607 82 573 82 l 643 82 l 643 34 q 628 1 643 9 q 585 -7 613 -7 q 537 -2 561 -7 q 492 17 513 3 q 453 55 471 31 q 421 117 435 79 l 325 422 q 317 447 319 435 q 313 469 314 458 q 306 447 309 458 q 298 424 302 435 l 161 24 q 148 7 157 15 q 125 0 140 0 l 23 0 l 257 606 z "},"μ":{"ha":764,"x_min":92,"x_max":755,"o":"m 211 663 l 211 262 q 243 145 211 189 q 340 102 275 102 q 439 134 397 102 q 509 224 481 167 l 509 663 l 628 663 l 628 180 q 652 106 628 130 q 717 83 676 83 l 755 83 l 755 35 q 734 6 755 19 q 676 -6 713 -6 q 625 2 650 -6 q 581 26 601 9 q 546 67 561 42 q 525 126 532 92 q 440 36 488 68 q 333 4 393 4 q 254 18 288 4 q 197 60 220 33 q 202 7 200 34 q 203 -43 203 -20 l 203 -224 l 144 -224 q 105 -211 119 -224 q 92 -174 92 -197 l 92 663 l 211 663 z "},"ν":{"ha":623,"x_min":6,"x_max":600,"o":"m 600 663 q 492 310 563 478 q 328 0 422 141 l 254 0 l 6 663 l 104 663 q 127 656 118 663 q 140 639 137 648 l 283 214 q 297 172 291 193 q 307 130 302 151 q 362 241 338 182 q 405 365 386 301 q 437 495 423 429 q 463 627 452 562 q 477 655 467 647 q 500 663 487 663 l 600 663 z "},"ξ":{"ha":522,"x_min":50,"x_max":524,"o":"m 507 888 q 492 854 507 867 q 459 842 477 842 l 401 842 q 319 829 356 842 q 256 793 282 816 q 215 739 229 770 q 200 671 200 707 q 249 577 200 610 q 391 544 298 544 l 450 544 l 450 450 l 362 450 q 275 438 312 450 q 215 406 239 427 q 180 355 191 385 q 168 290 168 326 q 181 228 168 254 q 221 181 195 201 q 287 143 248 160 q 378 108 326 125 q 449 77 421 93 q 494 42 477 60 q 517 2 511 23 q 524 -44 524 -20 q 509 -134 524 -92 q 469 -216 494 -176 l 376 -180 q 400 -131 388 -158 q 413 -75 413 -103 q 409 -49 413 -61 q 394 -26 405 -37 q 363 -5 383 -15 q 313 14 344 5 q 214 49 261 28 q 130 100 166 69 q 72 175 94 132 q 50 279 50 218 q 58 343 50 311 q 85 406 66 376 q 133 461 103 436 q 205 503 163 486 q 119 567 148 526 q 90 663 90 607 q 100 722 90 694 q 130 773 111 750 q 175 815 149 796 q 231 848 201 834 q 211 848 221 848 q 191 848 201 848 l 104 848 q 67 860 79 848 q 56 893 56 871 l 56 938 l 507 938 l 507 888 z "},"π":{"ha":768,"x_min":27,"x_max":744,"o":"m 744 657 l 744 601 q 734 574 744 585 q 705 563 724 563 l 610 563 q 608 496 609 527 q 608 433 608 465 q 610 298 608 355 q 617 203 612 242 q 630 141 623 165 q 648 105 638 118 q 672 88 659 92 q 701 84 685 84 l 727 84 l 727 36 q 705 6 727 16 q 648 -4 683 -4 q 532 50 570 -4 q 494 225 494 104 q 496 289 494 254 q 502 364 498 323 q 509 454 505 405 q 514 563 512 503 l 273 563 q 263 364 271 450 q 243 215 256 278 q 215 110 231 152 q 178 42 198 67 q 134 6 157 16 q 85 -5 111 -5 q 68 -3 77 -5 q 52 1 59 -2 q 39 8 44 3 q 35 18 35 12 l 35 99 l 48 99 q 88 124 68 99 q 125 204 108 149 q 154 348 142 259 q 170 563 166 436 l 27 563 l 27 613 q 39 643 27 628 q 73 657 51 657 l 744 657 z "},"ρ":{"ha":707,"x_min":81,"x_max":659,"o":"m 81 380 q 101 501 81 447 q 157 594 121 555 q 247 653 194 633 q 366 674 300 674 q 480 652 427 674 q 573 586 533 629 q 635 480 612 543 q 659 336 659 418 q 640 200 659 263 q 585 90 621 136 q 499 17 550 43 q 385 -9 448 -9 q 282 12 329 -9 q 201 71 236 33 l 201 -224 l 81 -224 l 81 380 m 201 172 q 273 104 232 125 q 357 83 314 83 q 489 149 443 83 q 536 336 536 214 q 523 447 536 401 q 488 523 511 493 q 435 566 466 552 q 366 579 404 579 q 301 566 332 579 q 249 527 271 553 q 214 465 227 502 q 201 380 201 427 l 201 172 z "},"σ":{"ha":739,"x_min":45,"x_max":721,"o":"m 538 568 q 608 471 583 532 q 633 325 633 410 q 613 190 633 252 q 555 84 593 129 q 463 15 517 40 q 341 -9 409 -9 q 220 13 275 -9 q 127 79 166 36 q 67 184 88 122 q 45 325 45 246 q 68 465 45 403 q 134 570 90 527 q 240 637 177 614 q 384 660 303 660 l 721 660 l 721 604 q 710 581 721 593 q 682 568 700 568 l 538 568 m 511 330 q 506 412 511 373 q 488 482 500 450 q 457 536 475 513 q 414 568 439 558 l 384 568 q 286 552 326 568 q 219 505 245 536 q 180 427 193 473 q 168 322 168 381 q 212 144 168 204 q 340 83 256 83 q 469 147 427 83 q 511 330 511 210 z "},"ς":{"ha":570,"x_min":47,"x_max":558,"o":"m 526 544 q 516 533 521 536 q 501 529 511 529 q 480 537 491 529 q 452 555 469 545 q 413 573 436 565 q 355 581 389 581 q 275 565 309 581 q 217 518 240 548 q 181 449 193 489 q 170 363 170 409 q 185 258 170 299 q 230 191 200 218 q 302 145 259 163 q 400 107 345 126 q 467 76 440 92 q 509 41 493 60 q 530 2 524 23 q 536 -44 536 -20 q 522 -134 536 -92 q 484 -216 508 -176 l 391 -180 q 414 -131 402 -159 q 426 -75 426 -103 q 422 -49 426 -61 q 408 -26 418 -37 q 380 -5 398 -15 q 335 14 363 5 q 224 55 276 32 q 132 117 172 79 q 70 212 93 155 q 47 355 47 269 q 67 478 47 420 q 125 580 87 536 q 219 648 163 623 q 347 673 275 673 q 467 651 415 673 q 558 587 518 628 l 526 544 z "},"τ":{"ha":538,"x_min":-23,"x_max":550,"o":"m -23 618 q -13 646 -23 634 q 18 657 -3 657 l 550 657 l 550 610 q 539 578 550 589 q 508 567 528 567 l 300 567 l 300 184 q 322 110 300 136 q 391 84 343 84 l 445 84 l 445 47 q 437 25 445 35 q 415 8 429 15 q 383 -1 401 2 q 345 -5 365 -5 q 274 8 304 -5 q 223 46 243 22 q 192 104 202 71 q 181 178 181 138 l 181 567 l -23 567 l -23 618 z "},"υ":{"ha":752,"x_min":92,"x_max":686,"o":"m 212 663 l 212 241 q 224 174 212 203 q 258 125 236 145 q 310 95 279 105 q 378 84 341 84 q 447 97 413 84 q 509 142 481 111 q 553 226 536 174 q 570 355 570 278 q 566 422 570 389 q 557 489 562 455 q 545 555 551 522 q 534 623 539 589 q 535 641 532 633 q 542 654 537 649 q 554 661 547 659 q 566 663 560 663 l 648 663 q 663 584 656 622 q 674 510 669 547 q 683 435 680 473 q 686 355 686 397 q 660 191 686 260 q 590 77 633 121 q 489 11 546 32 q 371 -10 433 -10 q 254 7 305 -10 q 166 57 202 24 q 111 136 130 90 q 92 241 92 182 l 92 663 l 212 663 z "},"φ":{"ha":905,"x_min":46,"x_max":859,"o":"m 165 332 q 180 232 165 278 q 224 153 195 186 q 296 100 253 119 q 394 80 338 81 l 394 467 q 445 624 394 574 q 587 673 496 673 q 697 649 648 673 q 783 581 747 624 q 839 478 819 537 q 859 352 859 420 q 833 205 859 271 q 762 91 808 138 q 651 18 716 44 q 506 -9 586 -9 l 506 -224 l 394 -224 l 394 -9 q 250 17 314 -9 q 140 89 185 43 q 71 197 95 135 q 46 332 46 259 q 62 444 46 391 q 106 539 77 496 q 175 615 134 582 q 264 669 215 648 l 295 621 q 300 607 299 614 q 298 592 300 599 q 292 579 296 585 q 283 571 288 573 q 196 475 226 538 q 165 332 165 412 m 506 80 q 607 100 563 81 q 680 155 650 120 q 724 240 709 191 q 739 352 739 290 q 726 446 739 404 q 692 520 713 489 q 643 568 671 551 q 587 585 616 585 q 528 557 549 585 q 506 467 506 530 l 506 80 z "},"χ":{"ha":592,"x_min":-6,"x_max":591,"o":"m 273 146 q 266 111 271 128 q 256 82 262 94 l 136 -198 q 123 -215 132 -208 q 100 -222 115 -222 l 15 -222 l 222 243 l 113 511 q 97 544 105 531 q 78 566 89 557 q 52 577 66 574 q 16 581 37 581 l -6 581 l -6 626 q -6 643 -6 635 q -1 657 -5 651 q 14 667 3 663 q 43 670 24 670 q 101 664 75 670 q 148 645 127 658 q 185 610 169 631 q 214 557 201 588 l 313 311 q 320 347 316 330 q 331 377 325 363 l 441 640 q 454 656 446 649 q 477 663 462 663 l 562 663 l 364 216 l 481 -73 q 515 -127 496 -110 q 568 -144 534 -144 l 591 -144 l 591 -193 q 581 -225 591 -218 q 543 -233 571 -233 q 493 -229 517 -233 q 449 -210 470 -224 q 410 -172 429 -196 q 376 -108 392 -147 l 273 146 z "},"ψ":{"ha":983,"x_min":90,"x_max":924,"o":"m 563 938 l 563 87 q 659 107 614 92 q 735 155 703 123 q 786 235 768 186 q 805 355 805 284 q 801 438 805 401 q 791 505 796 474 q 780 564 785 536 q 771 623 774 592 q 780 654 769 644 q 804 663 791 663 l 889 663 q 904 584 897 622 q 915 510 910 547 q 922 435 919 473 q 924 355 924 397 q 895 191 924 258 q 816 82 866 124 q 701 19 766 40 q 563 -7 635 -2 l 563 -224 l 444 -224 l 444 -8 q 178 86 267 3 q 90 313 90 169 l 90 663 l 172 663 q 186 659 179 663 q 198 647 193 654 q 206 632 203 640 q 209 617 209 624 l 209 313 q 225 224 209 263 q 272 157 241 185 q 345 111 302 128 q 444 87 389 94 l 444 938 l 563 938 z "},"ω":{"ha":967,"x_min":56,"x_max":911,"o":"m 315 84 q 363 97 342 84 q 397 135 384 111 q 417 193 411 159 q 424 268 424 227 l 424 444 l 543 444 l 543 260 q 551 188 544 220 q 571 132 557 155 q 605 97 585 109 q 653 84 625 84 q 699 95 675 84 q 744 133 724 106 q 778 208 764 161 q 791 329 791 256 q 783 409 791 368 q 762 488 774 450 q 736 558 749 526 q 713 610 722 590 q 707 634 706 625 q 714 651 709 644 q 727 660 719 657 q 741 663 734 663 l 825 663 q 887 503 863 587 q 911 329 911 419 q 893 188 911 251 q 842 81 875 125 q 765 14 810 37 q 667 -10 720 -10 q 553 21 599 -10 q 483 103 508 53 q 412 21 457 53 q 300 -10 366 -10 q 203 14 248 -10 q 125 81 158 37 q 75 188 93 125 q 56 329 56 251 q 81 503 56 419 q 142 663 105 587 l 227 663 q 240 660 233 663 q 253 651 248 657 q 259 634 258 644 q 254 610 260 625 q 231 558 244 590 q 205 488 218 526 q 184 409 193 450 q 176 329 176 368 q 189 208 176 256 q 223 133 203 161 q 268 95 243 106 q 315 84 292 84 z "},"΄":{"ha":440,"x_min":184,"x_max":333,"o":"m 184 751 l 227 978 l 301 978 q 326 966 319 978 q 326 936 333 955 l 254 751 l 184 751 z "},"΅":{"ha":686,"x_min":142,"x_max":599,"o":"m 305 755 l 349 981 l 423 981 q 448 970 441 981 q 447 939 454 958 l 376 755 l 305 755 m 599 840 q 580 796 599 814 q 536 778 562 778 q 511 783 523 778 q 491 796 500 787 q 478 815 483 804 q 473 840 473 827 q 478 864 473 852 q 491 884 483 876 q 511 898 500 893 q 536 903 523 903 q 560 898 549 903 q 580 884 571 893 q 594 864 589 876 q 599 840 599 852 m 269 840 q 263 815 269 827 q 250 796 258 804 q 229 783 241 787 q 204 778 217 778 q 181 783 192 778 q 161 796 170 787 q 148 815 153 804 q 142 840 142 827 q 148 864 142 852 q 161 884 153 876 q 181 898 170 893 q 204 903 192 903 q 229 898 217 903 q 250 884 241 893 q 263 864 258 876 q 269 840 269 852 z "},"ʹ":{"ha":347,"x_min":89,"x_max":256,"o":"m 237 960 q 233 774 256 865 q 138 606 210 683 l 102 630 q 90 647 91 637 q 94 663 89 656 q 125 710 111 687 q 144 757 138 733 q 148 806 151 781 q 130 859 145 831 l 130 927 q 138 951 130 941 q 163 960 146 960 l 237 960 z "},"͵":{"ha":347,"x_min":89,"x_max":256,"o":"m 89 0 m 237 217 q 233 31 256 121 q 138 -137 210 -60 l 102 -113 q 90 -97 91 -106 q 94 -80 89 -87 q 125 -33 111 -56 q 144 14 138 -10 q 148 63 151 38 q 130 116 145 88 l 130 184 q 138 208 130 198 q 163 217 146 217 l 237 217 z "},"Б":{"ha":747,"x_min":96,"x_max":667,"o":"m 640 794 l 220 794 l 220 509 l 374 509 q 506 491 451 509 q 597 441 562 473 q 650 365 633 409 q 667 268 667 321 q 648 157 667 207 q 590 73 628 108 q 498 19 553 38 q 374 0 444 0 l 96 0 l 96 891 l 640 891 l 640 794 m 220 411 l 220 98 l 374 98 q 453 109 420 98 q 506 142 486 121 q 536 192 526 163 q 545 256 545 221 q 536 321 545 292 q 506 370 526 351 q 453 400 486 390 q 374 411 420 411 l 220 411 z "},"Г":{"ha":597,"x_min":87,"x_max":559,"o":"m 559 795 l 211 795 l 211 0 l 87 0 l 87 891 l 559 891 l 559 795 z "},"Ґ":{"ha":601,"x_min":87,"x_max":563,"o":"m 563 795 l 212 795 l 212 0 l 87 0 l 87 891 l 467 891 l 467 1092 l 563 1092 l 563 795 z "},"Д":{"ha":895,"x_min":21,"x_max":867,"o":"m 739 891 l 739 96 l 867 96 l 867 -180 q 856 -207 867 -197 q 827 -216 845 -216 l 753 -216 l 753 0 l 134 0 l 134 -180 q 124 -207 134 -197 q 96 -216 113 -216 l 21 -216 l 21 96 l 100 96 q 134 125 117 105 q 166 184 151 146 q 196 281 182 222 q 221 425 210 340 q 241 626 233 511 q 254 891 250 741 l 739 891 m 370 795 q 351 529 363 643 q 321 330 338 414 q 283 189 304 246 q 238 96 262 132 l 615 96 l 615 795 l 370 795 z "},"Ж":{"ha":1112,"x_min":7,"x_max":1104,"o":"m 124 891 q 159 881 143 891 q 186 856 175 871 l 355 547 q 388 511 370 519 q 427 502 405 502 l 498 502 l 498 891 l 614 891 l 614 502 l 685 502 q 706 504 696 502 q 724 511 715 506 q 741 525 733 516 q 757 547 749 534 l 926 855 q 953 881 937 871 q 988 891 969 891 l 1084 891 l 880 535 q 846 492 863 509 q 806 466 829 475 q 856 438 834 456 q 897 387 877 419 l 1104 0 l 1023 0 q 977 12 996 0 q 945 43 958 24 l 774 359 q 742 396 760 385 q 698 407 724 407 l 614 407 l 614 0 l 498 0 l 498 407 l 414 407 q 370 395 388 407 q 338 359 353 384 l 168 43 q 136 12 155 24 q 90 0 117 0 l 7 0 l 216 387 q 256 438 235 419 q 306 466 278 456 q 265 492 282 475 q 233 535 248 509 l 27 891 l 124 891 z "},"З":{"ha":658,"x_min":35,"x_max":614,"o":"m 592 672 q 562 553 592 604 q 475 474 531 503 q 532 439 507 460 q 576 392 557 418 q 604 336 594 366 q 614 271 614 305 q 594 161 614 212 q 536 73 574 111 q 443 13 498 35 q 316 -9 387 -9 q 157 23 229 -9 q 35 109 85 54 l 72 167 q 100 182 81 182 q 130 169 113 182 q 172 138 146 155 q 232 107 197 121 q 319 94 268 94 q 451 139 404 94 q 498 266 498 184 q 486 329 498 300 q 452 378 474 358 q 397 410 429 399 q 326 422 366 422 l 214 422 l 213 523 l 319 523 q 383 532 354 523 q 432 559 412 542 q 465 603 453 577 q 476 663 476 629 q 465 718 476 693 q 434 761 454 743 q 383 788 413 779 q 315 798 353 798 q 240 788 271 798 q 187 765 209 777 q 151 742 165 752 q 125 731 136 731 q 98 750 108 731 l 67 808 q 176 876 114 852 q 316 900 238 900 q 431 883 380 900 q 517 836 481 866 q 573 764 553 806 q 592 672 592 722 z "},"И":{"ha":891,"x_min":100,"x_max":791,"o":"m 644 852 q 667 879 653 867 q 699 891 682 891 l 791 891 l 791 0 l 667 0 l 667 629 q 669 684 667 655 q 674 745 670 713 q 652 693 664 718 q 629 651 640 669 l 247 39 q 224 12 238 24 q 192 0 210 0 l 100 0 l 100 891 l 224 891 l 224 262 q 222 206 224 235 q 216 144 220 176 q 239 197 227 172 q 262 240 251 221 l 644 852 z "},"К":{"ha":754,"x_min":90,"x_max":743,"o":"m 214 502 l 293 502 q 335 510 317 502 q 368 545 353 519 l 563 857 q 586 881 573 871 q 617 891 600 891 l 722 891 l 491 525 q 457 488 476 503 q 417 466 439 474 q 471 439 449 458 q 514 387 492 420 l 743 0 l 631 0 q 600 10 612 0 q 576 37 588 20 l 383 364 q 352 397 368 388 q 307 407 336 407 l 214 407 l 214 0 l 90 0 l 90 891 l 214 891 l 214 502 z "},"Л":{"ha":848,"x_min":22,"x_max":755,"o":"m 755 891 l 755 0 l 631 0 l 631 795 l 377 795 q 356 497 370 623 q 322 282 342 371 q 279 136 303 193 q 225 47 254 79 q 162 4 196 16 q 90 -8 128 -8 q 22 16 22 -8 l 22 94 l 64 94 q 106 103 85 94 q 148 142 128 113 q 186 225 168 171 q 219 367 204 279 q 244 584 233 456 q 260 891 255 713 l 755 891 z "},"Љ":{"ha":1211,"x_min":22,"x_max":1202,"o":"m 755 509 l 921 509 q 1048 491 995 509 q 1136 441 1101 473 q 1186 365 1170 409 q 1202 268 1202 321 q 1184 157 1202 207 q 1129 73 1165 108 q 1040 19 1093 38 q 920 0 987 0 l 631 0 l 631 795 l 377 795 q 356 497 370 623 q 322 282 342 371 q 279 136 303 193 q 225 47 254 79 q 162 4 196 16 q 90 -8 128 -8 q 22 16 22 -8 l 22 94 l 64 94 q 106 103 85 94 q 148 142 128 113 q 186 225 168 171 q 219 367 204 279 q 244 584 233 456 q 260 891 255 713 l 755 891 l 755 509 m 755 411 l 755 98 l 920 98 q 995 109 964 98 q 1044 142 1025 121 q 1072 192 1063 163 q 1081 256 1081 221 q 1072 321 1081 292 q 1044 370 1063 351 q 995 400 1025 390 q 921 411 964 411 l 755 411 z "},"Њ":{"ha":1217,"x_min":95,"x_max":1194,"o":"m 770 509 l 916 509 q 1041 491 989 509 q 1128 441 1094 473 q 1178 365 1162 409 q 1194 268 1194 321 q 1175 157 1194 207 q 1121 73 1156 108 q 1033 19 1085 38 q 915 0 981 0 l 646 0 l 646 404 l 219 404 l 219 0 l 95 0 l 95 891 l 219 891 l 219 494 l 646 494 l 646 891 l 770 891 l 770 509 m 770 411 l 770 98 l 915 98 q 987 109 958 98 q 1036 142 1017 121 q 1063 192 1055 163 q 1072 256 1072 221 q 1063 321 1072 292 q 1036 370 1055 351 q 988 400 1018 390 q 916 411 958 411 l 770 411 z "},"Ѳ":{"ha":920,"x_min":49,"x_max":871,"o":"m 871 446 q 841 262 871 345 q 758 118 812 178 q 628 24 704 58 q 460 -9 553 -9 q 293 24 369 -9 q 163 118 217 58 q 79 262 109 178 q 49 446 49 345 q 79 629 49 545 q 163 773 109 713 q 293 868 217 834 q 460 901 369 901 q 628 868 553 901 q 758 773 704 834 q 841 629 812 713 q 871 446 871 545 m 460 97 q 572 118 522 97 q 659 179 622 139 q 717 276 695 219 q 743 407 739 334 l 176 407 q 203 276 181 334 q 262 179 225 219 q 349 118 298 139 q 460 97 399 97 m 460 795 q 352 775 401 795 q 266 717 302 755 q 207 624 230 679 q 178 500 184 570 l 742 500 q 713 624 735 570 q 654 717 690 679 q 569 775 618 755 q 460 795 519 795 z "},"П":{"ha":863,"x_min":100,"x_max":763,"o":"m 763 0 l 639 0 l 639 795 l 224 795 l 224 0 l 100 0 l 100 891 l 763 891 l 763 0 z "},"У":{"ha":732,"x_min":2,"x_max":730,"o":"m 193 94 q 221 97 208 94 q 249 109 235 100 q 274 132 262 117 q 296 169 286 146 l 334 258 l 2 891 l 118 891 q 144 883 134 891 q 160 863 154 876 l 351 463 q 388 374 374 419 q 403 418 395 396 q 421 463 411 441 l 587 863 q 602 882 591 873 q 628 891 612 891 l 730 891 l 395 117 q 360 56 379 80 q 320 18 342 32 q 274 -2 298 3 q 220 -8 249 -8 q 152 16 152 -8 l 152 94 l 193 94 l 193 94 z "},"Ѵ":{"ha":819,"x_min":5,"x_max":829,"o":"m 5 891 l 104 891 q 131 883 121 891 q 146 863 141 875 l 380 238 q 396 192 389 217 q 411 140 404 168 q 423 192 416 168 q 437 239 430 217 l 610 774 q 771 895 650 895 q 817 890 805 895 q 829 871 829 884 l 829 794 l 798 794 q 751 778 771 794 q 720 728 731 762 l 465 0 l 354 0 l 5 891 z "},"Ф":{"ha":968,"x_min":54,"x_max":916,"o":"m 543 827 q 694 796 626 825 q 812 718 763 767 q 888 605 861 669 q 916 468 916 541 q 888 330 916 395 q 812 216 861 265 q 694 139 763 168 q 543 108 626 110 l 543 0 l 426 0 l 426 108 q 274 139 342 110 q 157 217 205 168 q 81 330 108 265 q 54 468 54 395 q 81 605 54 541 q 158 718 109 669 q 275 795 207 766 q 426 827 344 825 l 426 932 l 543 932 l 543 827 m 177 468 q 195 366 177 414 q 245 283 213 319 q 324 227 278 248 q 426 205 370 205 l 426 731 q 324 709 370 730 q 245 652 278 688 q 195 569 213 616 q 177 468 177 522 m 791 468 q 773 569 791 522 q 723 652 755 616 q 645 709 690 688 q 543 731 599 730 l 543 205 q 645 227 599 205 q 723 283 690 248 q 773 366 755 319 q 791 468 791 414 z "},"Ц":{"ha":887,"x_min":94,"x_max":859,"o":"m 94 0 l 94 891 l 218 891 l 218 96 l 611 96 l 611 891 l 735 891 l 735 96 l 859 96 l 859 -180 q 847 -207 859 -197 q 819 -216 836 -216 l 745 -216 l 745 0 l 94 0 z "},"Џ":{"ha":861,"x_min":100,"x_max":761,"o":"m 761 0 l 487 0 l 487 -180 q 476 -207 487 -197 q 447 -216 465 -216 l 374 -216 l 374 0 l 100 0 l 100 891 l 224 891 l 224 96 l 637 96 l 637 891 l 761 891 l 761 0 z "},"Ч":{"ha":772,"x_min":77,"x_max":680,"o":"m 680 0 l 555 0 l 555 383 q 430 354 490 365 q 316 345 369 344 q 219 359 262 345 q 143 404 175 374 q 95 482 112 434 q 77 600 77 530 l 77 891 l 201 891 l 201 600 q 222 502 201 539 q 285 449 242 464 q 395 440 328 433 q 555 473 462 446 l 555 891 l 680 891 l 680 0 z "},"Ш":{"ha":1206,"x_min":93,"x_max":1113,"o":"m 1113 0 l 93 0 l 93 891 l 217 891 l 217 96 l 540 96 l 540 891 l 664 891 l 664 96 l 989 96 l 989 891 l 1113 891 l 1113 0 z "},"Щ":{"ha":1236,"x_min":90,"x_max":1208,"o":"m 90 0 l 90 891 l 214 891 l 214 96 l 527 96 l 527 891 l 651 891 l 651 96 l 965 96 l 965 891 l 1089 891 l 1089 96 l 1208 96 l 1208 -180 q 1197 -207 1208 -197 q 1168 -216 1185 -216 l 1095 -216 l 1095 0 l 90 0 z "},"Ъ":{"ha":854,"x_min":-3,"x_max":808,"o":"m -3 891 l 349 891 l 349 509 l 508 509 q 643 491 587 509 q 736 441 700 473 q 790 365 773 409 q 808 268 808 321 q 788 157 808 207 q 729 73 768 108 q 635 19 691 38 q 508 0 579 0 l 226 0 l 226 791 l -3 791 l -3 891 m 349 411 l 349 98 l 508 98 q 589 109 555 98 q 645 142 623 121 q 676 192 666 163 q 686 256 686 221 q 676 321 686 292 q 645 370 666 351 q 590 400 623 390 q 508 411 556 411 l 349 411 z "},"Ы":{"ha":1058,"x_min":110,"x_max":955,"o":"m 110 0 m 233 891 l 233 509 l 392 509 q 527 491 471 509 q 621 441 584 473 q 674 365 657 409 q 692 268 692 321 q 672 157 692 207 q 613 73 652 108 q 519 19 575 38 q 392 0 463 0 l 110 0 l 110 891 l 233 891 m 233 411 l 233 98 l 392 98 q 473 109 439 98 q 529 142 507 121 q 560 192 550 163 q 570 256 570 221 q 560 321 570 292 q 529 370 550 351 q 474 400 507 390 q 392 411 440 411 l 233 411 m 955 0 l 831 0 l 831 891 l 955 891 l 955 0 z "},"Ь":{"ha":738,"x_min":99,"x_max":681,"o":"m 222 891 l 222 509 l 381 509 q 516 491 460 509 q 610 441 573 473 q 664 365 646 409 q 681 268 681 321 q 661 157 681 207 q 603 73 641 108 q 508 19 564 38 q 381 0 452 0 l 99 0 l 99 891 l 222 891 m 222 411 l 222 98 l 381 98 q 463 109 429 98 q 518 142 496 121 q 549 192 539 163 q 559 256 559 221 q 549 321 559 292 q 518 370 539 351 q 463 400 496 390 q 381 411 429 411 l 222 411 z "},"Э":{"ha":761,"x_min":41,"x_max":715,"o":"m 108 186 q 119 183 114 186 q 129 176 123 181 q 169 140 149 155 q 212 115 189 125 q 262 100 235 105 q 323 96 290 96 q 422 117 376 96 q 503 178 468 138 q 561 275 538 218 q 587 407 583 333 l 195 407 l 195 500 l 586 500 q 558 625 580 570 q 501 717 536 680 q 421 775 467 755 q 322 795 376 795 q 238 783 272 795 q 181 756 204 770 q 144 729 159 741 q 119 717 130 717 q 103 721 109 717 q 94 731 98 726 l 53 788 q 168 871 102 840 q 321 901 235 901 q 481 868 408 901 q 606 774 554 835 q 687 630 658 714 q 715 446 715 547 q 688 261 715 345 q 611 117 661 177 q 490 24 561 57 q 332 -9 419 -9 q 161 26 232 -9 q 41 125 90 61 l 90 178 q 108 186 98 186 z "},"Є":{"ha":760,"x_min":47,"x_max":731,"o":"m 665 186 q 683 178 675 186 l 731 125 q 610 26 682 61 q 437 -9 538 -9 q 276 24 348 -9 q 153 117 204 57 q 75 261 102 177 q 47 446 47 345 q 77 630 47 547 q 159 774 106 714 q 285 868 212 835 q 448 901 359 901 q 603 871 536 901 q 720 788 670 840 l 679 731 q 669 721 675 725 q 653 717 663 717 q 627 729 642 717 q 590 756 613 741 q 532 783 566 770 q 447 795 498 795 q 345 775 392 795 q 263 717 298 755 q 205 625 228 680 q 176 500 183 570 l 576 500 l 576 407 l 175 407 q 202 275 180 333 q 261 178 225 218 q 344 117 297 138 q 445 96 391 96 q 507 100 479 96 q 559 115 535 105 q 603 140 583 125 q 644 176 624 155 q 665 186 655 186 z "},"Ю":{"ha":1221,"x_min":92,"x_max":1185,"o":"m 215 494 l 412 494 q 449 659 418 584 q 529 788 479 734 q 647 871 578 842 q 798 901 715 901 q 957 868 886 901 q 1079 773 1029 834 q 1157 629 1130 713 q 1185 446 1185 545 q 1157 262 1185 345 q 1079 118 1130 178 q 957 25 1029 58 q 798 -9 886 -9 q 647 21 715 -9 q 529 104 578 50 q 449 232 479 157 q 412 397 418 307 l 215 397 l 215 0 l 92 0 l 92 891 l 215 891 l 215 494 m 798 94 q 906 119 858 94 q 988 189 954 143 q 1040 299 1022 234 q 1059 446 1059 364 q 1040 592 1059 527 q 988 703 1022 657 q 906 773 954 749 q 798 798 858 798 q 689 773 738 798 q 607 703 641 749 q 555 592 573 657 q 536 446 536 527 q 555 299 536 364 q 607 189 573 234 q 689 119 641 143 q 798 94 738 94 z "},"Я":{"ha":771,"x_min":12,"x_max":677,"o":"m 553 0 l 553 382 l 445 382 q 419 379 431 382 q 395 368 407 376 q 372 349 383 361 q 350 318 361 336 l 184 43 q 151 12 170 24 q 105 0 132 0 l 12 0 l 215 325 q 254 372 233 353 q 300 403 274 391 q 156 487 203 425 q 109 637 109 549 q 129 741 109 694 q 185 821 148 788 q 277 873 222 854 q 400 891 331 891 l 677 891 l 677 0 l 553 0 m 231 637 q 240 572 231 601 q 270 522 250 543 q 321 491 290 502 q 399 480 353 480 l 553 480 l 553 793 l 400 793 q 322 782 354 793 q 270 751 290 771 q 240 702 250 730 q 231 637 231 673 z "},"Ђ":{"ha":867,"x_min":16,"x_max":810,"o":"m 605 891 l 605 791 l 359 791 l 359 509 l 524 509 q 653 491 600 509 q 742 441 707 473 q 793 365 777 409 q 810 268 810 321 q 790 157 810 207 q 734 73 771 108 q 645 19 698 38 q 524 0 591 0 l 472 0 l 472 98 l 524 98 q 600 109 568 98 q 650 142 631 121 q 679 192 670 163 q 688 256 688 221 q 679 321 688 292 q 650 370 670 351 q 600 400 631 390 q 524 411 569 411 l 359 411 l 359 0 l 235 0 l 235 791 l 16 791 l 16 891 l 605 891 z "},"Ћ":{"ha":859,"x_min":16,"x_max":812,"o":"m 812 -1 l 688 -1 l 688 288 q 671 386 688 349 q 617 438 655 423 q 518 448 580 454 q 366 415 456 441 l 366 0 l 242 0 l 242 791 l 16 791 l 16 891 l 618 891 l 618 791 l 366 791 l 366 505 q 489 534 431 524 q 597 543 547 544 q 686 527 646 541 q 754 483 726 513 q 798 405 783 452 q 812 288 812 357 l 812 -1 z "},"Ѣ":{"ha":871,"x_min":36,"x_max":810,"o":"m 352 891 l 352 755 l 604 755 l 604 662 l 352 662 l 352 509 l 511 509 q 646 491 589 509 q 739 441 703 473 q 793 365 776 409 q 810 268 810 321 q 790 157 810 207 q 732 73 770 108 q 638 19 694 38 q 511 0 582 0 l 229 0 l 229 662 l 36 662 l 36 755 l 229 755 l 229 891 l 352 891 m 352 411 l 352 98 l 511 98 q 592 109 558 98 q 647 142 626 121 q 679 192 669 163 q 688 256 688 221 q 679 321 688 292 q 647 370 669 351 q 592 400 626 390 q 511 411 559 411 l 352 411 z "},"б":{"ha":740,"x_min":62,"x_max":690,"o":"m 420 817 q 309 788 355 812 q 233 725 263 764 q 187 629 202 685 q 169 505 172 574 q 209 560 185 535 q 264 603 233 585 q 333 630 296 621 q 410 640 370 640 q 527 616 475 640 q 615 550 579 593 q 671 448 652 508 q 690 315 690 389 q 668 181 690 241 q 604 79 646 121 q 505 14 563 37 q 376 -9 447 -9 q 252 13 309 -9 q 153 86 195 35 q 86 221 111 138 q 62 427 62 305 q 81 620 62 532 q 141 772 100 707 q 249 877 182 838 q 410 924 315 916 l 644 945 l 650 884 q 644 849 652 863 q 616 833 635 835 l 420 817 m 376 79 q 519 141 471 79 q 568 315 568 203 q 556 414 568 370 q 521 489 545 458 q 463 535 498 519 q 382 551 428 551 q 301 537 337 551 q 239 494 264 522 q 201 425 214 467 q 187 331 187 384 q 199 225 187 272 q 235 146 211 178 q 294 96 258 113 q 376 79 329 79 z "},"в":{"ha":665,"x_min":97,"x_max":607,"o":"m 97 663 l 343 663 q 449 651 405 663 q 522 617 494 639 q 564 567 551 596 q 577 505 577 538 q 571 460 577 484 q 550 415 565 437 q 510 376 536 393 q 446 349 485 358 q 565 296 522 336 q 607 192 607 257 q 587 108 607 144 q 533 48 567 72 q 453 12 499 24 q 355 0 407 0 l 97 0 l 97 663 m 211 302 l 211 83 l 355 83 q 414 91 387 83 q 458 113 440 98 q 487 149 477 128 q 497 196 497 170 q 490 238 497 219 q 466 272 483 258 q 422 294 449 286 q 355 302 395 302 l 211 302 m 211 377 l 339 377 q 393 385 368 377 q 435 408 418 393 q 463 443 453 422 q 473 488 473 464 q 466 524 473 507 q 444 554 459 541 q 402 576 428 568 q 340 584 377 584 l 211 584 l 211 377 z "},"г":{"ha":480,"x_min":81,"x_max":465,"o":"m 465 663 l 465 573 l 200 573 l 200 0 l 81 0 l 81 663 l 465 663 z "},"ґ":{"ha":492,"x_min":83,"x_max":476,"o":"m 476 827 l 476 573 l 203 573 l 203 0 l 83 0 l 83 663 l 368 663 l 368 827 l 476 827 z "},"д":{"ha":775,"x_min":20,"x_max":755,"o":"m 640 663 l 640 90 l 755 90 l 755 -191 q 746 -218 755 -209 q 720 -228 736 -228 l 647 -228 l 647 0 l 128 0 l 128 -194 q 120 -217 128 -207 q 96 -228 113 -228 l 20 -228 l 20 86 l 46 86 q 88 96 68 87 q 128 128 109 104 q 164 192 147 151 q 194 296 180 232 q 218 450 208 359 q 235 663 229 540 l 640 663 m 333 570 q 316 391 327 469 q 291 254 305 313 q 258 154 276 195 q 222 86 241 113 l 524 86 l 524 570 l 333 570 z "},"ж":{"ha":957,"x_min":18,"x_max":939,"o":"m 301 421 q 330 388 313 399 q 372 377 347 377 l 420 377 l 420 663 l 536 663 l 536 377 l 583 377 q 656 421 631 377 l 775 631 q 798 654 784 646 q 829 663 812 663 l 922 663 l 771 410 q 740 371 755 387 q 701 347 724 355 q 750 320 730 338 q 786 275 770 302 l 939 0 l 857 0 q 808 10 825 0 q 779 40 791 20 l 673 247 q 592 297 646 297 l 536 297 l 536 -1 l 420 -1 l 420 297 l 364 297 q 318 284 338 297 q 283 246 297 272 l 178 40 q 149 10 166 20 q 100 0 132 0 l 18 0 l 170 275 q 206 321 186 303 q 256 347 226 338 q 217 371 233 355 q 186 410 201 387 l 35 663 l 128 663 q 159 654 144 663 q 182 631 173 645 l 301 421 z "},"з":{"ha":587,"x_min":31,"x_max":530,"o":"m 45 595 q 137 652 83 630 q 266 673 191 673 q 373 659 327 673 q 451 620 419 644 q 498 564 482 595 q 514 500 514 533 q 508 459 514 480 q 487 417 501 437 q 450 381 473 397 q 393 353 427 364 q 493 292 456 334 q 530 190 530 251 q 508 107 530 144 q 451 44 487 70 q 369 4 416 18 q 271 -9 322 -9 q 205 -3 239 -9 q 140 15 172 3 q 80 47 109 28 q 31 93 52 66 l 64 136 q 87 148 74 148 q 112 138 99 148 q 145 115 125 127 q 193 93 165 103 q 262 83 221 83 q 327 92 298 83 q 375 116 355 100 q 405 153 395 132 q 416 199 416 174 q 375 278 416 248 q 251 307 334 307 l 176 307 l 176 387 l 251 387 q 316 394 288 387 q 365 415 345 401 q 395 446 385 428 q 406 486 406 464 q 397 523 406 505 q 370 553 388 540 q 325 574 352 566 q 262 581 298 581 q 197 573 224 581 q 151 556 170 566 q 120 540 132 547 q 100 532 109 532 q 85 535 91 532 q 73 549 80 538 l 45 595 z "},"и":{"ha":751,"x_min":94,"x_max":656,"o":"m 94 -1 l 94 663 l 214 663 l 214 215 q 212 187 214 202 q 209 157 211 172 q 221 181 214 170 q 233 201 227 192 q 248 222 234 203 q 283 272 262 241 q 333 341 305 302 q 389 420 361 380 q 542 633 456 515 q 560 654 549 644 q 585 663 571 663 l 656 663 l 656 0 l 537 0 l 537 448 q 538 474 537 460 q 541 504 539 489 q 530 480 536 491 q 518 461 524 470 q 503 440 517 460 q 468 391 490 421 q 418 321 446 360 q 361 243 390 283 q 209 30 294 149 q 191 9 202 19 q 166 -1 180 -1 l 94 -1 z "},"к":{"ha":644,"x_min":88,"x_max":631,"o":"m 463 631 q 488 654 473 644 q 520 663 503 663 l 614 663 l 457 410 q 425 371 441 387 q 385 347 409 355 q 436 321 416 338 q 473 275 456 303 l 631 0 l 549 0 q 499 11 516 0 q 469 41 481 21 l 355 247 q 272 297 328 297 l 208 297 l 208 -1 l 88 -1 l 88 663 l 208 663 l 208 377 l 263 377 q 307 388 289 377 q 338 421 325 399 l 463 631 z "},"л":{"ha":709,"x_min":8,"x_max":625,"o":"m 625 663 l 625 0 l 505 0 l 505 570 l 330 570 q 309 352 323 444 q 275 196 295 260 q 230 92 255 132 q 178 29 205 52 q 121 -1 151 7 q 62 -9 92 -9 q 8 9 8 -9 l 8 84 l 41 84 q 81 92 60 84 q 120 122 101 100 q 157 184 140 144 q 190 289 175 224 q 215 445 204 353 q 231 663 225 537 l 625 663 z "},"љ":{"ha":1043,"x_min":9,"x_max":1010,"o":"m 650 663 l 650 404 l 778 404 q 887 388 843 404 q 959 343 932 371 q 999 280 987 316 q 1010 205 1010 244 q 995 123 1010 161 q 951 58 980 85 q 879 15 922 31 q 780 0 836 0 l 530 0 l 530 570 l 342 570 q 320 352 335 444 q 284 196 305 260 q 238 92 264 132 q 184 29 212 52 q 125 -1 155 7 q 64 -9 94 -9 q 9 9 9 -9 l 9 84 l 42 84 q 84 92 63 84 q 126 122 106 100 q 165 184 146 144 q 199 289 184 224 q 226 445 215 353 q 243 663 237 537 l 650 663 m 650 317 l 650 87 l 779 87 q 834 96 810 87 q 873 120 858 104 q 896 157 888 136 q 904 204 904 178 q 897 248 904 227 q 876 284 890 269 q 837 308 861 299 q 778 317 812 317 l 650 317 z "},"м":{"ha":939,"x_min":97,"x_max":842,"o":"m 444 296 q 459 265 452 281 q 472 233 466 249 q 485 266 477 250 q 500 296 492 282 l 701 639 q 723 660 711 654 q 747 665 734 665 l 842 665 l 842 0 l 735 0 l 735 437 q 737 478 735 455 q 743 521 739 501 l 513 120 q 499 104 508 110 q 479 98 490 98 l 465 98 q 445 104 454 98 q 431 120 437 110 l 195 524 q 202 480 199 504 q 204 437 204 456 l 204 0 l 97 0 l 97 665 l 193 665 q 217 660 205 665 q 238 639 229 654 l 444 296 l 444 296 z "},"н":{"ha":743,"x_min":96,"x_max":647,"o":"m 647 663 l 647 0 l 528 0 l 528 309 l 215 309 l 215 0 l 96 0 l 96 663 l 215 663 l 215 399 l 528 399 l 528 663 l 647 663 z "},"њ":{"ha":1069,"x_min":96,"x_max":1034,"o":"m 650 663 l 650 404 l 789 404 q 904 388 857 404 q 980 343 951 371 q 1021 280 1008 316 q 1034 205 1034 244 q 1018 123 1034 161 q 971 58 1002 85 q 895 15 940 31 q 791 0 850 0 l 530 0 l 530 309 l 216 309 l 216 0 l 96 0 l 96 663 l 216 663 l 216 399 l 530 399 l 530 663 l 650 663 m 650 317 l 650 87 l 791 87 q 851 96 825 87 q 893 120 876 104 q 919 157 910 136 q 927 204 927 178 q 920 248 927 227 q 896 284 912 269 q 853 308 880 299 q 789 317 827 317 l 650 317 z "},"ѳ":{"ha":728,"x_min":50,"x_max":677,"o":"m 365 673 q 495 649 437 673 q 593 581 553 625 q 656 473 634 536 q 677 332 677 410 q 656 191 677 254 q 593 83 634 127 q 495 15 553 39 q 365 -9 437 -9 q 234 15 292 -9 q 135 83 176 39 q 72 191 94 127 q 50 332 50 254 q 72 473 50 410 q 135 581 94 536 q 234 649 176 625 q 365 673 292 673 m 365 80 q 503 136 454 80 q 560 296 553 192 l 167 296 q 224 136 174 192 q 365 80 275 80 m 365 585 q 226 530 276 585 q 168 374 176 475 l 559 374 q 501 530 551 475 q 365 585 452 585 z "},"п":{"ha":723,"x_min":92,"x_max":631,"o":"m 631 663 l 631 0 l 511 0 l 511 573 l 212 573 l 212 0 l 92 0 l 92 663 l 631 663 z "},"т":{"ha":538,"x_min":14,"x_max":524,"o":"m 14 663 l 524 663 l 524 573 l 329 573 l 329 0 l 210 0 l 210 573 l 14 573 l 14 663 z "},"ѵ":{"ha":663,"x_min":15,"x_max":671,"o":"m 15 663 l 113 663 q 136 656 127 663 q 149 639 146 648 l 304 215 q 332 118 322 166 q 343 165 337 142 q 359 214 350 189 l 471 554 q 498 613 483 590 q 531 648 513 635 q 570 666 549 661 q 614 671 591 671 q 642 669 631 671 q 660 664 653 667 q 668 658 666 661 q 671 652 671 655 l 671 586 l 652 586 q 606 574 624 586 q 576 534 587 562 l 383 0 l 276 0 l 15 663 z "},"ф":{"ha":867,"x_min":46,"x_max":821,"o":"m 490 938 l 490 673 q 627 643 566 669 q 731 573 688 618 q 797 468 774 529 q 821 332 821 407 q 797 196 821 257 q 731 90 774 134 q 627 21 688 46 q 490 -9 566 -5 l 490 -228 l 378 -228 l 378 -9 q 240 20 301 -5 q 136 90 179 45 q 69 196 92 134 q 46 332 46 257 q 69 469 46 408 q 136 574 92 530 q 240 643 179 618 q 378 673 301 669 l 378 938 l 490 938 m 165 332 q 221 153 165 219 q 380 81 276 87 l 381 83 l 381 584 q 289 562 329 581 q 221 511 249 543 q 180 433 194 478 q 165 332 165 387 m 701 332 q 687 433 701 387 q 645 511 673 478 q 578 562 618 543 q 486 584 538 581 l 486 85 l 486 81 q 646 153 591 87 q 701 332 701 219 z "},"ц":{"ha":752,"x_min":90,"x_max":732,"o":"m 90 663 l 209 663 l 209 90 l 498 90 l 498 663 l 617 663 l 617 90 l 732 90 l 732 -191 q 723 -218 732 -209 q 698 -228 713 -228 l 625 -228 l 625 0 l 90 0 l 90 663 z "},"џ":{"ha":729,"x_min":94,"x_max":635,"o":"m 94 663 l 213 663 l 213 90 l 516 90 l 516 663 l 635 663 l 635 0 l 418 0 l 418 -191 q 409 -218 418 -209 q 384 -228 399 -228 l 311 -228 l 311 0 l 94 0 l 94 663 z "},"ч":{"ha":651,"x_min":48,"x_max":560,"o":"m 560 0 l 441 0 l 441 280 q 287 253 359 258 q 162 265 216 248 q 79 326 109 282 q 48 444 48 369 l 48 663 l 168 663 l 168 462 q 185 387 168 414 q 237 349 203 359 q 322 343 271 338 q 441 363 374 347 l 441 663 l 560 663 l 560 0 z "},"ш":{"ha":1012,"x_min":87,"x_max":924,"o":"m 87 663 l 207 663 l 207 90 l 446 90 l 446 663 l 566 663 l 566 90 l 805 90 l 805 663 l 924 663 l 924 0 l 87 0 l 87 663 z "},"щ":{"ha":1040,"x_min":85,"x_max":1021,"o":"m 85 663 l 205 663 l 205 90 l 438 90 l 438 663 l 557 663 l 557 90 l 791 90 l 791 663 l 910 663 l 910 90 l 1021 90 l 1021 -191 q 1012 -218 1021 -209 q 987 -228 1002 -228 l 913 -228 l 913 0 l 85 0 l 85 663 z "},"ъ":{"ha":745,"x_min":5,"x_max":698,"o":"m 5 663 l 323 663 l 323 404 l 458 404 q 571 388 526 404 q 645 343 617 371 q 686 280 673 316 q 698 205 698 244 q 682 123 698 161 q 636 58 667 85 q 562 15 606 31 q 460 0 517 0 l 210 0 l 210 572 l 5 572 l 5 663 m 323 317 l 323 87 l 460 87 q 518 96 494 87 q 559 120 543 104 q 583 157 575 136 q 591 204 591 178 q 584 248 591 227 q 562 284 577 269 q 521 308 546 299 q 459 317 496 317 l 323 317 z "},"ы":{"ha":925,"x_min":90,"x_max":823,"o":"m 203 663 l 203 404 l 334 404 q 445 388 399 404 q 517 343 490 371 q 556 280 545 316 q 568 205 568 244 q 553 123 568 161 q 508 58 538 85 q 435 15 479 31 q 336 0 392 0 l 90 0 l 90 663 l 203 663 m 823 663 l 823 0 l 703 0 l 703 663 l 823 663 m 203 317 l 203 87 l 336 87 q 392 96 368 87 q 431 120 416 104 q 455 157 447 136 q 463 204 463 178 q 456 248 463 227 q 434 284 449 269 q 394 308 418 299 q 334 317 370 317 l 203 317 z "},"ь":{"ha":652,"x_min":101,"x_max":615,"o":"m 215 663 l 215 404 l 361 404 q 481 388 433 404 q 560 343 530 371 q 602 280 589 316 q 615 205 615 244 q 599 123 615 161 q 551 58 583 85 q 472 15 519 31 q 364 0 425 0 l 101 0 l 101 663 l 215 663 m 215 317 l 215 87 l 364 87 q 428 96 401 87 q 473 120 455 104 q 500 157 491 136 q 509 204 509 178 q 501 248 509 227 q 476 284 493 269 q 431 308 458 299 q 362 317 403 317 l 215 317 z "},"э":{"ha":615,"x_min":38,"x_max":566,"o":"m 45 587 q 139 651 86 628 q 260 673 191 673 q 391 648 334 673 q 487 577 448 623 q 546 469 526 532 q 566 332 566 406 q 544 188 566 251 q 483 80 522 124 q 393 14 445 37 q 279 -9 340 -9 q 146 15 210 -9 q 38 93 82 39 l 71 133 q 93 144 79 144 q 117 135 104 144 q 146 114 129 125 q 191 92 164 102 q 258 83 218 83 q 331 97 298 83 q 388 139 363 111 q 427 206 412 166 q 446 298 442 246 l 143 298 l 143 380 l 445 380 q 386 528 435 474 q 253 581 336 581 q 193 574 217 581 q 151 557 168 566 q 123 541 134 548 q 101 533 111 533 q 86 537 92 533 q 75 548 81 541 l 45 587 z "},"є":{"ha":616,"x_min":50,"x_max":587,"o":"m 549 548 q 538 537 544 541 q 524 533 533 533 q 502 541 513 533 q 472 557 490 548 q 430 574 455 566 q 368 581 405 581 q 232 528 282 581 q 171 380 181 474 l 480 380 l 480 298 l 170 298 q 190 206 174 246 q 230 139 205 166 q 289 97 255 111 q 363 83 322 83 q 432 92 404 83 q 477 114 459 102 q 508 135 496 125 q 532 144 520 144 q 545 141 540 144 q 555 133 551 138 l 587 93 q 478 15 543 39 q 342 -9 414 -9 q 227 14 280 -9 q 134 80 174 37 q 73 188 95 124 q 50 332 50 251 q 71 469 50 406 q 131 577 91 532 q 228 648 170 623 q 361 673 286 673 q 485 651 431 673 q 579 587 538 628 l 549 548 z "},"ю":{"ha":1002,"x_min":93,"x_max":954,"o":"m 212 663 l 212 378 l 365 378 q 393 500 371 446 q 453 594 416 555 q 542 653 491 632 q 656 673 593 673 q 779 649 724 673 q 873 581 834 625 q 932 473 911 536 q 954 332 954 410 q 932 191 954 254 q 872 83 911 127 q 778 15 833 39 q 656 -9 723 -9 q 540 12 592 -9 q 451 72 488 33 q 392 166 414 111 q 365 292 370 222 l 212 292 l 212 0 l 93 0 l 93 663 l 212 663 m 656 83 q 733 100 701 83 q 787 149 766 117 q 820 227 809 180 q 830 332 830 273 q 820 437 830 391 q 787 515 809 483 q 733 564 766 547 q 656 581 701 581 q 580 564 612 581 q 526 515 547 547 q 493 437 504 483 q 483 332 483 391 q 493 227 483 273 q 526 149 504 180 q 580 100 547 117 q 656 83 612 83 z "},"я":{"ha":659,"x_min":26,"x_max":564,"o":"m 564 0 l 450 0 l 450 279 l 402 279 q 372 276 385 279 q 352 268 360 273 q 336 254 343 262 q 323 235 330 245 l 185 40 q 172 23 178 31 q 156 11 165 16 q 136 3 147 5 q 109 0 124 0 l 26 0 l 210 252 q 277 302 237 289 q 193 326 227 309 q 137 366 159 342 q 106 417 116 389 q 96 474 96 445 q 110 543 96 509 q 152 603 123 576 q 228 647 181 630 q 340 663 274 663 l 564 663 l 564 0 m 215 468 q 253 385 215 414 q 356 355 291 355 l 450 355 l 450 584 l 343 584 q 282 573 307 584 q 243 546 258 562 q 221 508 228 529 q 215 468 215 488 z "},"ђ":{"ha":751,"x_min":-16,"x_max":675,"o":"m -16 810 l 104 810 l 104 964 l 223 964 l 223 810 l 456 810 l 456 719 l 223 719 l 223 519 q 318 590 266 563 q 439 618 371 618 q 543 598 498 618 q 616 542 587 579 q 660 451 646 505 q 675 327 675 397 q 630 44 675 180 q 504 -217 585 -92 l 408 -179 q 470 -61 443 -120 q 517 59 498 -3 q 546 187 536 121 q 555 327 555 254 q 515 475 555 427 q 404 524 474 524 q 307 499 352 524 q 223 431 262 474 l 223 0 l 104 0 l 104 719 l -16 719 l -16 810 z "},"ѣ":{"ha":721,"x_min":20,"x_max":687,"o":"m 301 848 l 301 663 l 507 663 l 507 571 l 301 571 l 301 404 l 448 404 q 561 388 515 404 q 634 343 606 371 q 675 280 663 316 q 687 205 687 244 q 671 123 687 161 q 626 58 656 85 q 552 15 596 31 q 450 0 507 0 l 188 0 l 188 571 l 20 571 l 20 663 l 188 663 l 188 848 l 301 848 m 301 317 l 301 87 l 450 87 q 507 96 483 87 q 548 120 532 104 q 572 157 564 136 q 581 204 581 178 q 573 248 581 227 q 551 284 566 269 q 510 308 535 299 q 448 317 485 317 l 301 317 z "},"!":{"ha":452,"x_min":143,"x_max":309,"o":"m 285 938 l 285 564 q 284 506 285 534 q 281 450 283 478 q 276 391 279 421 q 269 328 273 361 l 188 328 q 181 391 184 361 q 176 450 178 421 q 172 506 174 478 q 171 564 171 534 l 171 938 l 285 938 m 143 73 q 150 105 143 90 q 167 132 156 120 q 194 150 178 143 q 227 156 209 156 q 259 150 243 156 q 285 132 274 143 q 303 105 296 120 q 309 73 309 90 q 303 40 309 55 q 285 14 296 25 q 259 -3 274 3 q 227 -9 243 -9 q 194 -3 209 -9 q 167 14 178 3 q 150 40 156 25 q 143 73 143 55 z "},"?":{"ha":644,"x_min":83,"x_max":561,"o":"m 83 854 q 129 890 104 873 q 182 920 153 907 q 245 941 212 933 q 319 949 279 949 q 415 934 371 949 q 492 891 460 919 q 543 824 524 863 q 561 736 561 785 q 546 650 561 686 q 509 587 531 614 q 459 539 486 559 q 409 502 433 519 q 369 467 386 484 q 350 428 353 450 l 338 328 l 256 328 l 248 436 q 259 488 245 465 q 296 529 273 510 q 345 567 318 549 q 395 609 372 586 q 434 660 418 631 q 450 729 450 689 q 439 780 450 758 q 409 818 428 802 q 363 843 389 834 q 309 851 338 851 q 240 842 269 851 q 193 820 212 832 q 161 799 173 808 q 140 789 149 789 q 115 804 124 789 l 83 854 m 200 73 q 207 105 200 90 q 224 132 213 120 q 251 150 235 143 q 283 156 266 156 q 316 150 300 156 q 342 132 331 143 q 360 105 353 120 q 366 73 366 90 q 360 40 366 55 q 342 14 353 25 q 316 -3 331 3 q 283 -9 300 -9 q 251 -3 266 -9 q 224 14 235 3 q 207 40 213 25 q 200 73 200 55 z "},"‽":{"ha":671,"x_min":83,"x_max":607,"o":"m 275 920 q 322 932 295 928 q 378 936 349 936 q 470 923 428 936 q 543 885 512 910 q 590 823 573 860 q 607 739 607 786 q 588 651 607 686 q 540 590 569 615 q 478 547 511 565 q 415 511 444 528 q 367 474 387 494 q 346 427 347 454 l 342 315 l 268 315 q 233 416 250 363 q 201 519 216 468 l 83 923 l 193 951 l 283 604 q 292 569 287 591 q 302 519 297 546 q 338 555 318 539 q 380 586 359 571 q 423 614 402 600 q 460 645 444 628 q 487 681 477 661 q 497 727 497 701 q 488 770 497 750 q 463 806 479 791 q 424 829 447 821 q 371 838 400 838 q 338 835 352 838 q 319 832 324 832 q 299 837 305 832 q 290 852 292 842 l 275 920 m 227 73 q 234 105 227 90 q 251 132 240 120 q 278 150 262 143 q 311 156 293 156 q 343 150 328 156 q 369 132 358 143 q 387 105 380 120 q 393 73 393 90 q 387 40 393 55 q 369 14 380 25 q 343 -3 358 3 q 311 -9 328 -9 q 278 -3 293 -9 q 251 14 262 3 q 234 40 240 25 q 227 73 227 55 z "},",":{"ha":347,"x_min":95,"x_max":255,"o":"m 95 81 q 101 110 95 96 q 117 134 106 123 q 141 150 127 144 q 174 156 156 156 q 209 149 194 156 q 235 129 224 141 q 250 99 245 116 q 255 62 255 81 q 247 1 255 33 q 222 -62 238 -31 q 183 -123 206 -94 q 130 -178 160 -153 l 110 -159 q 101 -140 101 -151 q 111 -122 101 -132 q 127 -103 117 -115 q 148 -75 137 -91 q 167 -41 158 -60 q 180 0 176 -22 l 172 0 q 116 23 138 0 q 95 81 95 46 z "},";":{"ha":372,"x_min":101,"x_max":269,"o":"m 101 0 m 105 81 q 111 110 105 96 q 127 134 117 123 q 152 150 137 144 q 184 156 166 156 q 219 149 204 156 q 245 129 235 141 q 260 99 255 116 q 265 62 265 81 q 257 1 265 33 q 232 -62 248 -31 q 193 -123 216 -94 q 140 -178 170 -153 l 120 -159 q 111 -140 111 -151 q 121 -122 111 -132 q 137 -103 127 -115 q 158 -75 147 -91 q 177 -41 168 -60 q 190 0 186 -22 l 182 0 q 126 23 148 0 q 105 81 105 46 m 269 532 q 262 500 269 515 q 243 474 255 485 q 216 456 231 463 q 184 449 201 449 q 152 456 167 449 q 126 474 137 463 q 108 500 115 485 q 101 532 101 515 q 108 565 101 550 q 126 592 115 581 q 152 610 137 604 q 184 617 167 617 q 216 610 201 617 q 243 592 231 604 q 262 565 255 581 q 269 532 269 550 z "},":":{"ha":372,"x_min":97,"x_max":269,"o":"m 97 0 m 269 73 q 262 40 269 56 q 243 14 255 25 q 216 -4 231 3 q 184 -11 201 -11 q 152 -4 167 -11 q 126 14 137 3 q 108 40 115 25 q 101 73 101 56 q 108 105 101 90 q 126 132 115 121 q 152 151 137 144 q 184 157 167 157 q 216 151 201 157 q 243 132 231 144 q 262 105 255 121 q 269 73 269 90 m 264 532 q 258 500 264 515 q 239 474 251 485 q 212 456 227 463 q 180 449 197 449 q 148 456 163 449 q 122 474 133 463 q 104 500 111 485 q 97 532 97 515 q 104 565 97 550 q 122 592 111 581 q 148 610 133 604 q 180 617 163 617 q 212 610 197 617 q 239 592 227 604 q 258 565 251 581 q 264 532 264 550 z "},".":{"ha":351,"x_min":91,"x_max":258,"o":"m 91 0 m 258 73 q 252 40 258 56 q 233 14 245 25 q 206 -4 221 3 q 174 -11 191 -11 q 142 -4 157 -11 q 116 14 127 3 q 98 40 104 25 q 91 73 91 56 q 98 105 91 90 q 116 132 104 121 q 142 151 127 144 q 174 157 157 157 q 206 151 191 157 q 233 132 221 144 q 252 105 245 121 q 258 73 258 90 z "},"…":{"ha":959,"x_min":47,"x_max":911,"o":"m 47 0 m 214 73 q 208 40 214 56 q 189 14 201 25 q 162 -4 177 3 q 130 -11 146 -11 q 98 -4 113 -11 q 72 14 83 3 q 54 40 60 25 q 47 73 47 56 q 54 105 47 90 q 72 132 60 121 q 98 151 83 144 q 130 157 113 157 q 162 151 146 157 q 189 132 177 144 q 208 105 201 121 q 214 73 214 90 m 557 73 q 551 40 557 56 q 532 14 544 25 q 505 -4 520 3 q 473 -11 490 -11 q 441 -4 456 -11 q 415 14 426 3 q 397 40 404 25 q 390 73 390 56 q 397 105 390 90 q 415 132 404 121 q 441 151 426 144 q 473 157 456 157 q 505 151 490 157 q 532 132 520 144 q 551 105 544 121 q 557 73 557 90 m 911 73 q 904 40 911 56 q 885 14 897 25 q 858 -4 873 3 q 826 -11 843 -11 q 794 -4 809 -11 q 768 14 779 3 q 750 40 757 25 q 743 73 743 56 q 750 105 743 90 q 768 132 757 121 q 794 151 779 144 q 826 157 809 157 q 858 151 843 157 q 885 132 873 144 q 904 105 897 121 q 911 73 911 90 z "},"‘":{"ha":347,"x_min":111,"x_max":266,"o":"m 159 621 q 121 720 131 668 q 119 822 111 771 q 152 919 127 872 q 219 1002 177 965 l 256 979 q 264 963 266 972 q 258 947 263 954 q 229 897 241 927 q 213 833 216 867 q 216 762 210 799 q 243 691 223 726 q 249 666 252 677 q 232 650 245 654 l 159 621 z "},"’":{"ha":347,"x_min":102,"x_max":256,"o":"m 208 979 q 246 881 236 932 q 248 779 256 829 q 215 682 240 728 q 149 599 190 635 l 112 622 q 103 637 102 628 q 109 653 104 647 q 138 703 126 673 q 154 767 151 733 q 151 838 157 802 q 123 909 144 875 q 118 935 115 924 q 135 950 122 945 l 208 979 z "},"“":{"ha":581,"x_min":124,"x_max":500,"o":"m 124 621 m 172 621 q 134 720 144 668 q 132 822 124 771 q 165 919 140 872 q 232 1002 190 965 l 269 979 q 277 963 279 972 q 271 947 276 954 q 241 897 254 927 q 226 833 229 867 q 229 762 222 799 q 256 691 236 726 q 261 666 265 677 q 245 650 258 654 l 172 621 m 393 621 q 356 720 366 668 q 354 822 346 771 q 387 919 361 872 q 454 1002 412 965 l 490 979 q 499 963 500 972 q 492 947 498 954 q 463 897 475 927 q 448 833 451 867 q 451 762 444 799 q 478 691 458 726 q 483 666 487 677 q 467 650 479 654 l 393 621 z "},"”":{"ha":581,"x_min":114,"x_max":490,"o":"m 114 599 m 220 979 q 258 881 248 932 q 260 779 268 829 q 227 682 252 728 q 161 599 202 635 l 124 622 q 115 637 114 628 q 121 653 116 647 q 151 703 138 673 q 166 767 163 733 q 163 838 170 802 q 136 909 156 875 q 131 935 127 924 q 147 950 134 945 l 220 979 m 442 979 q 480 881 470 932 q 482 779 490 829 q 449 682 474 728 q 382 599 424 635 l 346 622 q 337 637 336 628 q 343 653 338 647 q 372 703 360 673 q 388 767 385 733 q 385 838 391 802 q 357 909 378 875 q 352 935 349 924 q 369 950 356 945 l 442 979 z "},"‚":{"ha":347,"x_min":102,"x_max":256,"o":"m 102 0 m 208 172 q 246 74 236 125 q 248 -28 256 22 q 215 -125 240 -79 q 149 -208 190 -172 l 112 -185 q 103 -170 102 -179 q 109 -154 104 -160 q 138 -104 126 -134 q 154 -40 151 -74 q 151 31 157 -5 q 123 102 144 68 q 118 127 115 117 q 135 143 122 138 l 208 172 z "},"„":{"ha":581,"x_min":114,"x_max":490,"o":"m 114 0 m 220 172 q 258 74 248 125 q 260 -28 268 22 q 227 -125 252 -79 q 161 -208 202 -172 l 124 -185 q 115 -170 114 -179 q 121 -154 116 -160 q 151 -104 138 -134 q 166 -40 163 -74 q 163 31 170 -5 q 136 102 156 68 q 131 127 127 117 q 147 143 134 138 l 220 172 m 443 172 q 480 74 471 125 q 483 -28 490 22 q 450 -125 475 -79 q 383 -208 425 -172 l 347 -185 q 337 -170 336 -179 q 344 -154 338 -160 q 373 -104 361 -134 q 389 -40 385 -74 q 385 31 392 -5 q 358 102 378 68 q 353 127 349 117 q 370 143 357 138 l 443 172 z "},"‹":{"ha":471,"x_min":118,"x_max":342,"o":"m 118 339 l 118 355 l 281 609 l 320 591 q 339 570 336 583 q 332 541 342 557 l 229 370 q 211 347 221 355 q 229 323 220 338 l 332 153 q 338 124 341 137 q 320 103 336 111 l 281 85 l 118 339 z "},"›":{"ha":471,"x_min":129,"x_max":353,"o":"m 353 355 l 353 339 l 189 85 l 151 103 q 132 124 135 111 q 138 153 129 137 l 241 323 q 260 347 251 339 q 242 370 251 355 l 139 541 q 132 570 130 557 q 151 591 135 583 l 189 609 l 353 355 z "},"«":{"ha":711,"x_min":142,"x_max":587,"o":"m 142 85 m 142 339 l 142 355 l 306 609 l 345 591 q 363 570 360 583 q 357 541 366 557 l 254 370 q 235 347 245 355 q 254 323 245 338 l 356 153 q 363 124 366 137 q 345 103 360 111 l 306 85 l 142 339 m 363 339 l 363 355 l 526 609 l 565 591 q 584 570 581 583 q 577 541 587 557 l 474 370 q 456 347 466 355 q 474 323 465 338 l 576 153 q 583 124 586 137 q 565 103 581 111 l 526 85 l 363 339 z "},"»":{"ha":711,"x_min":153,"x_max":597,"o":"m 153 85 m 377 355 l 377 339 l 214 85 l 175 103 q 156 124 159 111 q 163 153 153 137 l 266 323 q 284 347 275 339 q 267 370 275 355 l 163 541 q 157 570 154 557 q 175 591 159 583 l 214 609 l 377 355 m 597 355 l 597 339 l 434 85 l 395 103 q 377 124 380 111 q 383 153 374 137 l 486 323 q 505 347 496 339 q 487 370 496 355 l 384 541 q 377 570 374 557 q 395 591 380 583 l 434 609 l 597 355 z "},"/":{"ha":536,"x_min":-8,"x_max":543,"o":"m 108 -14 q 80 -48 98 -37 q 42 -59 62 -59 l -8 -59 l 430 921 q 492 964 447 964 l 543 964 l 108 -14 z "},"|":{"ha":640,"x_min":273,"x_max":366,"o":"m 273 1004 l 366 1004 l 366 -229 l 273 -229 l 273 1004 z "},"¦":{"ha":692,"x_min":299,"x_max":393,"o":"m 299 1004 l 393 1004 l 393 484 l 299 484 l 299 1004 m 299 296 l 393 296 l 393 -224 l 299 -224 l 299 296 z "},"\\":{"ha":536,"x_min":-12,"x_max":535,"o":"m -12 964 l 39 964 q 77 953 61 964 q 102 921 94 942 l 535 -59 l 486 -59 q 448 -48 467 -59 q 420 -14 429 -37 l -12 964 z "},"-":{"ha":425,"x_min":51,"x_max":375,"o":"m 51 443 l 375 443 l 375 342 l 51 342 l 51 443 z "},"–":{"ha":692,"x_min":98,"x_max":594,"o":"m 98 430 l 594 430 l 594 343 l 98 343 l 98 430 z "},"—":{"ha":1257,"x_min":119,"x_max":1139,"o":"m 119 430 l 1139 430 l 1139 343 l 119 343 l 119 430 z "},"_":{"ha":692,"x_min":0,"x_max":692,"o":"m 692 -107 l 692 -186 l 0 -186 l 0 -107 l 692 -107 z "},"•":{"ha":692,"x_min":100,"x_max":591,"o":"m 100 389 q 120 485 100 440 q 172 564 139 530 q 250 616 205 597 q 345 635 294 635 q 440 616 395 635 q 518 564 485 597 q 571 485 552 530 q 591 389 591 440 q 571 294 591 339 q 518 216 552 250 q 440 164 485 183 q 345 144 395 144 q 250 164 294 144 q 172 216 205 183 q 120 294 139 250 q 100 389 100 339 z "},"·":{"ha":351,"x_min":77,"x_max":274,"o":"m 77 389 q 84 428 77 410 q 105 459 92 446 q 137 480 119 473 q 175 488 155 488 q 214 480 195 488 q 245 459 232 473 q 266 428 258 446 q 274 389 274 410 q 266 350 274 368 q 245 319 258 332 q 214 298 232 306 q 175 290 195 290 q 137 298 155 290 q 105 319 119 306 q 84 350 92 332 q 77 389 77 368 z "},"(":{"ha":421,"x_min":102,"x_max":355,"o":"m 205 412 q 241 139 205 271 q 345 -112 277 7 q 350 -143 355 -132 q 334 -160 345 -154 l 281 -193 q 198 -43 233 -117 q 143 105 164 31 q 112 256 121 180 q 102 412 102 332 q 112 567 102 491 q 143 718 121 643 q 198 866 164 792 q 281 1015 233 940 l 334 983 q 350 965 345 977 q 345 935 355 954 q 241 683 277 815 q 205 412 205 551 z "},")":{"ha":421,"x_min":69,"x_max":319,"o":"m 216 412 q 180 683 216 551 q 77 935 144 815 q 70 952 71 945 q 71 966 69 960 q 77 976 73 972 q 87 983 81 980 l 140 1016 q 223 866 189 940 q 278 718 257 792 q 310 567 300 643 q 319 412 319 491 q 310 256 319 332 q 278 105 300 180 q 223 -43 257 31 q 140 -193 189 -117 l 87 -160 q 77 -153 81 -157 q 71 -143 73 -149 q 70 -130 69 -137 q 77 -112 71 -122 q 180 139 144 7 q 216 412 216 271 z "},"[":{"ha":426,"x_min":109,"x_max":351,"o":"m 109 -189 l 109 1004 l 351 1004 l 351 958 q 342 935 351 944 q 319 926 334 926 l 208 926 l 208 -111 l 319 -111 q 342 -120 334 -111 q 351 -143 351 -130 l 351 -189 l 109 -189 z "},"]":{"ha":426,"x_min":75,"x_max":317,"o":"m 75 1004 l 317 1004 l 317 -189 l 75 -189 l 75 -143 q 84 -120 75 -130 q 108 -111 93 -111 l 218 -111 l 218 926 l 108 926 q 84 935 93 926 q 75 958 75 944 l 75 1004 z "},"{":{"ha":437,"x_min":50,"x_max":358,"o":"m 139 277 q 116 346 139 319 q 50 372 94 372 l 50 443 q 116 469 94 443 q 139 536 139 495 q 134 602 139 570 q 122 666 129 634 q 111 730 116 698 q 106 797 106 763 q 119 880 106 842 q 160 946 133 918 q 228 988 188 973 q 323 1004 269 1004 l 358 1004 l 358 951 q 349 931 358 937 q 332 926 339 926 l 319 926 q 239 893 268 926 q 210 804 210 860 q 215 733 210 767 q 225 667 220 699 q 235 603 231 634 q 240 538 240 571 q 233 493 240 514 q 212 454 225 471 q 181 425 199 437 q 142 407 163 413 q 181 389 163 401 q 212 360 199 377 q 233 321 225 342 q 240 276 240 300 q 235 212 240 243 q 225 147 231 180 q 215 81 220 115 q 210 10 210 47 q 239 -78 210 -45 q 319 -111 268 -111 l 332 -111 q 349 -117 339 -111 q 358 -136 358 -123 l 358 -189 l 323 -189 q 228 -174 269 -189 q 160 -131 188 -159 q 119 -66 133 -104 q 106 18 106 -28 q 111 84 106 52 q 122 149 116 117 q 134 213 129 180 q 139 277 139 245 z "},"}":{"ha":437,"x_min":79,"x_max":387,"o":"m 298 277 q 303 213 298 245 q 315 149 309 180 q 326 84 321 117 q 331 18 331 52 q 317 -66 331 -28 q 277 -131 304 -104 q 209 -174 250 -159 q 114 -189 168 -189 l 79 -189 l 79 -136 q 88 -117 79 -123 q 105 -111 98 -111 l 118 -111 q 198 -78 169 -111 q 227 10 227 -45 q 222 81 227 47 q 212 147 217 115 q 201 212 206 180 q 197 276 197 243 q 204 321 197 300 q 225 360 212 342 q 256 389 238 377 q 296 407 274 401 q 256 425 274 413 q 225 454 238 437 q 204 493 212 471 q 197 538 197 514 q 201 603 197 571 q 212 667 206 634 q 222 733 217 699 q 227 804 227 767 q 198 893 227 860 q 118 926 169 926 l 105 926 q 88 931 98 926 q 79 951 79 937 l 79 1004 l 114 1004 q 209 988 168 1004 q 277 946 250 973 q 317 880 304 918 q 331 797 331 842 q 326 730 331 763 q 315 666 321 698 q 303 602 309 634 q 298 536 298 570 q 321 469 298 495 q 387 443 343 443 l 387 372 q 321 346 343 372 q 298 277 298 319 z "},"*":{"ha":692,"x_min":147,"x_max":543,"o":"m 315 564 l 315 692 q 317 716 315 705 q 323 737 319 727 q 308 721 317 728 q 289 709 300 715 l 177 644 l 148 694 l 260 759 q 282 769 271 766 q 305 774 294 773 q 260 791 283 777 l 147 857 l 176 907 l 289 842 q 326 807 312 828 q 315 857 315 829 l 315 986 l 374 986 l 374 858 q 373 833 374 844 q 366 811 371 822 q 402 842 380 828 l 514 907 l 543 857 l 431 791 q 409 780 420 785 q 387 774 399 776 q 409 769 399 773 q 431 759 420 766 l 543 693 l 515 643 l 402 709 q 381 723 391 715 q 365 739 372 730 q 374 693 374 717 l 374 564 l 315 564 z "},"†":{"ha":692,"x_min":64,"x_max":629,"o":"m 64 601 q 77 637 64 621 q 120 653 91 653 q 207 644 160 652 q 300 631 254 635 l 284 950 q 313 962 298 958 q 347 966 329 966 q 380 962 364 966 q 408 950 395 958 l 393 631 q 486 644 439 635 q 573 653 532 653 q 615 637 602 653 q 629 601 629 621 l 629 561 l 393 561 l 393 290 l 408 -219 q 380 -231 395 -227 q 347 -235 364 -235 q 313 -231 329 -235 q 284 -219 298 -227 l 300 290 l 300 561 l 64 561 l 64 601 z "},"‡":{"ha":692,"x_min":64,"x_max":629,"o":"m 64 601 q 77 637 64 621 q 120 653 91 653 q 207 644 160 652 q 300 631 254 635 l 284 950 q 313 962 298 958 q 347 966 329 966 q 380 962 364 966 q 408 950 395 958 l 393 631 q 486 644 439 635 q 573 653 532 653 q 615 637 602 653 q 629 601 629 621 l 629 561 l 393 561 l 393 170 l 629 170 l 629 130 q 615 94 629 110 q 573 78 602 78 q 486 87 532 79 q 393 100 439 95 l 408 -219 q 380 -231 395 -227 q 347 -235 364 -235 q 313 -231 329 -235 q 284 -219 298 -227 l 300 100 q 207 86 254 95 q 120 78 160 78 q 77 94 91 78 q 64 130 64 110 l 64 170 l 300 170 l 300 561 l 64 561 l 64 601 z "},"§":{"ha":692,"x_min":80,"x_max":621,"o":"m 562 827 q 537 812 554 812 q 514 820 527 812 q 482 836 501 827 q 437 852 463 844 q 374 859 411 859 q 314 851 340 859 q 269 830 288 844 q 241 799 251 817 q 232 760 232 781 q 249 717 232 736 q 293 683 265 699 q 355 653 320 667 q 426 624 390 640 q 497 591 463 609 q 560 550 532 574 q 604 497 587 527 q 621 427 621 467 q 594 332 621 374 q 510 265 568 290 q 565 209 544 241 q 586 132 586 177 q 569 47 586 86 q 518 -21 551 8 q 436 -66 485 -50 q 324 -82 387 -82 q 193 -59 252 -82 q 93 -1 134 -37 l 121 44 q 153 62 131 62 q 178 53 165 62 q 212 33 192 43 q 261 13 232 22 q 334 3 290 3 q 443 34 405 3 q 481 113 481 64 q 464 163 481 142 q 419 201 447 184 q 354 232 391 218 q 280 260 318 245 q 207 291 243 274 q 143 331 171 308 q 97 384 115 354 q 80 456 80 414 q 110 549 80 508 q 203 613 139 589 q 148 672 169 637 q 126 755 126 706 q 142 828 126 793 q 190 890 159 863 q 268 932 222 916 q 372 947 313 947 q 495 927 440 947 q 589 870 549 907 l 562 827 m 186 475 q 197 435 186 452 q 227 403 208 418 q 272 376 246 389 q 326 352 297 364 q 385 329 355 340 q 444 303 415 317 q 499 345 483 320 q 515 400 515 370 q 493 459 515 435 q 434 503 470 484 q 355 538 399 522 q 271 574 312 554 q 205 530 224 554 q 186 475 186 506 z "},"¶":{"ha":814,"x_min":24,"x_max":793,"o":"m 793 938 l 793 837 l 663 837 l 663 -132 l 557 -132 l 557 837 l 399 837 l 399 -132 l 294 -132 l 294 431 q 182 451 232 431 q 97 506 132 471 q 43 587 62 541 q 24 686 24 633 q 43 789 24 743 q 97 868 62 836 q 182 920 132 901 q 294 938 232 938 l 793 938 z "},"^":{"ha":692,"x_min":52,"x_max":640,"o":"m 640 455 l 553 455 q 534 461 542 455 q 521 477 526 467 l 372 766 q 345 830 355 799 q 334 799 340 814 q 319 767 328 784 l 177 477 q 164 461 172 468 q 142 455 156 455 l 52 455 l 306 938 l 382 938 l 640 455 z "},"~":{"ha":692,"x_min":42,"x_max":650,"o":"m 463 402 q 529 430 506 402 q 553 503 553 457 l 650 503 q 637 422 650 459 q 603 359 625 385 q 547 318 580 332 q 471 303 513 303 q 403 314 436 303 q 339 337 370 325 q 280 361 308 350 q 229 372 252 372 q 162 344 186 372 q 138 271 139 317 l 42 271 q 54 351 42 315 q 89 414 66 388 q 145 455 112 441 q 221 470 178 470 q 289 459 256 470 q 353 436 322 449 q 412 413 384 423 q 463 402 439 402 z "},"'":{"ha":307,"x_min":102,"x_max":205,"o":"m 205 938 l 205 748 l 193 647 q 182 614 191 626 q 153 602 174 602 q 125 614 135 602 q 113 647 115 625 l 102 748 l 102 938 l 205 938 z "},"\"":{"ha":557,"x_min":121,"x_max":470,"o":"m 121 602 m 224 938 l 224 748 l 212 647 q 201 614 210 626 q 172 602 193 602 q 144 614 154 602 q 132 647 134 625 l 121 748 l 121 938 l 224 938 m 470 938 l 470 748 l 458 647 q 448 614 456 626 q 418 602 439 602 q 390 614 400 602 q 378 647 380 625 l 367 748 l 367 938 l 470 938 z "},"&":{"ha":947,"x_min":56,"x_max":943,"o":"m 445 949 q 542 932 498 949 q 618 888 586 916 q 668 824 650 860 q 689 748 687 787 l 615 733 q 595 736 604 731 q 583 753 587 741 q 567 789 577 770 q 540 822 557 807 q 499 847 523 837 q 445 857 476 857 q 384 846 411 857 q 338 817 357 836 q 308 773 319 798 q 298 719 298 748 q 320 633 298 674 q 394 543 343 592 l 671 268 q 713 361 698 313 q 734 458 728 409 q 761 485 736 485 l 833 485 q 809 336 833 409 q 741 199 785 263 l 943 0 l 828 0 q 797 5 808 0 q 770 24 785 9 l 672 119 q 526 25 609 60 q 345 -10 444 -10 q 239 7 291 -10 q 146 59 187 25 q 81 141 106 92 q 56 250 56 189 q 72 337 56 296 q 116 412 88 378 q 182 475 144 447 q 267 522 221 503 q 206 620 225 572 q 186 718 186 667 q 204 808 186 766 q 256 881 222 850 q 337 931 290 913 q 445 949 385 949 m 365 86 q 500 113 440 86 q 606 184 560 140 l 321 462 q 214 373 250 425 q 178 260 178 321 q 194 185 178 218 q 237 131 210 153 q 297 98 263 109 q 365 86 330 86 z "},"@":{"ha":1242,"x_min":138,"x_max":1107,"o":"m 846 121 q 764 146 796 121 q 722 221 732 170 q 640 146 684 169 q 545 123 595 123 q 477 137 506 123 q 428 174 448 151 q 399 231 409 198 q 390 302 390 264 q 399 377 390 339 q 428 450 409 415 q 474 516 446 486 q 539 570 503 547 q 623 606 576 593 q 724 619 669 619 q 801 612 768 619 q 864 592 834 606 l 803 356 q 790 276 790 307 q 800 227 791 245 q 827 203 810 210 q 864 197 844 197 q 924 215 895 197 q 974 267 953 233 q 1008 347 996 300 q 1021 450 1021 393 q 992 608 1021 541 q 913 721 964 676 q 794 789 863 766 q 645 812 725 812 q 481 779 557 812 q 348 686 405 745 q 258 547 291 627 q 226 372 226 467 q 261 177 226 261 q 356 36 296 93 q 498 -49 416 -20 q 673 -78 579 -78 q 849 -57 772 -78 q 980 -2 925 -35 q 1003 3 994 6 q 1018 -12 1013 -1 l 1035 -56 q 875 -130 965 -102 q 673 -157 785 -157 q 461 -121 559 -157 q 292 -17 363 -85 q 179 150 220 52 q 138 372 138 248 q 156 510 138 444 q 207 633 174 576 q 286 738 239 691 q 388 819 332 785 q 509 872 444 853 q 645 890 574 890 q 819 861 736 890 q 967 775 903 831 q 1069 637 1031 719 q 1107 450 1107 555 q 1087 319 1107 380 q 1032 215 1067 259 q 949 146 997 171 q 846 121 902 121 m 568 201 q 609 208 588 201 q 648 231 629 214 q 683 275 667 247 q 710 345 699 302 l 760 537 q 705 543 735 543 q 616 523 656 543 q 546 469 575 503 q 499 392 516 435 q 483 304 483 349 q 504 230 483 258 q 568 201 526 201 z "},"©":{"ha":1159,"x_min":101,"x_max":1058,"o":"m 746 311 q 755 310 751 313 q 763 304 760 307 l 804 261 q 712 194 766 218 q 582 170 658 170 q 465 193 517 170 q 375 255 412 215 q 316 350 337 295 q 296 471 296 406 q 318 592 296 536 q 381 687 341 647 q 475 748 420 726 q 594 770 530 770 q 660 765 629 770 q 715 748 690 759 q 762 722 741 737 q 802 689 783 707 l 771 646 q 763 638 768 642 q 749 634 758 634 q 730 642 740 634 q 704 657 720 649 q 663 673 688 666 q 600 681 638 681 q 517 666 554 681 q 455 624 481 652 q 416 558 430 597 q 402 471 402 519 q 416 381 402 420 q 455 315 430 342 q 514 274 479 288 q 588 260 548 260 q 645 266 622 260 q 685 279 667 271 q 716 295 702 286 q 746 311 730 304 m 101 469 q 118 596 101 535 q 166 710 135 657 q 241 807 197 764 q 338 882 285 851 q 452 931 391 913 q 579 948 513 948 q 706 931 645 948 q 821 882 768 913 q 918 807 874 851 q 993 710 962 764 q 1041 596 1024 657 q 1058 469 1058 535 q 1041 342 1058 404 q 993 228 1024 281 q 918 131 962 175 q 821 56 874 87 q 706 8 768 25 q 579 -9 645 -9 q 452 8 513 -9 q 338 56 391 25 q 241 131 285 87 q 166 228 197 175 q 118 342 135 281 q 101 469 101 404 m 168 469 q 200 305 168 382 q 288 172 232 229 q 418 83 343 116 q 579 51 493 51 q 741 83 665 51 q 872 172 817 116 q 961 305 928 229 q 993 469 993 382 q 978 582 993 528 q 937 682 964 635 q 872 767 910 729 q 789 833 835 806 q 690 875 743 860 q 579 890 637 890 q 469 875 522 890 q 371 833 416 860 q 288 767 325 806 q 224 682 250 729 q 183 582 197 635 q 168 469 168 528 z "},"℗":{"ha":1159,"x_min":101,"x_max":1058,"o":"m 101 469 q 118 596 101 535 q 166 710 135 657 q 241 807 197 764 q 338 882 285 851 q 452 931 391 913 q 579 948 513 948 q 706 931 645 948 q 821 882 768 913 q 918 807 874 851 q 993 710 962 764 q 1041 596 1024 657 q 1058 469 1058 535 q 1041 342 1058 404 q 993 228 1024 281 q 918 131 962 175 q 821 56 874 87 q 706 8 768 25 q 579 -9 645 -9 q 452 8 513 -9 q 338 56 391 25 q 241 131 285 87 q 166 228 197 175 q 118 342 135 281 q 101 469 101 404 m 168 469 q 200 305 168 382 q 288 172 232 229 q 418 83 343 116 q 579 51 493 51 q 741 83 665 51 q 872 172 817 116 q 961 305 928 229 q 993 469 993 382 q 978 582 993 528 q 937 682 964 635 q 872 767 910 729 q 789 833 835 806 q 690 875 743 860 q 579 890 637 890 q 469 875 522 890 q 371 833 416 860 q 288 767 325 806 q 224 682 250 729 q 183 582 197 635 q 168 469 168 528 m 506 387 l 506 178 l 402 178 l 402 762 l 591 762 q 693 748 650 762 q 764 709 736 734 q 806 649 792 684 q 819 576 819 615 q 806 503 819 538 q 764 443 792 469 q 691 402 735 417 q 588 387 648 387 l 506 387 m 506 462 l 581 462 q 647 470 621 462 q 688 494 673 479 q 710 530 704 509 q 716 576 716 551 q 710 620 716 600 q 690 653 704 640 q 651 675 675 667 q 591 682 627 682 l 506 682 l 506 462 z "},"™":{"ha":979,"x_min":59,"x_max":884,"o":"m 647 727 q 662 693 656 710 q 677 728 667 712 l 786 924 q 797 936 791 934 q 813 938 802 938 l 884 938 l 884 551 l 810 551 l 810 787 l 817 838 l 698 618 q 669 600 688 600 l 656 600 q 627 618 637 600 l 508 836 l 513 787 l 513 551 l 439 551 l 439 938 l 510 938 q 527 936 522 938 q 537 924 532 933 l 647 727 m 378 938 l 378 868 l 260 868 l 260 551 l 176 551 l 176 868 l 59 868 l 59 938 l 378 938 z "},"℠":{"ha":985,"x_min":81,"x_max":873,"o":"m 637 728 q 645 710 642 719 q 651 693 648 702 q 665 728 656 709 l 775 924 q 786 936 781 934 q 802 938 791 938 l 873 938 l 873 551 l 800 551 l 800 787 l 805 838 l 687 618 q 657 600 677 600 l 646 600 q 616 618 626 600 l 497 836 l 503 787 l 503 551 l 429 551 l 429 938 l 499 938 q 515 936 511 938 q 528 924 520 933 l 637 728 m 326 868 q 319 859 323 861 q 309 857 315 857 q 296 861 303 857 q 280 870 290 865 q 257 879 270 875 q 227 883 244 883 q 185 870 201 883 q 170 838 170 858 q 183 812 170 821 q 216 796 196 803 q 259 782 235 789 q 302 762 282 774 q 335 729 321 749 q 348 675 348 709 q 339 625 348 648 q 312 584 330 602 q 269 557 295 567 q 211 547 243 547 q 139 562 174 547 q 81 599 104 576 l 102 636 q 109 644 104 641 q 119 647 114 647 q 134 642 126 647 q 153 629 142 636 q 178 617 163 623 q 214 612 193 612 q 260 627 245 612 q 275 665 275 643 q 261 694 275 684 q 229 711 248 705 q 185 725 209 718 q 142 744 162 732 q 110 778 123 757 q 96 834 96 799 q 105 876 96 856 q 130 912 113 897 q 171 937 146 928 q 227 947 195 947 q 291 936 261 947 q 342 906 321 926 l 326 868 z "},"°":{"ha":471,"x_min":21,"x_max":449,"o":"m 21 738 q 38 821 21 782 q 83 888 54 859 q 151 933 112 916 q 235 949 190 949 q 319 933 279 949 q 387 888 358 916 q 432 821 416 859 q 449 738 449 782 q 432 656 449 694 q 387 589 416 618 q 319 544 358 560 q 235 527 279 527 q 151 544 190 527 q 83 589 112 560 q 38 656 54 618 q 21 738 21 694 m 106 737 q 116 686 106 710 q 143 645 125 663 q 183 618 160 628 q 235 608 207 608 q 286 618 262 608 q 327 645 309 628 q 354 686 344 663 q 363 737 363 710 q 354 788 363 764 q 327 830 344 812 q 286 859 309 848 q 235 869 262 869 q 183 859 207 869 q 143 830 160 848 q 116 788 125 812 q 106 737 106 764 z "},"¤":{"ha":692,"x_min":52,"x_max":640,"o":"m 112 440 q 122 510 112 477 q 152 572 133 543 l 52 671 l 113 732 l 212 633 q 274 664 240 652 q 346 675 308 675 q 416 664 382 675 q 478 634 450 653 l 578 734 l 637 673 l 538 574 q 569 511 558 545 q 581 440 581 477 q 570 370 581 403 q 540 308 559 336 l 640 209 l 579 149 l 480 248 q 418 217 452 228 q 346 206 384 206 q 276 216 309 206 q 214 245 243 227 l 115 146 l 54 207 l 154 306 q 123 368 134 334 q 112 440 112 402 m 201 440 q 212 384 201 410 q 243 337 224 357 q 290 306 263 317 q 346 294 316 294 q 403 306 376 294 q 450 337 430 317 q 481 384 470 357 q 493 440 493 410 q 481 497 493 471 q 450 544 470 524 q 403 575 430 564 q 346 587 376 587 q 290 575 316 587 q 243 544 263 564 q 212 497 224 524 q 201 440 201 471 z "},"€":{"ha":704,"x_min":22,"x_max":694,"o":"m 22 465 l 111 465 q 152 578 123 528 q 224 664 180 629 q 325 719 267 700 q 451 738 382 738 q 587 713 531 738 q 688 644 644 688 l 658 609 q 642 595 651 602 q 621 589 632 589 q 597 597 611 589 q 565 616 584 606 q 518 634 545 626 q 453 642 491 642 q 307 597 363 642 q 230 465 250 551 l 550 465 l 550 441 q 540 419 550 429 q 515 409 530 409 l 221 409 q 220 387 220 398 q 220 364 220 376 q 220 346 220 355 q 221 328 220 336 l 492 328 l 492 304 q 483 282 492 292 q 458 273 473 273 l 227 273 q 299 134 245 180 q 440 87 353 87 q 517 98 486 87 q 571 121 549 109 q 607 145 593 134 q 631 156 621 156 q 648 151 641 156 q 663 137 655 146 l 694 101 q 588 20 651 49 q 437 -9 524 -9 q 311 10 368 -9 q 214 66 255 30 q 145 155 172 103 q 108 273 119 208 l 22 273 l 22 328 l 102 328 q 101 346 102 336 q 101 364 101 355 q 101 387 101 376 q 102 409 102 397 l 22 409 l 22 465 z "},"¢":{"ha":692,"x_min":80,"x_max":618,"o":"m 331 -7 q 231 26 277 0 q 152 96 185 52 q 99 198 118 139 q 80 332 80 258 q 100 465 80 404 q 157 571 119 526 q 250 643 195 616 q 377 672 306 669 l 385 789 q 395 811 387 802 q 418 821 404 821 l 463 821 l 452 668 q 539 639 500 660 q 610 587 578 618 l 580 545 q 569 535 574 538 q 555 532 564 532 q 538 537 547 532 q 516 550 529 543 q 486 565 503 557 q 446 577 469 572 l 412 82 q 472 95 448 85 q 513 117 496 106 q 541 136 530 127 q 563 145 553 145 q 576 142 570 145 q 586 134 583 139 l 618 93 q 525 22 581 46 q 406 -8 470 -3 l 399 -121 q 389 -144 397 -134 q 366 -154 380 -154 l 321 -154 l 331 -7 m 198 332 q 235 167 198 229 q 338 87 271 105 l 371 581 q 296 557 328 576 q 241 507 263 538 q 209 431 220 475 q 198 332 198 387 z "},"ƒ":{"ha":692,"x_min":62,"x_max":606,"o":"m 408 502 l 356 25 q 268 -170 341 -109 q 62 -230 195 -230 l 62 -168 q 101 -130 62 -130 q 150 -122 127 -130 q 191 -94 173 -113 q 221 -45 209 -75 q 237 28 233 -16 l 290 498 l 203 509 q 176 539 176 513 l 176 588 l 300 588 l 312 697 q 399 889 327 826 q 606 952 471 952 l 606 887 q 596 860 606 867 q 567 852 587 852 q 517 844 541 852 q 475 817 494 836 q 445 767 457 798 q 427 693 432 737 l 414 588 l 602 588 l 602 502 l 408 502 z "},"¥":{"ha":704,"x_min":35,"x_max":675,"o":"m 98 343 l 273 343 l 35 728 l 126 728 q 158 717 144 728 q 179 692 172 705 l 321 445 q 343 403 335 421 q 357 367 351 385 q 369 404 361 385 q 390 445 376 422 l 530 692 q 555 717 538 705 q 593 728 572 728 l 675 728 l 437 343 l 613 343 l 613 277 l 410 277 l 410 214 l 613 214 l 613 148 l 410 148 l 410 0 l 302 0 l 302 148 l 98 148 l 98 214 l 302 214 l 302 277 l 98 277 l 98 343 z "},"℅":{"ha":1064,"x_min":58,"x_max":1020,"o":"m 58 0 m 242 35 q 214 7 230 14 q 179 0 199 0 l 128 0 l 798 897 q 824 927 809 917 q 863 938 840 938 l 915 938 l 242 35 m 1020 234 q 1002 137 1020 182 q 953 60 985 92 q 876 8 921 27 q 776 -10 831 -10 q 677 8 722 -10 q 600 60 632 27 q 551 137 568 92 q 533 234 533 182 q 551 331 533 286 q 600 408 568 376 q 677 459 632 441 q 776 478 722 478 q 876 459 831 478 q 953 408 921 441 q 1002 331 985 376 q 1020 234 1020 286 m 925 234 q 915 303 925 273 q 885 355 905 334 q 838 388 866 376 q 776 399 810 399 q 667 355 707 399 q 627 234 627 311 q 667 113 627 156 q 776 69 707 69 q 885 113 846 69 q 925 234 925 156 m 414 583 q 427 578 421 583 l 463 538 q 392 482 434 501 q 290 463 349 463 q 193 481 236 463 q 120 532 151 500 q 74 610 90 565 q 58 707 58 654 q 76 806 58 761 q 124 883 93 850 q 199 933 155 916 q 295 951 242 951 q 388 934 348 951 q 456 889 429 917 l 426 846 q 419 839 422 842 q 408 836 415 836 q 392 841 400 836 q 372 854 384 847 q 341 866 359 861 q 295 872 323 872 q 237 861 263 872 q 192 829 211 850 q 163 777 173 808 q 153 707 153 747 q 164 637 153 668 q 194 585 175 606 q 240 553 214 564 q 296 542 266 542 q 354 550 331 542 q 399 576 377 557 q 414 583 407 583 z "},"№":{"ha":1423,"x_min":105,"x_max":1343,"o":"m 170 891 q 194 887 186 891 q 212 870 201 884 l 718 203 q 715 236 716 220 q 714 265 714 252 l 714 891 l 823 891 l 823 0 l 760 0 q 736 5 746 0 q 717 22 726 9 l 212 688 q 214 657 213 672 q 214 629 214 642 l 214 0 l 105 0 l 105 891 l 170 891 m 1343 697 q 1328 616 1343 653 q 1287 551 1314 578 q 1223 509 1261 524 q 1141 493 1186 493 q 1058 509 1095 493 q 995 551 1021 524 q 954 616 968 578 q 939 697 939 653 q 954 779 939 741 q 995 843 968 816 q 1058 886 1021 871 q 1141 901 1095 901 q 1223 886 1186 901 q 1287 843 1261 870 q 1328 778 1314 816 q 1343 697 1343 741 m 1253 698 q 1223 792 1253 758 q 1141 826 1193 826 q 1057 792 1088 826 q 1027 698 1027 758 q 1057 605 1027 638 q 1141 571 1088 571 q 1223 605 1193 571 q 1253 698 1253 638 m 941 415 l 1339 415 l 1339 334 l 941 334 l 941 415 z "},"#":{"ha":692,"x_min":30,"x_max":668,"o":"m 482 277 l 433 0 l 379 0 q 350 15 361 0 q 343 51 339 29 l 384 277 l 245 277 l 205 45 q 185 11 200 21 q 150 0 170 0 l 97 0 l 146 277 l 64 277 q 38 288 46 277 q 34 326 30 298 l 39 363 l 158 363 l 195 575 l 60 575 l 68 625 q 84 653 72 644 q 121 663 96 663 l 206 663 l 248 896 q 266 927 252 916 q 300 938 281 938 l 354 938 l 304 663 l 444 663 l 494 938 l 547 938 q 577 926 566 938 q 585 894 588 913 l 543 663 l 668 663 l 659 612 q 644 584 656 593 q 606 575 631 575 l 531 575 l 494 363 l 594 363 q 621 353 612 363 q 625 315 629 342 l 620 277 l 482 277 m 256 363 l 395 363 l 433 575 l 293 575 l 256 363 z "},"₀":{"ha":543,"x_min":92,"x_max":451,"o":"m 451 91 q 437 -18 451 28 q 399 -94 423 -64 q 341 -139 374 -124 q 271 -153 309 -153 q 201 -139 233 -153 q 144 -94 168 -124 q 106 -18 120 -64 q 92 91 92 28 q 106 200 92 154 q 144 276 120 245 q 201 320 168 306 q 271 335 233 335 q 341 320 309 335 q 399 276 374 306 q 437 200 423 245 q 451 91 451 154 m 363 91 q 356 176 363 142 q 337 229 349 210 q 308 257 325 249 q 271 264 291 264 q 234 257 251 264 q 205 229 217 249 q 186 176 193 210 q 179 91 179 142 q 186 6 179 40 q 207 -47 194 -27 q 236 -75 219 -67 q 271 -83 252 -83 q 307 -75 290 -83 q 336 -47 323 -67 q 356 6 349 -27 q 363 91 363 40 z "},"₁":{"ha":342,"x_min":38,"x_max":340,"o":"m 73 -91 l 170 -91 l 170 194 l 172 222 l 103 166 q 91 160 97 161 q 80 160 85 159 q 71 164 75 161 q 64 170 66 166 l 38 206 l 184 331 l 256 331 l 256 -91 l 340 -91 l 340 -148 l 73 -148 l 73 -91 z "},"₂":{"ha":467,"x_min":68,"x_max":403,"o":"m 241 335 q 303 325 275 335 q 351 297 331 315 q 381 254 370 279 q 392 199 392 229 q 384 150 392 172 q 362 107 376 127 q 330 67 348 87 q 293 28 312 48 l 189 -78 q 220 -71 204 -74 q 249 -68 235 -68 l 374 -68 q 395 -76 387 -68 q 403 -96 403 -83 l 403 -148 l 68 -148 l 68 -119 q 71 -101 68 -111 q 82 -84 75 -92 l 227 59 q 281 126 259 92 q 304 196 304 161 q 284 247 304 229 q 237 264 265 264 q 190 249 208 264 q 161 206 172 233 q 148 189 157 194 q 121 188 138 184 l 73 195 q 92 256 78 230 q 129 300 106 283 q 179 326 151 317 q 241 335 208 335 z "},"₃":{"ha":465,"x_min":67,"x_max":401,"o":"m 244 335 q 305 326 277 335 q 351 299 332 316 q 381 260 370 283 q 391 212 391 237 q 315 98 391 128 q 379 61 357 86 q 401 -5 401 35 q 388 -69 401 -41 q 351 -116 374 -97 q 299 -144 328 -134 q 237 -153 269 -153 q 173 -145 201 -153 q 125 -121 146 -137 q 91 -81 105 -105 q 67 -26 77 -58 l 104 -11 q 132 -7 119 -5 q 150 -22 144 -10 q 158 -38 153 -28 q 173 -58 163 -48 q 197 -75 182 -68 q 233 -81 212 -81 q 268 -75 253 -81 q 294 -58 283 -68 q 309 -35 304 -48 q 314 -9 314 -22 q 309 24 314 10 q 291 48 303 39 q 257 61 278 57 q 205 66 236 66 l 205 123 q 285 143 262 124 q 309 197 309 163 q 290 246 309 229 q 240 263 271 263 q 191 248 210 263 q 163 207 173 232 q 151 189 158 193 q 125 188 143 184 l 81 195 q 100 256 85 230 q 136 300 115 283 q 185 326 157 317 q 244 335 212 335 z "},"₄":{"ha":496,"x_min":66,"x_max":442,"o":"m 372 27 l 442 27 l 442 -16 q 438 -28 442 -23 q 425 -33 433 -33 l 372 -33 l 372 -148 l 299 -148 l 299 -33 l 100 -33 q 81 -28 88 -33 q 73 -15 75 -23 l 66 23 l 289 330 l 372 330 l 372 27 m 299 183 q 300 210 299 195 q 303 240 300 224 l 147 27 l 299 27 l 299 183 z "},"₅":{"ha":460,"x_min":72,"x_max":390,"o":"m 374 294 q 362 264 374 276 q 324 252 351 252 l 196 252 l 179 153 q 237 159 208 159 q 303 148 275 159 q 351 119 332 138 q 380 75 370 100 q 390 18 390 49 q 377 -53 390 -21 q 340 -106 363 -84 q 283 -141 316 -129 q 212 -153 251 -153 q 132 -136 168 -153 q 72 -96 96 -119 l 98 -60 q 119 -47 106 -47 q 136 -53 127 -47 q 156 -64 144 -58 q 182 -76 167 -71 q 218 -81 197 -81 q 250 -75 235 -81 q 278 -59 266 -70 q 297 -32 290 -48 q 304 8 304 -15 q 282 68 304 47 q 220 90 261 90 q 185 86 203 90 q 150 77 168 82 l 97 92 l 138 330 l 374 330 l 374 294 z "},"₆":{"ha":498,"x_min":86,"x_max":422,"o":"m 251 176 q 223 146 237 161 q 196 116 209 132 q 237 139 214 130 q 286 148 260 148 q 335 140 311 148 q 379 114 359 132 q 410 71 398 97 q 422 8 422 44 q 410 -55 422 -25 q 375 -106 397 -84 q 321 -140 353 -127 q 252 -153 290 -153 q 183 -141 214 -153 q 131 -106 152 -129 q 98 -53 109 -84 q 86 15 86 -22 q 143 159 86 83 l 256 310 q 274 324 262 318 q 300 330 286 330 l 376 330 l 251 176 m 172 -1 q 194 -63 172 -39 q 254 -87 216 -87 q 290 -80 273 -87 q 317 -63 306 -74 q 335 -36 329 -52 q 342 -2 342 -20 q 320 61 342 39 q 259 84 298 84 q 222 77 239 84 q 195 59 206 71 q 178 32 184 47 q 172 -1 172 17 z "},"₇":{"ha":446,"x_min":64,"x_max":395,"o":"m 395 330 l 395 284 q 393 268 395 275 q 388 254 391 260 l 206 -119 q 201 -129 204 -124 q 194 -138 199 -134 q 182 -145 189 -142 q 165 -148 176 -148 l 98 -148 l 281 210 q 307 250 292 232 l 84 250 q 71 256 77 250 q 64 271 64 262 l 64 330 l 395 330 z "},"₈":{"ha":500,"x_min":83,"x_max":416,"o":"m 250 -153 q 182 -143 213 -153 q 129 -115 151 -134 q 95 -71 107 -97 q 83 -14 83 -45 q 103 57 83 27 q 166 101 123 86 q 116 143 132 116 q 99 207 99 170 q 110 257 99 234 q 141 298 121 281 q 189 325 161 315 q 250 335 216 335 q 310 325 283 335 q 358 298 338 315 q 389 257 378 281 q 399 207 399 234 q 332 101 399 131 q 395 57 375 87 q 416 -14 416 28 q 404 -71 416 -45 q 370 -115 391 -97 q 317 -143 348 -134 q 250 -153 287 -153 m 250 -87 q 309 -65 290 -87 q 329 -12 329 -44 q 322 24 329 9 q 306 48 316 39 q 280 62 295 58 q 250 66 266 66 q 219 62 233 66 q 194 48 204 58 q 177 24 183 39 q 170 -12 170 9 q 190 -65 170 -44 q 250 -87 210 -87 m 250 132 q 303 152 286 132 q 321 205 321 172 q 316 230 321 218 q 303 251 312 242 q 280 266 294 260 q 250 271 267 271 q 219 266 232 271 q 197 251 205 260 q 184 230 188 242 q 180 205 180 218 q 196 152 180 172 q 250 132 213 132 z "},"₉":{"ha":498,"x_min":99,"x_max":421,"o":"m 269 20 q 289 44 279 33 q 307 66 298 55 q 273 53 292 57 q 235 49 254 49 q 185 58 209 49 q 141 85 161 67 q 111 128 122 102 q 99 185 99 153 q 111 241 99 214 q 144 289 123 268 q 195 322 165 310 q 262 335 225 335 q 328 324 298 335 q 378 293 357 313 q 410 245 399 273 q 421 182 421 217 q 417 136 421 157 q 405 95 413 115 q 385 55 397 75 q 358 14 373 35 l 260 -128 q 243 -142 254 -136 q 216 -148 231 -148 l 139 -148 l 269 20 m 342 189 q 320 247 342 225 q 264 269 298 269 q 204 248 226 269 q 182 190 182 227 q 203 130 182 151 q 260 110 223 110 q 321 132 299 110 q 342 189 342 155 z "},"₊":{"ha":506,"x_min":91,"x_max":413,"o":"m 286 246 l 286 113 l 413 113 l 413 49 l 286 49 l 286 -86 l 217 -86 l 217 49 l 91 49 l 91 113 l 217 113 l 217 246 l 286 246 z "},"₋":{"ha":498,"x_min":102,"x_max":395,"o":"m 102 113 l 395 113 l 395 49 l 102 49 l 102 113 z "},"₌":{"ha":488,"x_min":97,"x_max":391,"o":"m 97 0 m 97 54 l 391 54 l 391 -9 l 97 -9 l 97 54 m 97 172 l 391 172 l 391 108 l 97 108 l 97 172 z "},"₍":{"ha":301,"x_min":112,"x_max":255,"o":"m 186 85 q 201 -48 186 18 q 248 -171 217 -114 q 251 -192 255 -184 q 241 -204 248 -200 l 203 -228 q 133 -75 154 -152 q 112 85 112 1 q 133 245 112 168 q 203 397 155 322 l 241 374 q 252 362 248 370 q 248 341 255 355 q 202 218 218 283 q 186 85 186 153 z "},"₎":{"ha":301,"x_min":31,"x_max":175,"o":"m 102 85 q 86 218 102 153 q 39 341 70 283 q 36 362 32 355 q 47 374 39 370 l 84 397 q 154 245 133 321 q 175 85 175 168 q 154 -75 175 2 q 85 -227 133 -152 l 47 -204 q 35 -192 39 -199 q 39 -171 31 -184 q 85 -48 69 -114 q 102 85 102 18 z "},"⁄":{"ha":467,"x_min":-160,"x_max":627,"o":"m -46 35 q -74 7 -58 14 q -109 0 -90 0 l -160 0 l 509 897 q 536 927 521 917 q 574 938 551 938 l 627 938 l -46 35 z "},"⅔":{"ha":1004,"x_min":84,"x_max":936,"o":"m 84 0 m 253 35 q 225 7 241 14 q 190 0 210 0 l 139 0 l 808 897 q 835 927 820 917 q 873 938 850 938 l 926 938 l 253 35 m 779 483 q 839 473 812 483 q 886 447 867 464 q 915 408 905 431 q 926 359 926 385 q 849 246 926 276 q 914 209 892 234 q 936 142 936 183 q 922 79 936 106 q 886 32 909 51 q 833 4 863 14 q 772 -5 804 -5 q 708 3 735 -5 q 660 27 680 11 q 626 66 640 43 q 602 121 612 90 l 639 137 q 666 140 653 143 q 684 126 679 138 q 692 110 687 120 q 707 90 698 100 q 731 73 717 80 q 768 66 746 66 q 803 73 787 66 q 828 90 818 79 q 843 113 838 100 q 848 139 848 125 q 843 172 848 158 q 825 196 838 186 q 791 209 812 205 q 740 214 770 214 l 740 271 q 820 291 796 272 q 843 345 843 311 q 824 394 843 377 q 774 411 805 411 q 726 395 744 411 q 698 355 707 380 q 685 337 692 341 q 660 336 677 332 l 615 343 q 634 404 620 378 q 670 448 649 431 q 719 474 692 465 q 779 483 747 483 m 257 945 q 319 935 292 945 q 367 907 347 925 q 397 864 387 889 q 408 808 408 839 q 400 760 408 782 q 378 717 392 737 q 346 677 364 696 q 309 638 328 658 l 205 532 q 236 538 220 536 q 265 541 252 541 l 390 541 q 411 534 404 541 q 419 513 419 526 l 419 462 l 84 462 l 84 490 q 87 509 84 499 q 98 526 91 518 l 243 669 q 298 736 275 701 q 320 806 320 771 q 301 857 320 839 q 253 874 281 874 q 206 858 224 874 q 178 816 188 842 q 164 799 173 804 q 137 798 155 794 l 90 805 q 109 866 94 840 q 145 910 123 892 q 195 936 167 927 q 257 945 224 945 z "},"⅖":{"ha":1004,"x_min":84,"x_max":926,"o":"m 84 0 m 253 35 q 225 7 241 14 q 190 0 210 0 l 139 0 l 808 897 q 835 927 820 917 q 873 938 850 938 l 926 938 l 253 35 m 257 945 q 319 935 292 945 q 367 907 347 925 q 397 864 387 889 q 408 808 408 839 q 400 760 408 782 q 378 717 392 737 q 346 677 364 696 q 309 638 328 658 l 205 532 q 236 538 220 536 q 265 541 252 541 l 390 541 q 411 534 404 541 q 419 513 419 526 l 419 462 l 84 462 l 84 490 q 87 509 84 499 q 98 526 91 518 l 243 669 q 298 736 275 701 q 320 806 320 771 q 301 857 320 839 q 253 874 281 874 q 206 858 224 874 q 178 816 188 842 q 164 799 173 804 q 137 798 155 794 l 90 805 q 109 866 94 840 q 145 910 123 892 q 195 936 167 927 q 257 945 224 945 m 910 441 q 899 412 910 424 q 861 400 888 400 l 732 400 l 715 300 q 774 307 745 307 q 840 296 811 307 q 887 267 868 286 q 917 222 907 248 q 926 165 926 197 q 913 95 926 127 q 876 41 900 64 q 820 7 852 19 q 749 -5 787 -5 q 668 12 704 -5 q 608 52 633 28 l 634 88 q 656 100 642 100 q 672 95 664 100 q 692 84 681 90 q 718 72 703 77 q 754 67 733 67 q 787 73 771 67 q 814 89 802 78 q 833 116 826 100 q 840 156 840 133 q 819 216 840 195 q 756 237 798 237 q 722 234 739 237 q 686 224 704 230 l 633 239 l 674 477 l 910 477 l 910 441 z "},"+":{"ha":692,"x_min":31,"x_max":659,"o":"m 393 764 l 393 484 l 659 484 l 659 394 l 393 394 l 393 114 l 296 114 l 296 394 l 31 394 l 31 484 l 296 484 l 296 764 l 393 764 z "},"−":{"ha":692,"x_min":86,"x_max":604,"o":"m 86 484 l 604 484 l 604 394 l 86 394 l 86 484 z "},"×":{"ha":692,"x_min":49,"x_max":640,"o":"m 633 663 l 409 439 l 640 208 l 576 144 l 345 375 l 113 143 l 49 206 l 281 439 l 56 664 l 119 728 l 345 503 l 569 727 l 633 663 z "},"÷":{"ha":692,"x_min":31,"x_max":659,"o":"m 31 484 l 659 484 l 659 394 l 31 394 l 31 484 m 262 671 q 268 704 262 688 q 286 730 275 719 q 312 748 297 742 q 345 755 327 755 q 377 748 361 755 q 404 730 392 742 q 421 704 415 719 q 428 671 428 688 q 421 639 428 654 q 404 613 415 624 q 377 595 392 602 q 345 589 361 589 q 312 595 327 589 q 286 613 297 602 q 268 639 275 624 q 262 671 262 654 m 262 205 q 268 238 262 222 q 286 264 275 253 q 312 282 297 276 q 345 289 327 289 q 377 282 361 289 q 404 264 392 276 q 421 238 415 253 q 428 205 428 222 q 421 173 428 188 q 404 147 415 158 q 377 130 392 136 q 345 123 361 123 q 312 130 327 123 q 286 147 297 136 q 268 173 275 158 q 262 205 262 188 z "},"=":{"ha":692,"x_min":64,"x_max":627,"o":"m 64 376 l 627 376 l 627 286 l 64 286 l 64 376 m 64 596 l 627 596 l 627 506 l 64 506 l 64 596 z "},"≠":{"ha":692,"x_min":64,"x_max":627,"o":"m 64 596 l 385 596 l 458 753 l 545 753 l 471 596 l 627 596 l 627 506 l 428 506 l 366 376 l 627 376 l 627 286 l 323 286 l 246 122 l 160 122 l 237 286 l 64 286 l 64 376 l 280 376 l 342 506 l 64 506 l 64 596 z "},"≈":{"ha":692,"x_min":81,"x_max":611,"o":"m 481 563 q 518 567 500 563 q 551 578 536 572 q 577 593 566 585 q 595 608 589 601 l 611 533 q 551 487 588 502 q 474 471 515 471 q 406 482 440 471 q 340 506 372 493 q 276 530 307 519 q 215 541 244 541 q 177 537 195 541 q 143 525 159 532 q 117 510 128 518 q 100 494 106 502 l 81 567 q 141 616 104 600 q 222 632 179 632 q 290 621 256 632 q 357 597 324 610 q 421 574 390 585 q 481 563 452 563 m 481 341 q 518 346 500 341 q 551 357 536 350 q 577 371 566 363 q 595 386 589 379 l 611 311 q 551 264 588 279 q 474 250 515 250 q 406 260 440 250 q 340 284 372 271 q 276 308 307 297 q 215 319 244 319 q 177 314 195 319 q 143 303 159 310 q 117 288 128 296 q 100 272 106 279 l 81 345 q 141 394 104 378 q 222 410 179 410 q 290 399 256 410 q 357 376 324 389 q 421 352 390 363 q 481 341 452 341 z "},"<":{"ha":692,"x_min":63,"x_max":570,"o":"m 63 465 l 570 728 l 570 643 q 565 624 570 632 q 546 608 559 615 l 256 461 q 196 440 230 448 q 256 420 229 433 l 547 272 q 565 257 559 265 q 570 237 570 248 l 570 153 l 63 416 l 63 465 z "},">":{"ha":692,"x_min":123,"x_max":629,"o":"m 629 416 l 123 153 l 123 237 q 146 272 123 260 l 437 420 q 496 440 462 433 q 436 461 462 448 l 146 609 q 128 624 134 616 q 123 643 123 632 l 123 728 l 629 465 l 629 416 z "},"±":{"ha":692,"x_min":31,"x_max":659,"o":"m 393 788 l 393 542 l 659 542 l 659 452 l 393 452 l 393 212 l 296 212 l 296 452 l 31 452 l 31 542 l 296 542 l 296 788 l 393 788 m 31 142 l 659 142 l 659 52 l 31 52 l 31 142 z "},"≤":{"ha":692,"x_min":63,"x_max":570,"o":"m 63 519 l 570 766 l 570 685 q 564 665 570 674 q 541 648 558 655 l 255 516 q 190 495 226 503 q 255 474 228 487 l 541 340 q 564 323 558 332 q 570 303 570 314 l 570 222 l 63 470 l 63 519 m 63 142 l 570 142 l 570 52 l 63 52 l 63 142 z "},"≥":{"ha":692,"x_min":122,"x_max":629,"o":"m 629 519 l 629 470 l 122 222 l 122 303 q 128 323 122 314 q 151 340 134 332 l 437 474 q 467 486 451 481 q 501 495 484 491 q 437 516 465 503 l 151 648 q 128 665 134 655 q 122 685 122 674 l 122 766 l 629 519 m 629 52 l 122 52 l 122 142 l 629 142 l 629 52 z "},"¬":{"ha":692,"x_min":63,"x_max":627,"o":"m 63 484 l 627 484 l 627 206 l 526 206 l 526 394 l 63 394 l 63 484 z "},"℮":{"ha":1026,"x_min":27,"x_max":980,"o":"m 199 476 l 199 392 q 223 272 199 330 q 292 169 247 214 q 400 96 336 123 q 546 69 465 69 q 727 108 648 69 q 865 228 806 147 l 930 180 q 858 100 898 136 q 767 40 818 64 q 655 2 717 15 q 520 -12 594 -12 q 316 25 407 -12 q 160 126 224 62 q 62 278 96 191 q 27 465 27 365 q 63 655 27 567 q 162 808 98 743 q 314 910 226 873 q 509 947 403 947 q 708 909 621 947 q 854 806 795 871 q 946 656 914 742 q 980 476 978 571 l 199 476 m 199 551 l 821 551 l 821 571 q 800 690 821 635 q 738 786 778 745 q 641 849 698 826 q 513 871 584 871 q 387 848 444 871 q 287 782 329 824 q 222 684 245 741 q 199 560 199 627 l 199 551 z "},"ℓ":{"ha":698,"x_min":28,"x_max":668,"o":"m 28 404 q 81 415 55 410 q 134 429 108 421 q 179 627 146 532 q 262 793 212 721 q 376 907 313 865 q 513 949 440 949 q 583 936 553 949 q 631 898 612 922 q 659 842 650 873 q 668 774 668 810 q 637 651 668 709 q 551 544 607 593 q 417 452 496 494 q 242 378 338 410 q 241 361 241 369 q 241 344 241 353 q 248 221 241 271 q 266 143 254 172 q 296 101 278 113 q 336 89 313 89 q 383 100 360 89 q 427 132 406 111 q 467 182 448 153 q 500 247 486 211 l 598 223 q 554 133 582 175 q 490 58 527 90 q 408 8 453 26 q 313 -10 363 -10 q 236 7 270 -10 q 178 64 201 24 q 141 168 154 104 q 128 325 128 232 l 128 344 q 43 323 86 332 l 28 404 m 497 858 q 419 828 458 858 q 347 745 380 798 q 288 621 313 692 q 250 467 262 549 q 378 528 320 494 q 479 600 437 562 q 544 681 521 638 q 567 768 567 724 q 548 835 567 812 q 497 858 529 858 z "},"∞":{"ha":1185,"x_min":58,"x_max":1131,"o":"m 870 165 q 783 178 822 165 q 710 210 743 190 q 648 257 676 231 q 593 312 619 283 q 539 257 568 283 q 477 210 511 231 q 404 178 444 190 q 316 165 364 165 q 218 181 264 165 q 135 227 171 197 q 79 296 100 256 q 58 387 58 337 q 79 477 58 436 q 135 547 100 518 q 218 592 171 576 q 316 608 264 608 q 404 596 364 608 q 477 564 444 584 q 539 517 511 543 q 593 462 568 490 q 648 517 619 490 q 710 564 676 543 q 783 596 743 584 q 870 608 822 608 q 969 592 922 608 q 1053 547 1017 576 q 1109 477 1088 518 q 1131 387 1131 436 q 1109 296 1131 337 q 1053 227 1088 256 q 969 181 1017 197 q 870 165 922 165 m 321 262 q 382 272 354 262 q 435 299 410 282 q 483 339 460 316 q 528 387 506 361 q 483 434 506 412 q 435 474 460 457 q 382 502 410 492 q 321 511 354 511 q 257 504 287 511 q 203 480 227 496 q 167 441 180 465 q 154 387 154 418 q 167 332 154 355 q 203 293 180 309 q 257 270 227 278 q 321 262 287 262 m 867 262 q 931 270 901 262 q 984 293 962 278 q 1020 332 1006 309 q 1033 387 1033 355 q 1020 441 1033 418 q 984 480 1006 465 q 931 504 961 496 q 867 511 901 511 q 805 502 833 511 q 752 474 777 492 q 704 434 727 457 q 659 387 681 412 q 704 339 681 361 q 752 299 727 316 q 805 272 777 282 q 867 262 833 262 z "},"∂":{"ha":740,"x_min":60,"x_max":705,"o":"m 227 876 q 276 907 252 893 q 326 929 300 920 q 380 943 352 939 q 442 948 409 948 q 550 924 501 948 q 633 853 598 899 q 686 742 667 808 q 705 592 705 675 q 681 349 705 460 q 608 159 656 239 q 488 35 560 79 q 318 -9 415 -9 q 214 10 261 -9 q 132 64 166 28 q 79 149 98 99 q 60 260 60 198 q 85 402 60 336 q 155 517 110 468 q 261 593 199 566 q 395 621 322 621 q 513 593 463 621 q 595 509 563 564 q 596 554 596 532 q 597 592 597 575 q 552 787 597 721 q 427 852 507 852 q 376 846 399 852 q 334 831 353 840 q 302 817 315 823 q 279 810 288 810 q 266 814 272 810 q 252 830 260 819 l 227 876 m 332 85 q 413 102 375 85 q 483 156 452 120 q 538 248 515 193 q 574 378 561 303 q 554 434 567 407 q 522 482 542 461 q 474 515 503 503 q 408 528 446 528 q 311 508 353 528 q 240 452 269 488 q 197 368 212 416 q 182 262 182 319 q 223 131 182 178 q 332 85 263 85 z "},"∫":{"ha":508,"x_min":-66,"x_max":566,"o":"m 234 814 q 263 928 242 880 q 315 1007 283 976 q 387 1052 347 1038 q 476 1067 428 1067 q 522 1063 498 1067 q 566 1048 546 1059 l 558 998 q 554 986 557 990 q 545 979 551 981 q 529 977 539 977 q 503 976 519 976 q 439 967 467 976 q 393 939 412 958 q 363 890 374 920 q 348 817 353 860 l 264 25 q 237 -90 258 -41 q 185 -169 217 -138 q 113 -214 154 -199 q 24 -229 72 -229 q -22 -224 2 -229 q -66 -210 -46 -220 l -58 -159 q -54 -148 -57 -152 q -45 -141 -52 -143 q -29 -138 -39 -139 q -3 -138 -19 -138 q 61 -129 34 -138 q 106 -101 87 -120 q 136 -52 125 -82 q 151 22 146 -21 l 234 814 z "},"√":{"ha":692,"x_min":29,"x_max":748,"o":"m 416 0 l 316 0 l 166 433 l 75 433 q 43 445 56 433 q 29 482 29 456 l 29 520 l 233 520 q 257 513 248 520 q 270 496 267 506 l 351 230 q 362 186 358 208 q 370 143 366 165 q 376 179 372 161 q 385 216 380 197 l 637 1096 q 649 1113 640 1106 q 671 1120 659 1120 l 748 1120 l 416 0 z "},"∏":{"ha":1110,"x_min":56,"x_max":1055,"o":"m 1055 938 l 1055 837 l 895 837 l 895 -224 l 772 -224 l 772 837 l 338 837 l 338 -224 l 214 -224 l 214 837 l 56 837 l 56 938 l 1055 938 z "},"∑":{"ha":751,"x_min":46,"x_max":705,"o":"m 46 938 l 705 938 l 705 837 l 224 837 l 526 374 l 526 340 l 224 -123 l 705 -123 l 705 -224 l 46 -224 l 46 -181 q 49 -162 46 -172 q 58 -144 52 -153 l 395 359 l 58 858 q 49 876 52 866 q 46 895 46 886 l 46 938 z "},"◊":{"ha":709,"x_min":61,"x_max":648,"o":"m 61 460 l 313 996 l 396 996 l 648 460 l 396 -77 l 313 -77 l 61 460 m 178 460 l 326 117 q 343 75 336 96 q 355 33 350 54 q 384 117 364 75 l 534 460 l 382 808 q 355 886 363 844 q 344 847 350 866 q 329 808 338 827 l 178 460 z "},"←":{"ha":1257,"x_min":44,"x_max":1206,"o":"m 44 420 l 418 794 l 459 752 q 470 725 473 739 q 455 700 467 712 l 270 516 q 212 465 239 485 q 283 471 245 469 q 359 474 320 474 l 1206 474 l 1206 366 l 359 366 q 283 369 320 366 q 213 375 246 371 q 240 352 226 365 q 271 324 254 340 l 456 139 q 471 114 469 127 q 460 87 473 100 l 420 45 l 44 420 z "},"→":{"ha":1257,"x_min":52,"x_max":1213,"o":"m 1213 420 l 840 46 l 798 88 q 788 115 785 102 q 803 140 791 128 l 987 324 q 1017 353 1003 340 q 1044 376 1031 366 q 974 369 1011 371 q 898 366 937 366 l 52 366 l 52 474 l 898 474 q 974 472 937 474 q 1044 465 1010 469 q 1017 487 1031 475 q 987 515 1003 500 l 802 701 q 787 727 789 713 q 797 753 784 740 l 838 795 l 1213 420 z "},"↑":{"ha":1257,"x_min":254,"x_max":1003,"o":"m 629 1014 l 1003 640 l 961 599 q 934 588 947 585 q 909 603 921 591 l 725 788 q 696 818 709 804 q 673 845 684 832 q 680 775 677 812 q 683 699 683 738 l 683 -148 l 575 -148 l 575 699 q 577 775 575 738 q 585 846 580 812 q 533 788 564 819 l 348 602 q 323 587 336 590 q 296 597 309 585 l 254 639 l 629 1014 z "},"↓":{"ha":1257,"x_min":254,"x_max":1004,"o":"m 629 -224 l 254 151 l 296 191 q 323 202 310 205 q 349 187 337 199 l 532 2 q 561 -28 548 -14 q 585 -56 574 -42 q 577 15 580 -22 q 575 92 575 52 l 575 938 l 683 938 l 683 92 q 681 16 683 53 q 673 -54 678 -21 q 696 -27 684 -41 q 724 2 709 -14 l 910 188 q 936 203 922 200 q 962 193 949 205 l 1004 152 l 629 -224 z "},"↗":{"ha":1225,"x_min":152,"x_max":1013,"o":"m 1013 852 l 1013 323 l 954 323 q 927 335 935 324 q 920 363 920 347 l 920 625 q 924 700 920 668 q 879 646 903 673 q 827 591 854 618 l 228 -7 l 152 68 l 751 667 q 806 720 779 695 q 861 764 834 744 q 785 760 829 760 l 521 760 q 492 767 503 760 q 481 793 481 774 l 480 852 l 1013 852 z "},"↖":{"ha":1225,"x_min":212,"x_max":1073,"o":"m 212 852 l 745 852 l 743 793 q 732 767 743 774 q 703 760 721 760 l 440 760 q 363 764 396 760 q 418 719 390 743 q 473 667 446 694 l 1073 68 l 997 -7 l 397 591 q 345 647 370 618 q 300 701 321 675 q 304 625 304 669 l 304 363 q 297 335 304 347 q 271 323 290 324 l 212 323 l 212 852 z "},"↘":{"ha":1225,"x_min":152,"x_max":1013,"o":"m 1013 1 l 480 0 l 481 59 q 493 85 481 78 q 522 92 504 92 l 785 92 q 861 88 829 92 q 807 133 835 109 q 751 185 779 157 l 152 783 l 228 860 l 827 261 q 879 205 854 233 q 924 152 903 178 q 920 228 920 184 l 920 488 q 927 517 920 506 q 954 528 935 528 l 1013 529 l 1013 1 z "},"↙":{"ha":1225,"x_min":212,"x_max":1073,"o":"m 212 0 l 212 529 l 271 528 q 297 516 290 528 q 304 488 304 505 l 304 227 q 300 151 304 183 q 345 205 321 177 q 397 261 370 233 l 997 859 l 1073 783 l 473 184 q 417 132 446 157 q 363 87 389 108 q 440 92 395 92 l 703 92 q 732 85 721 92 q 743 58 743 77 l 745 -1 l 212 0 z "},"↔":{"ha":1789,"x_min":310,"x_max":1479,"o":"m 310 420 l 684 794 l 725 752 q 735 725 739 739 q 721 700 732 712 l 536 516 q 490 474 511 491 l 1164 474 q 1239 472 1202 474 q 1310 465 1276 469 q 1283 487 1297 475 q 1253 515 1269 500 l 1067 701 q 1052 727 1055 713 q 1063 753 1050 740 l 1103 795 l 1479 420 l 1105 46 l 1064 88 q 1054 115 1050 102 q 1069 140 1057 128 l 1253 324 q 1282 352 1268 340 q 1310 375 1297 365 q 1239 369 1276 371 q 1164 366 1202 366 l 490 366 q 536 324 512 348 l 722 139 q 737 114 734 127 q 726 87 739 100 l 686 45 l 310 420 z "},"↕":{"ha":1080,"x_min":164,"x_max":916,"o":"m 540 -224 l 166 150 l 208 191 q 235 202 222 205 q 260 187 248 199 l 444 2 q 467 -21 456 -10 q 486 -43 477 -33 l 486 699 q 489 775 486 738 q 496 846 492 812 q 444 788 477 821 l 258 602 q 233 587 247 590 q 206 597 220 585 l 164 638 l 541 1014 l 914 640 l 872 599 q 845 588 859 585 q 821 603 832 591 l 636 788 q 585 844 606 818 q 592 774 589 811 q 595 699 595 737 l 595 -43 q 614 -21 604 -33 q 636 2 624 -10 l 822 188 q 847 203 834 200 q 874 193 861 205 l 916 152 l 540 -224 z "},"Ơ":{"ha":968,"x_min":48,"x_max":949,"o":"m 864 446 q 834 262 864 345 q 752 118 805 178 q 623 24 699 58 q 456 -9 548 -9 q 290 24 366 -9 q 161 118 215 58 q 78 262 107 178 q 48 446 48 345 q 78 629 48 545 q 161 773 107 713 q 290 868 215 834 q 456 901 366 901 q 627 866 551 901 q 757 767 703 831 q 817 795 795 774 q 838 844 838 815 q 833 866 838 857 q 825 883 829 875 q 816 901 820 891 q 812 924 812 910 q 878 979 812 979 l 941 979 q 946 947 944 965 q 949 911 949 930 q 909 783 949 835 q 795 713 870 730 q 846 590 829 658 q 864 446 864 523 m 738 446 q 718 592 738 527 q 662 702 699 656 q 573 771 625 747 q 456 795 521 795 q 340 771 392 795 q 251 702 288 747 q 194 592 214 656 q 174 446 174 527 q 194 299 174 364 q 251 190 214 235 q 340 121 288 144 q 456 97 392 97 q 573 121 521 97 q 662 190 625 144 q 718 299 699 235 q 738 446 738 364 z "},"Ư":{"ha":1002,"x_min":90,"x_max":999,"o":"m 429 98 q 520 116 480 98 q 589 169 561 135 q 631 248 616 202 q 646 350 646 294 l 646 891 l 769 891 l 769 764 q 856 787 825 764 q 888 844 888 810 q 883 866 888 857 q 874 883 879 875 q 865 901 869 891 q 861 924 861 910 q 928 979 861 979 l 991 979 q 997 947 995 965 q 999 911 999 930 q 984 827 999 865 q 939 762 968 789 q 867 720 909 735 q 769 705 824 705 l 769 350 q 746 207 769 273 q 678 93 722 141 q 571 17 634 45 q 429 -10 508 -10 q 288 17 351 -10 q 181 93 225 45 q 113 207 137 141 q 90 350 90 273 l 90 891 l 213 891 l 213 351 q 228 249 213 295 q 270 169 242 202 q 338 116 298 135 q 429 98 378 98 z "},"ơ":{"ha":803,"x_min":50,"x_max":800,"o":"m 363 673 q 507 643 444 673 q 610 557 569 612 q 672 586 650 564 q 694 638 694 608 q 690 657 694 649 q 680 672 686 665 q 670 689 674 680 q 665 712 665 698 q 681 751 665 737 q 730 764 697 764 l 791 764 q 798 733 795 751 q 800 698 800 716 q 790 629 800 661 q 759 573 779 597 q 708 531 739 548 q 640 506 678 514 q 666 426 656 469 q 675 332 675 382 q 653 191 675 254 q 591 83 631 127 q 492 15 550 39 q 363 -9 435 -9 q 233 15 291 -9 q 134 83 175 39 q 72 191 94 127 q 50 332 50 254 q 72 473 50 410 q 134 581 94 536 q 233 649 175 625 q 363 673 291 673 m 363 83 q 446 100 410 83 q 505 149 481 117 q 540 227 528 180 q 552 332 552 273 q 540 437 552 391 q 505 515 528 483 q 446 564 481 547 q 363 581 410 581 q 279 564 315 581 q 220 515 243 547 q 184 437 196 483 q 172 332 172 391 q 219 149 172 214 q 363 83 267 83 z "},"ư":{"ha":837,"x_min":83,"x_max":834,"o":"m 203 663 l 203 241 q 236 125 203 166 q 336 84 269 84 q 428 108 385 84 q 508 174 471 132 l 508 663 l 627 663 l 627 554 q 702 582 675 559 q 728 638 728 605 q 724 657 728 649 q 714 672 720 665 q 704 689 708 680 q 699 712 699 698 q 715 751 699 737 q 764 764 731 764 l 825 764 q 832 733 829 751 q 834 698 834 716 q 821 620 834 655 q 781 559 807 585 q 716 518 755 534 q 627 500 677 503 l 627 0 l 555 0 q 535 6 543 0 q 526 24 527 12 l 515 94 q 421 19 473 47 q 301 -10 369 -10 q 207 8 248 -10 q 139 59 166 26 q 97 138 111 92 q 83 241 83 184 l 83 663 l 203 663 z "},"₫":{"ha":766,"x_min":54,"x_max":754,"o":"m 374 823 l 538 823 l 538 964 l 657 964 l 657 823 l 754 823 l 754 747 l 657 747 l 657 0 l 587 0 q 565 6 573 0 q 556 24 557 12 l 543 105 q 443 21 497 52 q 316 -9 388 -9 q 207 13 256 -9 q 124 78 158 36 q 72 179 90 119 q 54 312 54 238 q 74 453 54 389 q 133 563 94 517 q 227 633 172 608 q 351 659 282 659 q 458 638 414 659 q 538 580 503 617 l 538 747 l 374 747 l 374 823 m 354 86 q 456 112 413 86 q 538 185 500 138 l 538 490 q 465 549 504 532 q 378 566 425 566 q 228 503 280 566 q 176 315 176 439 q 223 142 176 199 q 354 86 270 86 m 62 -85 l 728 -85 l 728 -161 l 62 -161 l 62 -85 z "},"○":{"ha":764,"x_min":23,"x_max":741,"o":"m 23 426 q 51 565 23 500 q 128 680 79 631 q 242 756 177 728 q 382 785 307 785 q 521 756 456 785 q 635 680 587 728 q 712 565 684 631 q 741 426 741 500 q 712 286 741 351 q 635 172 684 221 q 521 95 587 123 q 382 67 456 67 q 242 95 307 67 q 128 172 177 123 q 51 286 79 221 q 23 426 23 351 m 129 426 q 149 327 129 373 q 202 247 168 281 q 283 193 237 212 q 382 173 329 173 q 481 193 435 173 q 561 247 527 212 q 615 327 595 281 q 635 425 635 373 q 615 525 635 478 q 561 605 595 571 q 481 660 527 640 q 382 680 435 680 q 283 660 329 680 q 202 605 237 640 q 149 525 168 571 q 129 426 129 479 z "},"◌":{"ha":825,"x_min":59,"x_max":766,"o":"m 374 741 q 385 768 374 756 q 412 779 397 779 q 439 768 428 779 q 451 741 451 756 q 439 714 451 725 q 412 703 428 703 q 385 714 397 703 q 374 741 374 725 m 494 717 q 505 744 494 732 q 532 755 516 755 q 559 744 547 755 q 570 717 570 732 q 559 690 570 701 q 532 678 547 678 q 505 690 516 678 q 494 717 494 701 m 596 650 q 607 676 596 665 q 634 688 618 688 q 661 676 650 688 q 673 650 673 665 q 661 623 673 634 q 634 611 650 611 q 607 623 618 611 q 596 650 596 634 m 663 548 q 674 575 663 564 q 701 586 685 586 q 728 575 716 586 q 739 548 739 564 q 728 521 739 532 q 701 509 716 509 q 674 521 685 509 q 663 548 663 532 m 690 426 q 701 453 690 441 q 728 464 713 464 q 755 453 744 464 q 766 426 766 441 q 755 399 766 410 q 728 387 744 387 q 701 399 713 387 q 690 426 690 410 m 252 717 q 263 744 252 732 q 290 755 275 755 q 317 744 306 755 q 329 717 329 732 q 317 690 329 701 q 290 678 306 678 q 263 690 275 678 q 252 717 252 701 m 150 650 q 161 676 150 665 q 189 688 173 688 q 216 676 204 688 q 227 650 227 665 q 216 623 227 634 q 189 611 204 611 q 161 623 173 611 q 150 650 150 634 m 83 548 q 94 575 83 564 q 121 586 105 586 q 148 575 136 586 q 159 548 159 564 q 148 521 159 532 q 121 509 136 509 q 94 521 105 509 q 83 548 83 532 m 59 426 q 70 453 59 441 q 97 464 81 464 q 124 453 113 464 q 136 426 136 441 q 124 399 136 410 q 97 387 113 387 q 70 399 81 387 q 59 426 59 410 m 663 306 q 674 333 663 321 q 701 345 685 345 q 728 333 716 345 q 739 306 739 321 q 728 279 739 290 q 701 268 716 268 q 674 279 685 268 q 663 306 663 290 m 83 306 q 94 333 83 321 q 121 345 105 345 q 148 333 136 345 q 159 306 159 321 q 148 279 159 290 q 121 268 136 268 q 94 279 105 268 q 83 306 83 290 m 596 203 q 607 231 596 219 q 634 242 618 242 q 661 231 650 242 q 673 203 673 219 q 661 177 673 188 q 634 165 650 165 q 607 177 618 165 q 596 203 596 188 m 150 203 q 161 231 150 219 q 189 242 173 242 q 216 231 204 242 q 227 203 227 219 q 216 177 227 188 q 189 165 204 165 q 161 177 173 165 q 150 203 150 188 m 494 137 q 505 164 494 153 q 532 176 516 176 q 559 164 547 176 q 570 137 570 153 q 559 110 570 121 q 532 99 547 99 q 505 110 516 99 q 494 137 494 121 m 252 137 q 263 164 252 153 q 290 176 275 176 q 317 164 306 176 q 329 137 329 153 q 317 110 329 121 q 290 99 306 99 q 263 110 275 99 q 252 137 252 121 m 374 110 q 385 137 374 125 q 412 148 397 148 q 439 137 428 148 q 451 110 451 125 q 439 83 451 94 q 412 71 428 71 q 385 83 397 71 q 374 110 374 94 z "},"͏":{"ha":0,"x_min":0,"x_max":0,"o":""},"᷂":{"ha":0,"x_min":-87,"x_max":94,"o":"m -87 -57 q -79 -49 -87 -54 q -59 -40 -71 -44 q -35 -32 -47 -35 q -14 -29 -22 -29 q -1 -32 -6 -29 q 11 -38 5 -34 q 26 -46 18 -42 q 46 -55 34 -51 q 81 -74 68 -62 q 94 -102 94 -85 q 81 -132 94 -121 q 52 -150 68 -142 q 22 -161 35 -157 q 9 -170 9 -165 q 19 -178 9 -174 q 42 -187 30 -181 q 65 -202 55 -193 q 76 -229 76 -212 q 66 -255 76 -245 q 44 -270 56 -264 q 22 -281 32 -276 q 12 -295 12 -286 q 18 -308 12 -302 q 36 -317 25 -313 q 37 -320 37 -317 q 36 -323 37 -321 q 34 -326 35 -326 q -6 -311 10 -321 q -22 -282 -22 -300 q -13 -260 -22 -269 q 7 -246 -3 -252 q 27 -237 18 -241 q 37 -230 37 -234 q 24 -221 37 -225 q -4 -212 12 -218 q -32 -196 -19 -205 q -44 -169 -44 -186 q -32 -141 -44 -152 q -4 -123 -19 -130 q 24 -111 12 -116 q 37 -100 37 -106 q 16 -90 37 -90 q 5 -91 9 -90 q -1 -94 2 -92 q -8 -97 -4 -96 q -18 -98 -12 -98 q -40 -93 -28 -97 q -63 -82 -52 -88 q -80 -70 -73 -77 q -87 -57 -87 -63 z "},"Ɓ":{"ha":854,"x_min":14,"x_max":804,"o":"m 251 0 l 251 800 l 239 800 q 147 769 175 800 q 119 682 119 739 q 122 650 119 666 q 126 625 125 635 q 126 602 130 613 q 106 587 123 591 l 35 570 q 19 625 24 599 q 14 683 14 652 q 29 769 14 730 q 73 835 44 808 q 143 877 101 862 q 239 891 185 891 l 504 891 q 629 875 577 891 q 714 829 681 859 q 764 756 748 799 q 779 659 779 713 q 770 595 779 626 q 743 539 762 565 q 697 492 725 513 q 631 458 669 471 q 804 254 804 422 q 785 151 804 197 q 732 70 767 104 q 646 18 697 37 q 530 0 595 0 l 251 0 m 374 406 l 374 98 l 528 98 q 599 110 570 98 q 646 142 628 121 q 673 193 665 163 q 681 257 681 222 q 644 366 681 326 q 528 406 608 406 l 374 406 m 374 492 l 498 492 q 568 504 538 492 q 617 534 597 515 q 647 582 637 554 q 656 644 656 610 q 620 758 656 722 q 504 794 583 794 l 374 794 l 374 492 z "},"Ƅ":{"ha":738,"x_min":28,"x_max":698,"o":"m 271 566 l 418 566 q 542 543 489 566 q 629 482 594 520 q 681 393 663 444 q 698 286 698 342 q 680 172 698 224 q 628 82 663 120 q 543 22 594 43 q 426 0 492 0 l 149 0 l 149 585 l 28 671 l 181 891 l 271 891 l 271 566 m 271 467 l 271 98 l 424 98 q 496 114 467 98 q 543 158 526 131 q 569 219 561 185 q 576 288 576 254 q 568 355 576 323 q 541 412 559 387 q 494 452 523 437 q 423 467 465 467 l 271 467 z "},"Ɔ":{"ha":761,"x_min":41,"x_max":716,"o":"m 108 186 q 119 183 114 186 q 129 176 123 181 q 169 140 149 155 q 212 115 189 125 q 262 100 235 105 q 324 96 290 96 q 429 119 380 96 q 513 188 477 143 q 569 298 549 233 q 590 446 590 363 q 570 592 590 528 q 515 702 551 657 q 430 771 479 747 q 322 795 381 795 q 238 783 272 795 q 181 756 204 770 q 144 729 159 741 q 119 717 130 717 q 103 721 109 717 q 94 731 98 726 l 53 788 q 169 870 102 840 q 321 901 235 901 q 482 868 409 901 q 607 774 555 835 q 687 630 659 714 q 716 446 716 547 q 689 261 716 345 q 611 117 662 177 q 490 24 561 57 q 332 -9 419 -9 q 161 26 232 -9 q 41 125 90 61 l 90 178 q 108 186 98 186 z "},"Ƈ":{"ha":801,"x_min":50,"x_max":932,"o":"m 743 789 q 744 788 743 788 l 703 731 q 693 721 699 725 q 677 717 687 717 q 650 729 665 717 q 611 756 635 741 q 551 783 587 770 q 462 795 515 795 q 346 771 399 795 q 255 702 293 747 q 197 592 218 657 q 176 446 176 528 q 198 298 176 363 q 258 188 220 233 q 348 119 296 143 q 460 96 400 96 q 526 100 496 96 q 579 115 555 105 q 625 140 604 125 q 669 176 647 155 q 690 186 680 186 q 707 178 699 186 l 756 125 q 630 26 705 61 q 452 -9 556 -9 q 286 24 360 -9 q 159 117 212 57 q 78 261 106 177 q 50 446 50 345 q 80 630 50 547 q 164 774 110 714 q 295 868 218 835 q 463 901 371 901 q 559 891 514 901 q 642 861 604 881 l 642 882 q 651 960 642 923 q 681 1025 661 997 q 734 1069 701 1053 q 817 1086 768 1086 q 878 1080 852 1086 q 932 1063 904 1074 l 916 1000 q 900 979 911 982 q 877 979 888 976 q 853 984 865 983 q 828 986 841 986 q 764 952 784 986 q 743 855 743 919 l 743 789 z "},"Ɗ":{"ha":954,"x_min":14,"x_max":913,"o":"m 913 446 q 886 263 913 345 q 809 122 859 181 q 690 32 760 64 q 534 0 620 0 l 249 0 l 249 800 l 238 800 q 146 769 174 800 q 119 682 119 739 q 121 650 119 666 q 126 625 124 635 q 126 602 130 613 q 105 587 123 591 l 34 570 q 19 625 24 599 q 14 683 14 652 q 29 769 14 730 q 72 835 43 808 q 142 877 100 862 q 238 891 184 891 l 534 891 q 690 859 620 891 q 809 768 760 827 q 886 628 859 710 q 913 446 913 545 m 787 446 q 770 591 787 527 q 719 700 752 655 q 640 768 686 745 q 534 791 593 791 l 373 791 l 373 100 l 534 100 q 640 123 593 100 q 719 191 686 146 q 770 300 752 235 q 787 446 787 364 z "},"Ƌ":{"ha":747,"x_min":79,"x_max":650,"o":"m 527 509 l 527 794 l 108 794 l 108 891 l 650 891 l 650 0 l 374 0 q 249 19 303 0 q 156 73 194 38 q 99 157 119 108 q 79 268 79 207 q 96 365 79 321 q 149 441 113 409 q 241 491 185 473 q 373 509 296 509 l 527 509 m 201 256 q 211 192 201 221 q 241 142 220 163 q 294 109 262 121 q 374 98 327 98 l 527 98 l 527 411 l 373 411 q 294 400 326 411 q 241 370 261 390 q 211 321 220 351 q 201 256 201 292 z "},"Ǝ":{"ha":678,"x_min":58,"x_max":580,"o":"m 580 891 l 580 0 l 59 0 l 58 100 l 455 100 l 455 401 l 136 401 l 136 498 l 455 498 l 455 791 l 59 791 l 59 891 l 580 891 z "},"Ə":{"ha":893,"x_min":70,"x_max":840,"o":"m 433 -9 q 288 18 355 -9 q 173 95 222 44 q 97 219 125 145 q 70 387 70 292 q 78 436 70 424 q 108 449 86 449 l 712 449 q 688 599 710 534 q 628 707 667 664 q 534 773 589 751 q 411 795 479 795 q 311 781 353 795 q 238 750 269 767 q 188 720 208 734 q 151 706 167 706 q 133 710 140 706 q 120 721 125 715 l 83 767 q 155 830 116 804 q 238 872 195 856 q 329 897 282 889 q 425 904 376 904 q 590 873 514 904 q 722 781 667 842 q 808 633 777 721 q 840 430 840 545 q 812 257 840 337 q 731 118 784 177 q 604 25 679 59 q 433 -9 528 -9 m 434 94 q 541 113 494 94 q 623 168 589 132 q 680 252 658 203 q 709 363 701 302 l 190 363 q 207 253 190 302 q 256 168 224 203 q 333 114 288 133 q 434 94 378 94 z "},"Ɛ":{"ha":658,"x_min":45,"x_max":630,"o":"m 585 755 q 569 738 576 741 q 553 734 561 734 q 529 744 543 734 q 492 766 515 754 q 436 788 469 779 q 353 798 402 798 q 281 787 311 798 q 231 757 251 776 q 201 713 211 738 q 192 660 192 688 q 204 601 192 627 q 239 559 216 576 q 294 533 262 542 q 365 525 326 525 l 497 525 l 497 435 l 355 435 q 273 421 308 435 q 216 384 239 407 q 182 331 193 360 q 171 270 171 301 q 184 201 171 233 q 221 145 197 169 q 282 109 246 122 q 364 95 318 95 q 437 105 406 95 q 489 129 467 115 q 524 157 510 143 q 545 178 537 171 q 566 188 557 188 q 576 186 571 188 q 584 180 581 184 l 630 127 q 498 23 575 55 q 332 -9 422 -9 q 225 9 277 -9 q 133 60 174 26 q 69 144 93 94 q 45 259 45 194 q 56 332 45 297 q 88 395 67 366 q 138 448 109 425 q 204 486 168 471 q 137 517 165 498 q 93 559 110 536 q 68 610 76 583 q 61 665 61 637 q 81 755 61 713 q 139 831 101 798 q 232 882 177 863 q 356 901 286 901 q 505 874 443 901 q 612 803 568 847 l 585 755 z "},"Ƒ":{"ha":638,"x_min":-87,"x_max":598,"o":"m 94 891 l 598 891 l 598 791 l 218 791 l 218 482 l 541 482 l 541 382 l 218 382 l 218 4 q 207 -89 218 -47 q 173 -162 196 -132 q 114 -210 150 -193 q 31 -227 79 -227 q -5 -225 11 -227 q -34 -221 -20 -224 q -60 -214 -47 -218 q -87 -204 -73 -210 l -71 -140 q -56 -120 -66 -123 q -33 -120 -45 -117 q -10 -125 -22 -123 q 14 -127 2 -127 q 75 -93 56 -127 q 94 4 94 -59 l 94 891 z "},"Ɠ":{"ha":878,"x_min":52,"x_max":990,"o":"m 798 789 l 763 733 q 741 716 755 720 q 712 722 728 713 q 678 744 696 731 q 633 767 659 756 q 572 787 607 779 q 488 795 536 795 q 360 770 417 795 q 262 701 302 746 q 199 590 221 655 q 178 446 178 526 q 200 295 178 361 q 264 184 223 229 q 362 114 305 138 q 487 90 419 90 q 549 94 520 90 q 602 103 577 97 q 649 119 627 110 q 693 140 671 129 l 693 336 l 564 336 q 545 342 552 336 q 537 359 537 349 l 537 429 l 805 429 l 805 86 q 737 44 772 62 q 662 15 702 26 q 577 -3 623 3 q 477 -9 531 -9 q 306 24 384 -9 q 171 117 228 57 q 83 261 115 177 q 52 446 52 345 q 82 631 52 547 q 171 775 113 715 q 310 868 229 835 q 493 901 391 901 q 604 890 554 901 q 696 859 654 879 l 696 882 q 706 960 696 923 q 736 1025 715 997 q 791 1069 757 1053 q 873 1086 825 1086 q 935 1080 909 1086 q 990 1063 962 1074 l 974 1000 q 958 979 969 982 q 935 979 947 976 q 911 984 924 983 q 885 986 898 986 q 819 952 840 986 q 798 855 798 919 l 798 789 z "},"Ɣ":{"ha":788,"x_min":4,"x_max":784,"o":"m 324 370 l 4 891 l 123 891 q 143 886 137 891 q 156 871 149 881 l 404 453 l 638 872 q 650 886 644 881 q 666 891 656 891 l 784 891 l 467 363 l 703 0 l 85 0 l 324 370 m 389 291 q 368 251 380 268 l 291 109 q 273 94 286 100 l 519 94 q 509 102 513 97 q 500 113 504 107 l 389 291 z "},"Ɩ":{"ha":401,"x_min":116,"x_max":374,"o":"m 116 892 l 240 892 l 240 190 q 260 112 240 137 q 323 87 279 87 l 374 87 l 374 45 q 367 21 374 31 q 346 5 359 11 q 314 -4 332 -1 q 276 -7 296 -7 q 207 7 237 -7 q 157 46 177 21 q 126 106 136 71 q 116 183 116 141 l 116 892 z "},"Ƙ":{"ha":722,"x_min":84,"x_max":725,"o":"m 208 502 l 243 502 q 277 508 263 502 q 302 533 291 513 l 434 787 q 518 873 471 848 q 630 899 565 899 q 686 894 664 899 q 725 880 707 888 l 712 818 q 698 798 709 800 q 676 798 688 795 q 658 802 669 800 q 636 804 647 804 q 584 789 607 804 q 547 746 562 774 l 429 518 q 404 488 418 500 q 375 468 391 475 q 407 451 393 462 q 435 421 422 439 l 712 0 l 604 0 q 570 7 581 0 q 551 26 559 14 l 319 376 q 294 399 307 391 q 256 407 281 407 l 208 407 l 208 0 l 84 0 l 84 892 l 208 892 l 208 502 z "},"Ɯ":{"ha":1221,"x_min":85,"x_max":1127,"o":"m 821 87 q 927 133 880 87 q 1003 271 975 180 l 1003 891 l 1127 891 l 1127 2 l 1063 2 q 1037 10 1047 2 q 1025 34 1027 18 l 1010 146 q 921 33 974 75 q 795 -9 869 -9 q 664 34 716 -9 q 587 152 612 77 q 542 79 569 109 q 484 28 515 48 q 417 0 452 9 q 347 -9 382 -9 q 151 77 216 -9 q 85 325 85 164 l 85 891 l 210 891 l 210 325 q 221 222 210 267 q 254 147 233 177 q 306 102 275 117 q 372 87 336 87 q 440 102 409 87 q 495 147 472 117 q 531 221 517 177 q 544 325 544 266 l 544 891 l 668 891 l 668 325 q 677 226 668 270 q 705 151 686 182 q 753 103 724 120 q 821 87 782 87 z "},"Ɲ":{"ha":897,"x_min":-90,"x_max":796,"o":"m 100 891 l 165 891 q 189 887 181 891 q 207 870 197 884 l 691 203 q 689 236 690 220 q 688 265 688 252 l 688 891 l 796 891 l 796 0 l 733 0 q 709 5 719 0 q 689 22 699 9 l 207 686 q 209 629 209 656 l 209 -15 q 199 -109 209 -66 q 167 -182 189 -151 q 110 -229 145 -212 q 26 -246 75 -246 q -35 -240 -9 -246 q -90 -224 -62 -235 l -73 -160 q -58 -139 -69 -142 q -35 -139 -47 -136 q -11 -144 -23 -142 q 15 -146 2 -146 q 80 -113 60 -146 q 100 -15 100 -79 l 100 891 z "},"Ɵ":{"ha":920,"x_min":49,"x_max":871,"o":"m 49 0 m 871 446 q 841 262 871 345 q 758 118 812 178 q 628 24 704 58 q 460 -9 553 -9 q 293 24 369 -9 q 163 118 217 58 q 79 262 109 178 q 49 446 49 345 q 79 629 49 545 q 163 773 109 713 q 293 868 217 834 q 460 901 369 901 q 628 868 553 901 q 758 773 704 834 q 841 629 812 713 q 871 446 871 545 m 460 97 q 572 118 522 97 q 659 179 622 139 q 717 276 695 219 q 743 407 739 334 l 176 407 q 203 276 181 334 q 262 179 225 219 q 349 118 298 139 q 460 97 399 97 m 460 795 q 352 775 401 795 q 266 717 302 755 q 207 624 230 679 q 178 500 184 570 l 742 500 q 713 624 735 570 q 654 717 690 679 q 569 775 618 755 q 460 795 519 795 z "},"Ƣ":{"ha":1074,"x_min":42,"x_max":989,"o":"m 989 -217 l 864 -217 l 864 678 q 859 726 864 704 q 844 764 854 748 q 819 790 834 781 q 783 799 804 799 q 729 783 755 799 q 680 742 703 768 q 736 609 717 684 q 755 446 755 534 q 730 262 755 345 q 659 118 705 178 q 547 25 613 58 q 399 -9 481 -9 q 250 25 316 -9 q 138 118 184 58 q 67 262 92 178 q 42 446 42 345 q 67 629 42 545 q 138 773 92 713 q 250 868 184 834 q 399 901 316 901 q 527 877 469 901 q 630 806 585 852 q 711 874 667 848 q 810 900 755 900 q 887 884 854 900 q 943 840 921 869 q 977 770 966 810 q 989 678 989 729 l 989 -217 m 399 94 q 493 119 451 94 q 566 189 536 143 q 612 299 595 234 q 628 446 628 364 q 612 592 628 527 q 566 703 595 657 q 493 773 536 749 q 399 798 451 798 q 303 773 346 798 q 231 703 261 749 q 184 592 201 657 q 168 446 168 527 q 184 299 168 364 q 231 189 201 234 q 303 119 261 143 q 399 94 346 94 z "},"Ƥ":{"ha":849,"x_min":16,"x_max":811,"o":"m 387 332 l 387 0 l 263 0 l 263 800 l 250 800 q 151 769 181 800 q 121 682 121 739 q 124 650 121 666 q 129 625 127 635 q 129 602 132 613 q 108 587 125 591 l 37 570 q 22 625 27 599 q 16 683 16 652 q 32 769 16 730 q 77 835 47 808 q 150 877 106 862 q 250 891 194 891 l 508 891 q 643 871 585 891 q 737 816 700 852 q 793 729 774 780 q 811 614 811 677 q 792 500 811 552 q 734 411 772 449 q 639 353 696 374 q 508 332 583 332 l 387 332 m 387 430 l 508 430 q 586 444 552 430 q 642 481 619 457 q 676 540 665 506 q 688 614 688 574 q 643 747 688 700 q 508 794 599 794 l 387 794 l 387 430 z "},"Ʀ":{"ha":754,"x_min":106,"x_max":763,"o":"m 229 235 l 229 0 l 106 0 l 106 901 l 229 901 l 229 757 l 358 757 q 504 740 442 757 q 605 690 566 722 q 664 612 645 658 q 684 509 684 566 q 669 421 684 462 q 626 347 654 380 q 558 292 598 315 q 467 256 518 269 q 509 218 491 243 l 763 -134 l 653 -134 q 604 -110 621 -134 l 378 208 q 355 229 368 223 q 319 235 343 235 l 229 235 m 229 326 l 353 326 q 444 338 404 326 q 509 374 483 351 q 549 429 536 397 q 563 500 563 461 q 358 659 563 659 l 229 659 l 229 326 z "},"Ƨ":{"ha":638,"x_min":49,"x_max":601,"o":"m 76 809 q 180 878 121 854 q 310 901 239 901 q 423 881 374 901 q 506 828 472 861 q 557 750 539 794 q 574 659 574 707 q 557 561 574 601 q 511 492 540 520 q 447 446 483 465 q 373 413 411 428 q 299 385 335 399 q 235 353 263 372 q 189 307 206 334 q 172 239 172 279 q 214 131 172 168 q 330 93 256 93 q 411 107 377 93 q 468 137 444 121 q 508 168 492 154 q 536 182 524 182 q 553 177 545 182 q 565 165 560 173 l 601 107 q 484 22 553 54 q 333 -9 415 -9 q 213 9 266 -9 q 123 63 160 28 q 68 145 87 97 q 49 252 49 193 q 66 344 49 306 q 112 410 83 382 q 176 456 140 437 q 250 490 212 475 q 324 520 288 505 q 389 553 360 534 q 434 598 417 572 q 452 663 452 625 q 443 715 452 690 q 415 759 433 740 q 371 788 397 777 q 309 799 344 799 q 241 788 269 799 q 193 765 213 778 q 159 742 172 753 q 135 732 145 732 q 118 736 125 732 q 106 750 112 741 l 76 809 z "},"Ƭ":{"ha":737,"x_min":16,"x_max":722,"o":"m 722 891 l 722 788 l 471 788 l 471 0 l 348 0 l 348 788 l 249 788 q 189 781 213 788 q 149 761 164 774 q 128 728 134 748 q 121 681 121 707 q 124 650 121 665 q 129 625 127 635 q 129 602 132 613 q 108 587 125 591 l 37 570 q 21 625 26 599 q 16 683 16 652 q 32 769 16 730 q 77 835 47 808 q 150 877 106 862 q 249 891 193 891 l 722 891 z "},"Ʈ":{"ha":677,"x_min":16,"x_max":661,"o":"m 661 891 l 661 788 l 401 788 l 401 -31 q 422 -126 401 -91 q 489 -161 443 -161 q 522 -156 509 -161 q 542 -152 534 -152 q 556 -156 549 -152 q 568 -174 564 -160 l 580 -224 q 530 -241 554 -235 q 476 -246 505 -246 q 385 -230 422 -246 q 323 -183 347 -213 q 288 -111 299 -153 q 277 -18 277 -68 l 277 788 l 16 788 l 16 891 l 661 891 z "},"Ʊ":{"ha":922,"x_min":47,"x_max":876,"o":"m 461 -9 q 302 20 376 -9 q 174 105 229 50 q 87 236 119 159 q 56 406 56 313 q 74 539 56 477 q 126 652 93 602 q 205 740 159 703 q 304 796 250 777 q 255 790 281 792 q 206 787 230 787 l 47 787 l 47 851 q 58 880 47 869 q 89 891 70 891 l 394 891 l 394 749 q 309 710 349 740 q 241 634 270 680 q 195 530 212 589 q 178 407 178 472 q 201 271 178 330 q 263 174 224 213 q 353 116 302 135 q 461 96 404 96 q 569 116 518 96 q 659 174 621 135 q 721 271 698 213 q 744 407 744 330 q 727 530 744 472 q 682 634 711 589 q 613 710 653 680 q 528 749 574 740 l 528 891 l 833 891 q 864 880 853 891 q 876 851 876 869 l 876 787 l 716 787 q 667 790 692 787 q 617 796 642 792 q 717 740 671 777 q 796 652 763 703 q 848 539 829 602 q 867 406 867 477 q 835 236 867 313 q 748 105 803 159 q 619 20 693 50 q 461 -9 545 -9 z "},"Ʋ":{"ha":891,"x_min":98,"x_max":836,"o":"m 513 879 q 569 896 543 890 q 627 901 595 901 q 786 832 736 901 q 836 635 836 763 q 816 460 836 543 q 761 305 796 376 q 678 175 726 233 q 574 76 630 117 q 456 12 518 35 q 331 -10 394 -10 q 235 7 278 -10 q 161 60 192 24 q 114 151 131 96 q 98 282 98 205 l 98 891 l 221 891 l 221 282 q 230 196 221 231 q 255 138 239 160 q 295 105 271 115 q 350 94 319 94 q 435 112 391 94 q 518 163 478 130 q 594 245 558 197 q 656 354 629 293 q 697 487 682 414 q 713 642 713 559 q 709 704 713 675 q 695 755 705 734 q 667 789 685 777 q 620 802 649 802 q 595 800 608 802 q 569 795 581 798 q 546 794 557 791 q 530 815 534 798 l 513 879 l 513 879 z "},"Ƴ":{"ha":739,"x_min":-1,"x_max":749,"o":"m 393 355 l 393 0 l 271 0 l 271 355 l -1 891 l 109 891 q 134 883 124 891 q 150 863 143 876 l 297 519 q 317 480 309 498 q 332 443 326 461 q 347 480 338 462 q 368 519 356 499 l 475 771 q 553 870 511 839 q 651 901 594 901 q 702 895 681 901 q 749 878 724 889 l 733 818 q 718 797 728 800 q 695 798 707 794 q 678 803 689 800 q 656 806 667 806 q 614 789 631 806 q 581 741 596 772 l 393 355 z "},"Ƶ":{"ha":650,"x_min":38,"x_max":617,"o":"m 617 891 l 617 846 q 604 805 617 824 l 426 504 l 597 504 l 597 411 l 371 411 l 187 100 l 608 100 l 608 0 l 38 0 l 38 48 q 41 67 38 58 q 50 84 45 76 l 243 411 l 75 411 l 75 504 l 298 504 l 467 791 l 61 791 l 61 891 l 617 891 z "},"Ʒ":{"ha":658,"x_min":28,"x_max":613,"o":"m 590 891 l 590 846 q 587 823 590 835 q 571 799 584 811 l 341 549 q 465 527 414 547 q 550 473 517 507 q 598 396 583 440 q 613 300 613 351 q 587 172 613 229 q 518 75 562 115 q 418 13 475 35 q 298 -9 361 -9 q 145 27 216 -9 q 28 126 75 63 l 76 181 q 88 189 83 189 q 97 190 94 190 q 110 188 104 190 q 125 176 116 186 q 150 151 135 165 q 186 124 165 137 q 234 103 207 112 q 296 95 262 95 q 378 111 343 95 q 438 154 414 127 q 474 218 462 182 q 486 295 486 254 q 476 360 486 330 q 442 412 465 391 q 381 447 418 434 q 289 459 343 459 l 192 459 l 192 512 q 196 532 192 522 q 210 553 199 543 l 429 791 l 53 791 l 53 891 l 590 891 z "},"Ƹ":{"ha":658,"x_min":45,"x_max":629,"o":"m 605 891 l 605 791 l 229 791 l 448 553 q 461 532 458 543 q 465 512 465 522 l 465 459 l 368 459 q 276 447 313 459 q 215 412 238 434 q 181 360 191 391 q 171 295 171 330 q 183 218 171 254 q 220 154 196 182 q 279 111 244 127 q 361 95 315 95 q 423 103 395 95 q 472 124 450 112 q 508 151 493 137 q 532 176 522 165 q 548 188 542 186 q 561 190 553 190 q 570 189 564 190 q 581 181 575 189 l 629 126 q 576 70 606 95 q 512 27 547 45 q 439 1 477 10 q 359 -9 400 -9 q 239 13 296 -9 q 139 75 182 35 q 71 172 96 115 q 45 300 45 229 q 61 398 45 353 q 112 478 77 444 q 201 531 146 511 q 334 550 256 550 l 361 550 l 87 800 q 71 823 73 812 q 68 846 68 835 l 68 891 l 605 891 z "},"Ƽ":{"ha":704,"x_min":26,"x_max":663,"o":"m 637 842 q 622 802 637 818 q 572 787 607 787 l 301 787 l 232 561 q 286 568 260 566 q 336 570 312 570 q 479 550 418 570 q 581 492 541 529 q 642 406 622 456 q 663 296 663 355 q 636 170 663 227 q 564 74 609 114 q 460 12 519 33 q 336 -10 401 -10 q 152 26 228 -10 q 26 125 76 62 l 68 175 q 79 184 75 182 q 90 186 84 186 q 111 178 100 186 q 139 154 122 168 q 182 126 157 140 q 242 104 208 113 q 323 94 277 94 q 421 111 380 94 q 489 156 463 128 q 529 220 516 184 q 542 296 542 257 q 527 369 542 337 q 484 424 512 401 q 415 457 456 446 q 323 469 374 469 q 243 463 285 469 q 163 445 202 457 l 92 466 l 193 795 q 169 794 181 794 q 144 794 157 794 l 102 794 q 67 806 77 794 q 56 831 56 818 l 56 891 l 637 891 l 637 842 z "},"Ǥ":{"ha":876,"x_min":51,"x_max":901,"o":"m 692 294 l 692 373 l 561 373 q 541 380 548 373 q 534 397 534 387 l 534 460 l 804 460 l 804 294 l 901 294 l 901 209 l 804 209 l 804 86 q 737 44 772 62 q 662 15 702 26 q 576 -3 622 3 q 477 -9 531 -9 q 306 24 384 -9 q 171 117 227 57 q 82 261 114 177 q 51 446 51 345 q 82 631 51 547 q 170 775 113 715 q 309 868 228 835 q 492 901 391 901 q 588 893 544 901 q 669 871 631 886 q 738 836 707 857 q 797 789 770 814 l 762 733 q 741 716 754 720 q 711 722 727 713 q 677 744 696 731 q 632 767 659 756 q 571 787 606 779 q 488 795 536 795 q 359 770 416 795 q 261 701 302 746 q 199 590 221 655 q 177 446 177 526 q 200 295 177 361 q 263 184 222 229 q 361 114 304 138 q 486 90 418 90 q 548 94 520 90 q 601 103 576 97 q 648 119 626 110 q 692 140 671 129 l 692 209 l 561 209 q 542 215 549 209 q 534 233 534 222 l 534 294 l 692 294 z "},"Ƕ":{"ha":1242,"x_min":98,"x_max":1198,"o":"m 786 256 q 814 125 786 167 q 896 83 843 83 q 967 103 934 83 q 1026 166 1001 124 q 1067 271 1052 208 q 1082 420 1082 334 q 1064 514 1082 483 q 1003 545 1046 545 q 979 542 989 545 q 962 539 969 539 q 940 561 943 539 l 930 625 q 980 636 954 633 q 1033 640 1006 640 q 1114 623 1082 640 q 1164 575 1145 605 q 1190 507 1183 546 q 1198 427 1198 469 q 1172 236 1198 317 q 1103 100 1146 154 q 1006 18 1061 45 q 893 -9 951 -9 q 804 5 846 -9 q 730 51 762 19 q 681 133 699 82 q 663 256 663 183 l 663 404 l 222 404 l 222 0 l 98 0 l 98 891 l 222 891 l 222 494 l 663 494 l 663 891 l 787 891 l 786 256 z "},"Ƿ":{"ha":838,"x_min":101,"x_max":786,"o":"m 786 600 q 746 409 786 498 q 633 242 706 319 q 456 99 559 165 q 224 -22 352 33 l 224 -214 l 101 -214 l 101 897 l 191 897 q 211 887 201 897 q 220 861 220 877 l 223 766 q 291 828 258 802 q 359 869 325 853 q 428 892 393 885 q 503 900 464 900 q 623 875 570 900 q 712 808 675 850 q 767 712 748 766 q 786 600 786 659 m 224 96 q 411 196 330 142 q 548 310 492 249 q 632 441 604 371 q 661 593 661 512 q 648 677 661 640 q 611 741 635 714 q 553 781 587 767 q 477 795 519 795 q 339 754 402 795 q 224 646 276 713 l 224 96 z "},"Ƞ":{"ha":892,"x_min":111,"x_max":818,"o":"m 694 -213 l 694 601 q 682 682 694 646 q 645 743 669 718 q 585 782 621 768 q 501 795 549 795 q 422 785 458 795 q 353 755 386 774 q 292 708 321 736 q 235 646 262 680 l 235 0 l 111 0 l 111 897 l 200 897 q 221 887 212 897 q 231 861 230 877 l 233 758 q 307 826 271 799 q 377 870 342 854 q 450 893 412 886 q 531 900 488 900 q 648 878 595 900 q 739 816 701 855 q 797 723 777 777 q 818 606 818 669 l 818 -213 l 694 -213 z "},"Ȣ":{"ha":704,"x_min":45,"x_max":659,"o":"m 639 758 q 624 675 639 711 q 585 611 610 639 q 528 561 561 583 q 460 521 496 539 q 534 477 498 501 q 598 422 570 454 q 642 348 625 390 q 659 251 659 307 q 638 143 659 191 q 578 61 617 95 q 482 9 539 27 q 352 -9 425 -9 q 222 9 279 -9 q 126 61 165 27 q 66 143 87 95 q 45 251 45 191 q 62 346 45 305 q 107 416 79 386 q 172 470 135 447 q 248 511 208 492 q 178 553 212 530 q 120 604 145 575 q 80 671 95 633 q 65 758 65 709 q 74 825 65 794 q 105 891 83 857 l 194 891 q 214 880 208 891 q 212 855 219 869 q 196 812 202 836 q 189 758 189 788 q 203 692 189 720 q 241 641 218 663 q 297 601 265 618 q 364 566 329 583 q 426 600 397 582 q 476 642 454 618 q 510 693 497 665 q 522 760 522 722 q 515 811 522 787 q 499 854 509 835 q 497 880 492 869 q 525 891 503 891 l 602 891 q 630 827 621 861 q 639 758 639 792 m 538 263 q 522 333 538 303 q 479 387 506 363 q 418 430 453 411 q 345 466 383 448 q 276 430 309 449 q 220 387 244 411 q 181 333 195 363 q 166 263 166 302 q 180 185 166 218 q 219 131 194 152 q 277 99 243 109 q 352 88 311 88 q 427 99 393 88 q 486 131 461 109 q 524 185 510 152 q 538 263 538 218 z "},"Ȥ":{"ha":683,"x_min":41,"x_max":651,"o":"m 643 891 l 643 846 q 630 805 643 824 l 193 100 l 651 100 l 651 -7 q 641 -95 651 -55 q 608 -164 630 -135 q 551 -210 586 -194 q 469 -227 517 -227 q 419 -221 443 -227 q 371 -204 395 -216 l 383 -155 q 394 -136 387 -140 q 408 -132 401 -132 q 428 -137 416 -132 q 458 -141 440 -141 q 496 -132 480 -141 q 522 -108 511 -123 q 537 -71 532 -92 q 542 -24 542 -50 l 542 0 l 41 0 l 41 48 q 45 67 41 58 q 54 84 48 76 l 490 791 l 64 791 l 64 891 l 643 891 z "},"Ʉ":{"ha":915,"x_min":15,"x_max":900,"o":"m 116 504 l 116 891 l 239 891 l 239 504 l 675 504 l 675 891 l 799 891 l 799 504 l 900 504 l 900 411 l 799 411 l 799 350 q 775 207 799 273 q 707 93 751 141 q 600 17 663 45 q 458 -10 537 -10 q 315 17 378 -10 q 208 93 252 45 q 140 207 163 141 q 116 350 116 273 l 116 411 l 15 411 l 15 504 l 116 504 m 458 98 q 549 116 509 98 q 617 169 589 135 q 660 248 646 202 q 675 350 675 294 l 675 411 l 239 411 l 239 351 q 254 249 239 295 q 297 169 269 202 q 366 116 326 135 q 458 98 406 98 z "},"Ɋ":{"ha":875,"x_min":49,"x_max":960,"o":"m 780 -12 q 801 -107 780 -73 q 869 -141 822 -141 q 901 -137 888 -141 q 922 -132 914 -132 q 936 -136 928 -132 q 947 -155 943 -140 l 960 -204 q 909 -221 934 -216 q 856 -227 885 -227 q 764 -210 802 -227 q 702 -164 726 -194 q 667 -92 678 -134 q 656 1 656 -50 l 656 125 q 534 26 603 60 q 387 -7 465 -7 q 253 23 315 -7 q 146 110 191 53 q 75 248 100 166 q 49 433 49 330 q 79 631 49 545 q 161 778 109 718 q 283 869 213 838 q 434 901 353 901 q 554 876 499 901 q 659 792 608 852 l 661 857 q 669 882 661 873 q 690 891 677 891 l 780 891 l 780 -12 m 420 99 q 485 108 452 99 q 547 135 517 117 q 605 182 578 153 q 656 251 633 211 l 656 686 q 566 768 614 740 q 454 796 517 796 q 344 773 395 796 q 256 704 293 749 q 197 591 218 659 q 176 437 176 524 q 194 292 176 355 q 246 186 213 229 q 323 121 279 143 q 420 99 368 99 z "},"Ɍ":{"ha":766,"x_min":14,"x_max":745,"o":"m 238 370 l 238 0 l 115 0 l 115 370 l 14 370 l 14 460 l 115 460 l 115 891 l 357 891 q 497 874 438 891 q 595 824 557 857 q 652 746 633 792 q 670 644 670 701 q 656 556 670 597 q 616 483 642 515 q 552 427 590 450 q 467 392 515 404 q 509 353 491 377 l 745 0 l 635 0 q 607 7 618 0 q 586 26 595 14 l 378 342 q 356 364 368 357 q 320 370 344 370 l 238 370 m 238 460 l 353 460 q 438 473 401 460 q 499 509 475 486 q 537 564 524 532 q 549 635 549 596 q 357 794 549 794 l 238 794 l 238 460 z "},"Ɏ":{"ha":803,"x_min":14,"x_max":789,"o":"m 140 703 l 40 891 l 149 891 q 175 883 165 891 q 191 863 184 876 l 268 703 l 536 703 l 612 863 q 628 882 618 873 q 654 891 638 891 l 763 891 l 663 703 l 789 703 l 789 613 l 614 613 l 463 328 l 463 0 l 340 0 l 340 328 l 188 613 l 14 613 l 14 703 l 140 703 m 402 416 q 417 453 408 435 q 436 492 425 472 l 494 613 l 311 613 l 368 492 q 388 453 379 471 q 402 416 396 434 z "}}}
